<svg width="68" height="87" viewBox="0 0 68 87" fill="none" xmlns="http://www.w3.org/2000/svg" xmlns:xlink="http://www.w3.org/1999/xlink">
<path d="M11.7274 76.371L6.07881 72.4658C6.07881 72.4658 2.99035 76.3723 4.90268 78.2659C7.87091 81.205 11.7274 76.371 11.7274 76.371Z" fill="#E39C2A"/>
<path d="M13.7232 73.7236L7.53174 69.7851C7.53174 69.7851 10.9162 60.5939 15.9731 58.1744C19.6743 56.4036 22.4418 53.9382 25.6408 56.5075C29.0224 59.2234 26.5533 60.6609 25.0818 64.7409C23.1632 70.0608 13.7232 73.7236 13.7232 73.7236Z" fill="#E39C2A"/>
<use xlink:href="#stroke0_8_960" transform="translate(6.66334 72.9606) scale(0.0037213) rotate(171.654)"/>
<use xlink:href="#stroke0_8_960" transform="translate(6.11833 72.1605) scale(0.00336487) rotate(21.3172)"/>
<use xlink:href="#stroke0_8_960" transform="translate(6.76393 73.739) scale(0.00386369) rotate(-136.699)"/>
<use xlink:href="#stroke0_8_960" transform="translate(7.56337 73.9837) scale(0.00399154) rotate(-171.021)"/>
<use xlink:href="#stroke0_8_960" transform="translate(6.98227 73.5014) scale(0.00271796) rotate(-58.6556)"/>
<use xlink:href="#stroke0_8_960" transform="translate(7.078 73.4842) scale(0.00341207) rotate(-21.7763)"/>
<use xlink:href="#stroke0_8_960" transform="translate(7.54216 73.6887) scale(0.00322697) rotate(-40.2774)"/>
<use xlink:href="#stroke0_8_960" transform="translate(7.91206 74.6176) scale(0.00366538) rotate(-90.4902)"/>
<use xlink:href="#stroke0_8_960" transform="translate(8.32376 73.8757) scale(0.00342369) rotate(0.214893)"/>
<use xlink:href="#stroke0_8_960" transform="translate(9.05871 75.2273) scale(0.00338771) rotate(-127.796)"/>
<use xlink:href="#stroke0_8_960" transform="translate(10.1057 74.9598) scale(0.00340613) rotate(132.519)"/>
<use xlink:href="#stroke0_8_960" transform="translate(10.0333 75.7248) scale(0.00317471) rotate(-163.883)"/>
<use xlink:href="#stroke0_8_960" transform="translate(9.92851 75.7145) scale(0.00293835) rotate(-114.171)"/>
<use xlink:href="#stroke0_8_960" transform="translate(10.1806 75.797) scale(0.00304214) rotate(-104.265)"/>
<use xlink:href="#stroke0_8_960" transform="translate(10.1707 75.1606) scale(0.00392203) rotate(-0.0615044)"/>
<use xlink:href="#stroke0_8_960" transform="translate(11.3298 76.8249) scale(0.00364191) rotate(-166.192)"/>
<use xlink:href="#stroke0_8_960" transform="translate(10.9041 75.7248) scale(0.00363859) rotate(-15.6324)"/>
<use xlink:href="#stroke0_8_960" transform="translate(11.9567 75.9155) scale(0.00288475) rotate(73.1403)"/>
<use xlink:href="#stroke0_8_960" transform="translate(11.6988 76.0167) scale(0.00381537) rotate(63.213)"/>
<use xlink:href="#stroke0_8_960" transform="translate(10.1987 77.3411) scale(0.00402854) rotate(-79.2303)"/>
<use xlink:href="#stroke0_8_960" transform="translate(10.2835 77.2467) scale(0.00332681) rotate(-23.0298)"/>
<use xlink:href="#stroke0_8_960" transform="translate(9.7234 78.0698) scale(0.00388659) rotate(-91.3674)"/>
<use xlink:href="#stroke0_8_960" transform="translate(10.6478 77.3888) scale(0.00398932) rotate(86.2541)"/>
<use xlink:href="#stroke0_8_960" transform="translate(9.78594 78.9137) scale(0.00362331) rotate(-148.465)"/>
<use xlink:href="#stroke0_8_960" transform="translate(9.75392 78.1756) scale(0.00263337) rotate(66.5196)"/>
<use xlink:href="#stroke0_8_960" transform="translate(9.7237 78.7388) scale(0.00350568) rotate(146.337)"/>
<use xlink:href="#stroke0_8_960" transform="translate(9.2806 78.6569) scale(0.0028587) rotate(123.761)"/>
<use xlink:href="#stroke0_8_960" transform="translate(8.97467 78.8718) scale(0.00259645) rotate(102.451)"/>
<use xlink:href="#stroke0_8_960" transform="translate(8.27982 78.3119) scale(0.00387958) rotate(56.6555)"/>
<use xlink:href="#stroke0_8_960" transform="translate(8.28711 78.9365) scale(0.00328679) rotate(128.614)"/>
<use xlink:href="#stroke0_8_960" transform="translate(7.64922 78.7381) scale(0.00312026) rotate(77.7755)"/>
<use xlink:href="#stroke0_8_960" transform="translate(6.71137 78.2299) scale(0.00396053) rotate(31.2715)"/>
<use xlink:href="#stroke0_8_960" transform="translate(5.82529 79.357) scale(0.00328993) rotate(-74.8861)"/>
<use xlink:href="#stroke0_8_960" transform="translate(6.84408 79.0559) scale(0.00387776) rotate(149.336)"/>
<use xlink:href="#stroke0_8_960" transform="translate(5.81369 79.64) scale(0.00334874) rotate(-166.048)"/>
<use xlink:href="#stroke0_8_960" transform="translate(5.91279 78.4646) scale(0.00348462) rotate(115.307)"/>
<use xlink:href="#stroke0_8_960" transform="translate(4.50401 78.0604) scale(0.00275806) rotate(-17.2335)"/>
<use xlink:href="#stroke0_8_960" transform="translate(4.04208 77.9752) scale(0.0029363) rotate(-22.3064)"/>
<use xlink:href="#stroke0_8_960" transform="translate(4.9355 77.8193) scale(0.00271717) rotate(120.515)"/>
<use xlink:href="#stroke0_8_960" transform="translate(3.98028 77.2349) scale(0.00278392) rotate(-20.7152)"/>
<use xlink:href="#stroke0_8_960" transform="translate(3.8989 76.5927) scale(0.00354663) rotate(1.59425)"/>
<use xlink:href="#stroke0_8_960" transform="translate(4.32405 76.2608) scale(0.00260577) rotate(45.9486)"/>
<use xlink:href="#stroke0_8_960" transform="translate(4.52231 76.9635) scale(0.00344684) rotate(-178.361)"/>
<use xlink:href="#stroke0_8_960" transform="translate(4.67443 75.5615) scale(0.00272119) rotate(58.5962)"/>
<use xlink:href="#stroke0_8_960" transform="translate(4.41808 74.9908) scale(0.00364264) rotate(31.3908)"/>
<use xlink:href="#stroke0_8_960" transform="translate(4.69942 75.82) scale(0.00350595) rotate(-170.964)"/>
<use xlink:href="#stroke0_8_960" transform="translate(4.38946 74.3333) scale(0.00270303) rotate(28.7119)"/>
<use xlink:href="#stroke0_8_960" transform="translate(5.28222 74.4149) scale(0.00287173) rotate(113.591)"/>
<use xlink:href="#stroke0_8_960" transform="translate(4.957 74.9904) scale(0.00395207) rotate(-147.933)"/>
<use xlink:href="#stroke0_8_960" transform="translate(5.67364 74.3398) scale(0.00354614) rotate(174.478)"/>
<use xlink:href="#stroke0_8_960" transform="translate(6.08554 73.2166) scale(0.0034707) rotate(105.185)"/>
<use xlink:href="#stroke0_8_960" transform="translate(4.88167 72.8719) scale(0.00374664) rotate(-29.2676)"/>
<use xlink:href="#stroke0_8_960" transform="translate(5.98064 73.4473) scale(0.00311664) rotate(-147.551)"/>
<use xlink:href="#stroke0_8_960" transform="translate(5.93696 73.1391) scale(0.00303696) rotate(-120.061)"/>
<use xlink:href="#stroke0_8_960" transform="translate(6.83259 69.5981) scale(0.00351658) rotate(-33.6223)"/>
<use xlink:href="#stroke0_8_960" transform="translate(7.24682 70.0495) scale(0.00264638) rotate(-46.9829)"/>
<use xlink:href="#stroke0_8_960" transform="translate(8.05391 70.8405) scale(0.00362993) rotate(-126.671)"/>
<use xlink:href="#stroke0_8_960" transform="translate(8.91642 70.8123) scale(0.00312498) rotate(-168.575)"/>
<use xlink:href="#stroke0_8_960" transform="translate(8.42197 70.0861) scale(0.00291275) rotate(-12.7194)"/>
<use xlink:href="#stroke0_8_960" transform="translate(8.54631 70.36) scale(0.00379576) rotate(0.558483)"/>
<use xlink:href="#stroke0_8_960" transform="translate(10.2617 70.8429) scale(0.00393401) rotate(111.593)"/>
<use xlink:href="#stroke0_8_960" transform="translate(9.21048 71.8514) scale(0.00340713) rotate(-81.7061)"/>
<use xlink:href="#stroke0_8_960" transform="translate(9.92426 70.8098) scale(0.00386707) rotate(14.8294)"/>
<use xlink:href="#stroke0_8_960" transform="translate(9.86091 71.9232) scale(0.00368075) rotate(-54.9421)"/>
<use xlink:href="#stroke0_8_960" transform="translate(10.8912 72.6778) scale(0.00386498) rotate(-123.101)"/>
<use xlink:href="#stroke0_8_960" transform="translate(10.7113 72.29) scale(0.00395642) rotate(-59.0536)"/>
<use xlink:href="#stroke0_8_960" transform="translate(11.2855 72.1612) scale(0.00289239) rotate(-22.9564)"/>
<use xlink:href="#stroke0_8_960" transform="translate(12.6529 72.8202) scale(0.00309847) rotate(134.84)"/>
<use xlink:href="#stroke0_8_960" transform="translate(11.9192 73.015) scale(0.00315697) rotate(-75.45)"/>
<use xlink:href="#stroke0_8_960" transform="translate(13.4863 72.6768) scale(0.00337513) rotate(110.861)"/>
<use xlink:href="#stroke0_8_960" transform="translate(13.6837 72.5487) scale(0.00358322) rotate(81.5817)"/>
<use xlink:href="#stroke0_8_960" transform="translate(12.7349 73.2439) scale(0.00372136) rotate(-15.6287)"/>
<use xlink:href="#stroke0_8_960" transform="translate(13.2001 73.607) scale(0.00359835) rotate(-28.9711)"/>
<use xlink:href="#stroke0_8_960" transform="translate(14.8299 73.673) scale(0.00280669) rotate(127.401)"/>
<use xlink:href="#stroke0_8_960" transform="translate(15.0352 73.5267) scale(0.00321826) rotate(157.415)"/>
<use xlink:href="#stroke0_8_960" transform="translate(14.2408 73.353) scale(0.00289761) rotate(-74.9531)"/>
<use xlink:href="#stroke0_8_960" transform="translate(15.684 73.7692) scale(0.00348748) rotate(-176.017)"/>
<use xlink:href="#stroke0_8_960" transform="translate(15.9779 72.6822) scale(0.00264226) rotate(125.022)"/>
<use xlink:href="#stroke0_8_960" transform="translate(15.1808 73.0649) scale(0.00363076) rotate(-70.2873)"/>
<use xlink:href="#stroke0_8_960" transform="translate(15.7332 71.9) scale(0.00308452) rotate(2.90817)"/>
<use xlink:href="#stroke0_8_960" transform="translate(17.1518 72.112) scale(0.00324609) rotate(111.115)"/>
<use xlink:href="#stroke0_8_960" transform="translate(16.948 71.7871) scale(0.00280958) rotate(41.4482)"/>
<use xlink:href="#stroke0_8_960" transform="translate(17.0941 71.2725) scale(0.00294978) rotate(42.8545)"/>
<use xlink:href="#stroke0_8_960" transform="translate(18.1844 72.4396) scale(0.00396887) rotate(172.024)"/>
<use xlink:href="#stroke0_8_960" transform="translate(17.2572 71.6458) scale(0.00286026) rotate(-56.4872)"/>
<use xlink:href="#stroke0_8_960" transform="translate(18.6843 71.2481) scale(0.0027479) rotate(113.63)"/>
<use xlink:href="#stroke0_8_960" transform="translate(17.668 71.3164) scale(0.0040038) rotate(-56.3965)"/>
<use xlink:href="#stroke0_8_960" transform="translate(18.3191 71.2457) scale(0.00277626) rotate(-73.0124)"/>
<use xlink:href="#stroke0_8_960" transform="translate(18.5599 70.7225) scale(0.00260149) rotate(-40.0695)"/>
<use xlink:href="#stroke0_8_960" transform="translate(19.0846 71.0532) scale(0.00261979) rotate(-114.835)"/>
<use xlink:href="#stroke0_8_960" transform="translate(19.4825 70.2582) scale(0.00290528) rotate(6.64275)"/>
<use xlink:href="#stroke0_8_960" transform="translate(20.5433 69.9688) scale(0.00332627) rotate(81.4043)"/>
<use xlink:href="#stroke0_8_960" transform="translate(19.7335 70.4801) scale(0.00352155) rotate(-96.8409)"/>
<use xlink:href="#stroke0_8_960" transform="translate(20.1132 69.2433) scale(0.00311867) rotate(-0.704846)"/>
<use xlink:href="#stroke0_8_960" transform="translate(20.8965 69.22) scale(0.00262823) rotate(30.8204)"/>
<use xlink:href="#stroke0_8_960" transform="translate(20.6366 69.5947) scale(0.00321932) rotate(-50.9222)"/>
<use xlink:href="#stroke0_8_960" transform="translate(21.9501 69.1681) scale(0.00294559) rotate(142.642)"/>
<use xlink:href="#stroke0_8_960" transform="translate(21.8935 69.4143) scale(0.00296649) rotate(-162.243)"/>
<use xlink:href="#stroke0_8_960" transform="translate(21.228 68.6009) scale(0.00376097) rotate(-44.7997)"/>
<use xlink:href="#stroke0_8_960" transform="translate(21.7058 67.8893) scale(0.00332572) rotate(-11.3791)"/>
<use xlink:href="#stroke0_8_960" transform="translate(22.1293 68.5892) scale(0.00329771) rotate(-90.6104)"/>
<use xlink:href="#stroke0_8_960" transform="translate(22.9288 67.378) scale(0.00300808) rotate(32.6947)"/>
<use xlink:href="#stroke0_8_960" transform="translate(22.454 67.3518) scale(0.00370766) rotate(-30.7562)"/>
<use xlink:href="#stroke0_8_960" transform="translate(24.177 66.8002) scale(0.00385557) rotate(79.9189)"/>
<use xlink:href="#stroke0_8_960" transform="translate(23.9962 67.3499) scale(0.00299158) rotate(-174.633)"/>
<use xlink:href="#stroke0_8_960" transform="translate(23.2249 67.0464) scale(0.00402283) rotate(-90.1221)"/>
<use xlink:href="#stroke0_8_960" transform="translate(25.247 66.1346) scale(0.0038752) rotate(114.792)"/>
<use xlink:href="#stroke0_8_960" transform="translate(23.8736 65.7263) scale(0.00327747) rotate(-35.1866)"/>
<use xlink:href="#stroke0_8_960" transform="translate(25.5453 65.5312) scale(0.00328519) rotate(123.929)"/>
<use xlink:href="#stroke0_8_960" transform="translate(24.9225 65.7893) scale(0.0035353) rotate(-155.168)"/>
<use xlink:href="#stroke0_8_960" transform="translate(25.8716 64.5957) scale(0.00357324) rotate(113.542)"/>
<use xlink:href="#stroke0_8_960" transform="translate(24.4257 64.8207) scale(0.00377658) rotate(-92.9556)"/>
<use xlink:href="#stroke0_8_960" transform="translate(25.6185 63.219) scale(0.00374892) rotate(56.3158)"/>
<use xlink:href="#stroke0_8_960" transform="translate(26.2767 64.0416) scale(0.00360664) rotate(167.995)"/>
<use xlink:href="#stroke0_8_960" transform="translate(25.1732 63.6805) scale(0.00397687) rotate(-88.352)"/>
<use xlink:href="#stroke0_8_960" transform="translate(25.2033 62.3657) scale(0.00318604) rotate(-20.8745)"/>
<use xlink:href="#stroke0_8_960" transform="translate(26.5315 61.98) scale(0.00287348) rotate(72.193)"/>
<use xlink:href="#stroke0_8_960" transform="translate(25.3819 61.7733) scale(0.00356521) rotate(-32.1108)"/>
<use xlink:href="#stroke0_8_960" transform="translate(26.7886 60.9966) scale(0.00374807) rotate(58.0569)"/>
<use xlink:href="#stroke0_8_960" transform="translate(27.1316 60.7201) scale(0.00356895) rotate(78.3036)"/>
<use xlink:href="#stroke0_8_960" transform="translate(27.4499 60.4644) scale(0.00342276) rotate(85.8076)"/>
<use xlink:href="#stroke0_8_960" transform="translate(26.5218 61.0826) scale(0.00337696) rotate(-105.132)"/>
<use xlink:href="#stroke0_8_960" transform="translate(26.2674 59.9433) scale(0.00382544) rotate(-36.8959)"/>
<use xlink:href="#stroke0_8_960" transform="translate(26.8736 60.1431) scale(0.00301506) rotate(-85.6897)"/>
<use xlink:href="#stroke0_8_960" transform="translate(26.8162 58.7129) scale(0.00375904) rotate(6.05667)"/>
<use xlink:href="#stroke0_8_960" transform="translate(26.9219 58.3245) scale(0.00368401) rotate(-0.223)"/>
<use xlink:href="#stroke0_8_960" transform="translate(27.4289 57.8065) scale(0.00393959) rotate(69.833)"/>
<use xlink:href="#stroke0_8_960" transform="translate(27.7769 57.7224) scale(0.00266198) rotate(103.404)"/>
<use xlink:href="#stroke0_8_960" transform="translate(26.158 58.1211) scale(0.0034955) rotate(-72.9695)"/>
<use xlink:href="#stroke0_8_960" transform="translate(26.3432 58.1506) scale(0.00296897) rotate(-121.192)"/>
<use xlink:href="#stroke0_8_960" transform="translate(26.3956 58.0354) scale(0.00367453) rotate(-148.935)"/>
<use xlink:href="#stroke0_8_960" transform="translate(25.9486 56.2591) scale(0.00285226) rotate(14.9145)"/>
<use xlink:href="#stroke0_8_960" transform="translate(26.3012 56.0912) scale(0.00311674) rotate(80.3572)"/>
<use xlink:href="#stroke0_8_960" transform="translate(25.2234 57.278) scale(0.00368777) rotate(-124.485)"/>
<use xlink:href="#stroke0_8_960" transform="translate(24.2949 55.9594) scale(0.00402371) rotate(-29.6863)"/>
<use xlink:href="#stroke0_8_960" transform="translate(24.1378 56.3704) scale(0.00317042) rotate(-78.8888)"/>
<use xlink:href="#stroke0_8_960" transform="translate(23.8805 56.041) scale(0.00296213) rotate(-74.4238)"/>
<use xlink:href="#stroke0_8_960" transform="translate(23.6012 56.2176) scale(0.00333528) rotate(-97.042)"/>
<use xlink:href="#stroke0_8_960" transform="translate(23.6199 55.1021) scale(0.0027237) rotate(32.8938)"/>
<use xlink:href="#stroke0_8_960" transform="translate(23.0994 55.9915) scale(0.00380735) rotate(-117.551)"/>
<use xlink:href="#stroke0_8_960" transform="translate(22.2852 55.5452) scale(0.00314912) rotate(-48.6111)"/>
<use xlink:href="#stroke0_8_960" transform="translate(22.9162 55.7004) scale(0.00265542) rotate(-175.612)"/>
<use xlink:href="#stroke0_8_960" transform="translate(21.8969 56.0294) scale(0.00382829) rotate(-116.827)"/>
<use xlink:href="#stroke0_8_960" transform="translate(21.5208 54.6838) scale(0.00338718) rotate(22.4874)"/>
<use xlink:href="#stroke0_8_960" transform="translate(20.849 55.0311) scale(0.00399274) rotate(2.31567)"/>
<use xlink:href="#stroke0_8_960" transform="translate(21.4553 56.2751) scale(0.00282282) rotate(172.325)"/>
<use xlink:href="#stroke0_8_960" transform="translate(21.03 56.3499) scale(0.00322113) rotate(-177.506)"/>
<use xlink:href="#stroke0_8_960" transform="translate(19.9838 56.6863) scale(0.0037077) rotate(-120.922)"/>
<use xlink:href="#stroke0_8_960" transform="translate(19.1418 56.0512) scale(0.003124) rotate(-52.9549)"/>
<use xlink:href="#stroke0_8_960" transform="translate(20.1428 56.3495) scale(0.00296726) rotate(133.176)"/>
<use xlink:href="#stroke0_8_960" transform="translate(18.9449 56.8246) scale(0.00286556) rotate(-122.986)"/>
<use xlink:href="#stroke0_8_960" transform="translate(18.3069 56.6677) scale(0.00275968) rotate(-64.6958)"/>
<use xlink:href="#stroke0_8_960" transform="translate(19.2026 56.6396) scale(0.00285228) rotate(99.9628)"/>
<use xlink:href="#stroke0_8_960" transform="translate(17.9296 57.7685) scale(0.00358713) rotate(-98.8153)"/>
<use xlink:href="#stroke0_8_960" transform="translate(17.1593 57.3579) scale(0.00359513) rotate(-79.5546)"/>
<use xlink:href="#stroke0_8_960" transform="translate(17.079 56.9873) scale(0.00392782) rotate(0.0149319)"/>
<use xlink:href="#stroke0_8_960" transform="translate(17.7583 57.2167) scale(0.00387243) rotate(89.4567)"/>
<use xlink:href="#stroke0_8_960" transform="translate(15.957 57.6276) scale(0.00318826) rotate(-50.8236)"/>
<use xlink:href="#stroke0_8_960" transform="translate(16.9135 58.4652) scale(0.00393002) rotate(172.538)"/>
<use xlink:href="#stroke0_8_960" transform="translate(15.1696 57.6625) scale(0.00373329) rotate(-19.8058)"/>
<use xlink:href="#stroke0_8_960" transform="translate(15.5666 57.5903) scale(0.00286009) rotate(52.2795)"/>
<use xlink:href="#stroke0_8_960" transform="translate(14.7275 59.1309) scale(0.00390944) rotate(-108.599)"/>
<use xlink:href="#stroke0_8_960" transform="translate(14.2593 59.3842) scale(0.00396617) rotate(-101.464)"/>
<use xlink:href="#stroke0_8_960" transform="translate(14.7242 58.5181) scale(0.00278551) rotate(68.9075)"/>
<use xlink:href="#stroke0_8_960" transform="translate(14.6734 59.5112) scale(0.00304742) rotate(162.46)"/>
<use xlink:href="#stroke0_8_960" transform="translate(14.5768 59.1106) scale(0.00397266) rotate(80.4149)"/>
<use xlink:href="#stroke0_8_960" transform="translate(14.1915 59.4409) scale(0.00403801) rotate(108.709)"/>
<use xlink:href="#stroke0_8_960" transform="translate(13.8933 60.5785) scale(0.00274592) rotate(159.593)"/>
<use xlink:href="#stroke0_8_960" transform="translate(12.2458 60.7893) scale(0.00399954) rotate(-68.7195)"/>
<use xlink:href="#stroke0_8_960" transform="translate(12.6851 60.3486) scale(0.00310705) rotate(23.0779)"/>
<use xlink:href="#stroke0_8_960" transform="translate(12.9569 61.1694) scale(0.00276277) rotate(147.886)"/>
<use xlink:href="#stroke0_8_960" transform="translate(12.5214 60.791) scale(0.00277357) rotate(78.5855)"/>
<use xlink:href="#stroke0_8_960" transform="translate(11.3489 61.7954) scale(0.00317366) rotate(-74.0485)"/>
<use xlink:href="#stroke0_8_960" transform="translate(12.2156 62.2645) scale(0.00365048) rotate(169.999)"/>
<use xlink:href="#stroke0_8_960" transform="translate(11.0917 62.7148) scale(0.00315075) rotate(-99.6858)"/>
<use xlink:href="#stroke0_8_960" transform="translate(10.9571 61.8868) scale(0.00351559) rotate(15.7467)"/>
<use xlink:href="#stroke0_8_960" transform="translate(11.5117 63.5204) scale(0.00285831) rotate(-164.445)"/>
<use xlink:href="#stroke0_8_960" transform="translate(11.4233 62.9497) scale(0.00363935) rotate(121.449)"/>
<use xlink:href="#stroke0_8_960" transform="translate(11.2831 63.3897) scale(0.00396608) rotate(124.451)"/>
<use xlink:href="#stroke0_8_960" transform="translate(10.2717 64.4981) scale(0.00273243) rotate(-104.84)"/>
<use xlink:href="#stroke0_8_960" transform="translate(10.1358 64.7861) scale(0.00287865) rotate(-131.002)"/>
<use xlink:href="#stroke0_8_960" transform="translate(10.7866 64.719) scale(0.0039698) rotate(143.839)"/>
<use xlink:href="#stroke0_8_960" transform="translate(10.5336 64.7561) scale(0.00276778) rotate(102.247)"/>
<use xlink:href="#stroke0_8_960" transform="translate(9.12419 64.819) scale(0.00336882) rotate(-10.3153)"/>
<use xlink:href="#stroke0_8_960" transform="translate(9.2476 66.2712) scale(0.00346392) rotate(-124.804)"/>
<use xlink:href="#stroke0_8_960" transform="translate(9.48563 66.6981) scale(0.00367004) rotate(-156.153)"/>
<use xlink:href="#stroke0_8_960" transform="translate(9.09378 65.8247) scale(0.00262301) rotate(32.4843)"/>
<use xlink:href="#stroke0_8_960" transform="translate(9.19642 66.1043) scale(0.0027133) rotate(72.6066)"/>
<use xlink:href="#stroke0_8_960" transform="translate(8.82766 66.2602) scale(0.00294705) rotate(55.7079)"/>
<use xlink:href="#stroke0_8_960" transform="translate(8.44995 68.0902) scale(0.00393456) rotate(-118.266)"/>
<use xlink:href="#stroke0_8_960" transform="translate(8.16656 68.2095) scale(0.00306238) rotate(-125.498)"/>
<use xlink:href="#stroke0_8_960" transform="translate(8.19175 68.7397) scale(0.00376019) rotate(-142.666)"/>
<use xlink:href="#stroke0_8_960" transform="translate(8.67821 67.9035) scale(0.00385902) rotate(87.2012)"/>
<use xlink:href="#stroke0_8_960" transform="translate(8.17338 69.3208) scale(0.00300348) rotate(-170.118)"/>
<use xlink:href="#stroke0_8_960" transform="translate(8.38016 69.047) scale(0.00387332) rotate(125.414)"/>
<use xlink:href="#stroke0_8_960" transform="translate(7.133 69.182) scale(0.0034657) rotate(-8.25906)"/>
<path d="M52.9769 69.6219L46.5065 68.2462C46.5065 68.2462 45.2508 72.893 47.8522 73.5821C51.8517 74.6415 52.9769 69.6219 52.9769 69.6219Z" fill="#E39C2A"/>
<path d="M54.4395 67.2188L46.7016 65.3741C46.7016 65.3741 46.2041 55.5923 49.9043 51.381C52.6126 48.2987 53.9583 44.0628 57.9094 45.1692C62.086 46.3387 61.1078 50.1666 61.3571 54.4967C61.6822 60.1426 54.4395 67.2188 54.4395 67.2188Z" fill="#E39C2A"/>
<use xlink:href="#stroke1_8_960" transform="translate(46.6062 68.9543) scale(0.00347477) rotate(-146.609)"/>
<use xlink:href="#stroke1_8_960" transform="translate(47.2286 67.8153) scale(0.00264252) rotate(80.813)"/>
<use xlink:href="#stroke1_8_960" transform="translate(47.791 68.281) scale(0.00314159) rotate(111.847)"/>
<use xlink:href="#stroke1_8_960" transform="translate(46.9788 68.8183) scale(0.00308875) rotate(-74.0079)"/>
<use xlink:href="#stroke1_8_960" transform="translate(47.3443 68.3239) scale(0.00347078) rotate(-10.7887)"/>
<use xlink:href="#stroke1_8_960" transform="translate(48.2532 67.6406) scale(0.00402418) rotate(28.7865)"/>
<use xlink:href="#stroke1_8_960" transform="translate(48.9412 69.3863) scale(0.0026955) rotate(-157.936)"/>
<use xlink:href="#stroke1_8_960" transform="translate(48.7563 68.3166) scale(0.00285097) rotate(3.79126)"/>
<use xlink:href="#stroke1_8_960" transform="translate(50.0672 69.5688) scale(0.00373773) rotate(167.706)"/>
<use xlink:href="#stroke1_8_960" transform="translate(49.9896 69.7208) scale(0.002732) rotate(-155.216)"/>
<use xlink:href="#stroke1_8_960" transform="translate(49.5929 69.5845) scale(0.00314323) rotate(-76.1315)"/>
<use xlink:href="#stroke1_8_960" transform="translate(50.986 68.6102) scale(0.0028416) rotate(84.5778)"/>
<use xlink:href="#stroke1_8_960" transform="translate(50.4824 68.5686) scale(0.00383676) rotate(4.12248)"/>
<use xlink:href="#stroke1_8_960" transform="translate(51.9388 69.4045) scale(0.00290335) rotate(139.695)"/>
<use xlink:href="#stroke1_8_960" transform="translate(50.989 69.4302) scale(0.0037104) rotate(-55.2429)"/>
<use xlink:href="#stroke1_8_960" transform="translate(51.5582 68.8975) scale(0.00361912) rotate(-20.7347)"/>
<use xlink:href="#stroke1_8_960" transform="translate(52.1635 68.7822) scale(0.00337644) rotate(-1.32422)"/>
<use xlink:href="#stroke1_8_960" transform="translate(52.7472 68.9882) scale(0.00324322) rotate(21.7775)"/>
<use xlink:href="#stroke1_8_960" transform="translate(53.5671 70.3816) scale(0.00286943) rotate(167.748)"/>
<use xlink:href="#stroke1_8_960" transform="translate(53.1593 69.7451) scale(0.00382118) rotate(87.8511)"/>
<use xlink:href="#stroke1_8_960" transform="translate(52.8144 71.25) scale(0.00291935) rotate(-163.41)"/>
<use xlink:href="#stroke1_8_960" transform="translate(52.7708 71.3088) scale(0.00289969) rotate(167.453)"/>
<use xlink:href="#stroke1_8_960" transform="translate(51.3265 71.256) scale(0.00370825) rotate(-46.1659)"/>
<use xlink:href="#stroke1_8_960" transform="translate(52.6488 71.3788) scale(0.0039313) rotate(108.429)"/>
<use xlink:href="#stroke1_8_960" transform="translate(52.1227 71.49) scale(0.0035585) rotate(83.6231)"/>
<use xlink:href="#stroke1_8_960" transform="translate(50.997 72.1988) scale(0.00285397) rotate(-24.7071)"/>
<use xlink:href="#stroke1_8_960" transform="translate(51.8783 72.2171) scale(0.00390221) rotate(90.7895)"/>
<use xlink:href="#stroke1_8_960" transform="translate(50.9063 72.1779) scale(0.00344597) rotate(47.8347)"/>
<use xlink:href="#stroke1_8_960" transform="translate(49.8261 72.7018) scale(0.00402912) rotate(-13.879)"/>
<use xlink:href="#stroke1_8_960" transform="translate(49.4486 73.3353) scale(0.00401258) rotate(-25.3)"/>
<use xlink:href="#stroke1_8_960" transform="translate(49.2077 73.2336) scale(0.00304049) rotate(-14.8683)"/>
<use xlink:href="#stroke1_8_960" transform="translate(49.082 74.5855) scale(0.00394058) rotate(-119.798)"/>
<use xlink:href="#stroke1_8_960" transform="translate(48.7407 74.3582) scale(0.00313981) rotate(-123.847)"/>
<use xlink:href="#stroke1_8_960" transform="translate(47.9092 73.876) scale(0.0030721) rotate(-59.5718)"/>
<use xlink:href="#stroke1_8_960" transform="translate(47.6085 74.1714) scale(0.00287421) rotate(-75.5363)"/>
<use xlink:href="#stroke1_8_960" transform="translate(47.9529 73.2571) scale(0.00273348) rotate(57.4828)"/>
<use xlink:href="#stroke1_8_960" transform="translate(48.2527 73.6192) scale(0.00372158) rotate(150.696)"/>
<use xlink:href="#stroke1_8_960" transform="translate(47.0204 74.1197) scale(0.00367978) rotate(-140.502)"/>
<use xlink:href="#stroke1_8_960" transform="translate(46.0743 73.3093) scale(0.00396626) rotate(-78.706)"/>
<use xlink:href="#stroke1_8_960" transform="translate(47.2554 72.436) scale(0.0029587) rotate(125.486)"/>
<use xlink:href="#stroke1_8_960" transform="translate(45.5379 72.1738) scale(0.00371382) rotate(-46.0421)"/>
<use xlink:href="#stroke1_8_960" transform="translate(45.7477 71.4154) scale(0.00288161) rotate(-6.31892)"/>
<use xlink:href="#stroke1_8_960" transform="translate(46.2783 70.5907) scale(0.00383219) rotate(30.6799)"/>
<use xlink:href="#stroke1_8_960" transform="translate(45.5951 71.2469) scale(0.00280973) rotate(-74.1023)"/>
<use xlink:href="#stroke1_8_960" transform="translate(46.2046 71.3769) scale(0.0040286) rotate(-121.906)"/>
<use xlink:href="#stroke1_8_960" transform="translate(45.8355 70.5086) scale(0.00349203) rotate(-78.9309)"/>
<use xlink:href="#stroke1_8_960" transform="translate(46.3874 70.3575) scale(0.00315284) rotate(-154.078)"/>
<use xlink:href="#stroke1_8_960" transform="translate(45.9992 68.924) scale(0.00268678) rotate(8.63958)"/>
<use xlink:href="#stroke1_8_960" transform="translate(47.1841 69.3409) scale(0.00321218) rotate(154.903)"/>
<use xlink:href="#stroke1_8_960" transform="translate(46.4336 69.2821) scale(0.00315172) rotate(-149.027)"/>
<use xlink:href="#stroke1_8_960" transform="translate(46.4116 67.8136) scale(0.002769) rotate(20.6963)"/>
<use xlink:href="#stroke1_8_960" transform="translate(47.4778 65.4523) scale(0.0037905) rotate(137.156)"/>
<use xlink:href="#stroke1_8_960" transform="translate(47.4945 65.8432) scale(0.00270951) rotate(173.171)"/>
<use xlink:href="#stroke1_8_960" transform="translate(48.0441 66.2599) scale(0.00395769) rotate(172.283)"/>
<use xlink:href="#stroke1_8_960" transform="translate(47.9481 66.4275) scale(0.00276415) rotate(-153.028)"/>
<use xlink:href="#stroke1_8_960" transform="translate(48.242 66.383) scale(0.00392027) rotate(-135.243)"/>
<use xlink:href="#stroke1_8_960" transform="translate(49.0001 65.2564) scale(0.00320757) rotate(71.5519)"/>
<use xlink:href="#stroke1_8_960" transform="translate(48.9059 65.0439) scale(0.00325289) rotate(24.5196)"/>
<use xlink:href="#stroke1_8_960" transform="translate(49.4421 65.1336) scale(0.00315252) rotate(38.8088)"/>
<use xlink:href="#stroke1_8_960" transform="translate(49.1183 66.2267) scale(0.00300302) rotate(-44.9999)"/>
<use xlink:href="#stroke1_8_960" transform="translate(50.7514 65.8957) scale(0.00283831) rotate(126.024)"/>
<use xlink:href="#stroke1_8_960" transform="translate(50.4901 65.5769) scale(0.00284768) rotate(43.4329)"/>
<use xlink:href="#stroke1_8_960" transform="translate(50.0405 66.4884) scale(0.00401253) rotate(-59.5104)"/>
<use xlink:href="#stroke1_8_960" transform="translate(51.5281 65.8856) scale(0.00299732) rotate(67.4517)"/>
<use xlink:href="#stroke1_8_960" transform="translate(51.8754 65.783) scale(0.00308412) rotate(62.4923)"/>
<use xlink:href="#stroke1_8_960" transform="translate(52.5098 66.51) scale(0.00273682) rotate(122.729)"/>
<use xlink:href="#stroke1_8_960" transform="translate(52.0376 66.972) scale(0.00280159) rotate(-108.867)"/>
<use xlink:href="#stroke1_8_960" transform="translate(53.1542 67.1934) scale(0.00304314) rotate(147.843)"/>
<use xlink:href="#stroke1_8_960" transform="translate(53.1909 66.3016) scale(0.00279054) rotate(65.3493)"/>
<use xlink:href="#stroke1_8_960" transform="translate(53.6381 66.8548) scale(0.00265604) rotate(93.5583)"/>
<use xlink:href="#stroke1_8_960" transform="translate(54.2592 67.3695) scale(0.0034121) rotate(144.609)"/>
<use xlink:href="#stroke1_8_960" transform="translate(54.6145 66.7588) scale(0.00301743) rotate(111.868)"/>
<use xlink:href="#stroke1_8_960" transform="translate(54.4629 66.5158) scale(0.00267942) rotate(52.3333)"/>
<use xlink:href="#stroke1_8_960" transform="translate(54.8271 66.4611) scale(0.00366105) rotate(42.7492)"/>
<use xlink:href="#stroke1_8_960" transform="translate(55.6775 67.0892) scale(0.00310068) rotate(148.973)"/>
<use xlink:href="#stroke1_8_960" transform="translate(55.4973 66.0729) scale(0.0027843) rotate(65.3964)"/>
<use xlink:href="#stroke1_8_960" transform="translate(55.0304 66.8631) scale(0.00358814) rotate(-99.7707)"/>
<use xlink:href="#stroke1_8_960" transform="translate(55.1218 65.7125) scale(0.00377028) rotate(-26.4597)"/>
<use xlink:href="#stroke1_8_960" transform="translate(56.4356 65.2397) scale(0.00305145) rotate(109.858)"/>
<use xlink:href="#stroke1_8_960" transform="translate(56.0081 65.7336) scale(0.00263861) rotate(-134.16)"/>
<use xlink:href="#stroke1_8_960" transform="translate(57.1452 64.6985) scale(0.00382198) rotate(109.299)"/>
<use xlink:href="#stroke1_8_960" transform="translate(56.2266 64.1286) scale(0.00322825) rotate(1.71085)"/>
<use xlink:href="#stroke1_8_960" transform="translate(56.246 64.0661) scale(0.00340949) rotate(-26.4819)"/>
<use xlink:href="#stroke1_8_960" transform="translate(57.4741 63.6055) scale(0.00276824) rotate(90.8377)"/>
<use xlink:href="#stroke1_8_960" transform="translate(57.9848 63.8596) scale(0.00289301) rotate(135.529)"/>
<use xlink:href="#stroke1_8_960" transform="translate(57.0299 64.0544) scale(0.00397089) rotate(-101.335)"/>
<use xlink:href="#stroke1_8_960" transform="translate(58.0586 62.4158) scale(0.00396564) rotate(39.0277)"/>
<use xlink:href="#stroke1_8_960" transform="translate(58.9697 62.353) scale(0.00396385) rotate(100.534)"/>
<use xlink:href="#stroke1_8_960" transform="translate(58.0555 62.9035) scale(0.0033348) rotate(-117.655)"/>
<use xlink:href="#stroke1_8_960" transform="translate(59.1582 61.488) scale(0.00371499) rotate(98.8644)"/>
<use xlink:href="#stroke1_8_960" transform="translate(59.193 62.1962) scale(0.00368984) rotate(-170.747)"/>
<use xlink:href="#stroke1_8_960" transform="translate(59.6672 60.948) scale(0.00287782) rotate(82.6093)"/>
<use xlink:href="#stroke1_8_960" transform="translate(60.0042 60.6698) scale(0.00386601) rotate(114.51)"/>
<use xlink:href="#stroke1_8_960" transform="translate(59.8785 61.1275) scale(0.00290518) rotate(-170.33)"/>
<use xlink:href="#stroke1_8_960" transform="translate(60.3331 60.3796) scale(0.00316313) rotate(140.784)"/>
<use xlink:href="#stroke1_8_960" transform="translate(60.2262 59.4918) scale(0.00312272) rotate(97.3419)"/>
<use xlink:href="#stroke1_8_960" transform="translate(60.2635 60.2876) scale(0.00293235) rotate(-146.868)"/>
<use xlink:href="#stroke1_8_960" transform="translate(59.634 59.3742) scale(0.00278142) rotate(-53.7994)"/>
<use xlink:href="#stroke1_8_960" transform="translate(60.6608 58.7305) scale(0.00279257) rotate(112.382)"/>
<use xlink:href="#stroke1_8_960" transform="translate(60.4239 59.3397) scale(0.00296011) rotate(-115.2)"/>
<use xlink:href="#stroke1_8_960" transform="translate(61.2027 58.3789) scale(0.00397194) rotate(142.144)"/>
<use xlink:href="#stroke1_8_960" transform="translate(60.8661 58.6484) scale(0.00352548) rotate(-138.561)"/>
<use xlink:href="#stroke1_8_960" transform="translate(60.8289 58.2295) scale(0.0036665) rotate(-133.439)"/>
<use xlink:href="#stroke1_8_960" transform="translate(61.4057 56.4673) scale(0.00375736) rotate(87.1304)"/>
<use xlink:href="#stroke1_8_960" transform="translate(60.888 57.1538) scale(0.00260546) rotate(-106.797)"/>
<use xlink:href="#stroke1_8_960" transform="translate(60.8749 55.6446) scale(0.0032271) rotate(33.1857)"/>
<use xlink:href="#stroke1_8_960" transform="translate(61.2959 56.666) scale(0.00340242) rotate(-134.347)"/>
<use xlink:href="#stroke1_8_960" transform="translate(60.8965 55.3483) scale(0.00277186) rotate(-22.3937)"/>
<use xlink:href="#stroke1_8_960" transform="translate(61.3635 55.9121) scale(0.00333553) rotate(-130.939)"/>
<use xlink:href="#stroke1_8_960" transform="translate(60.5933 54.8916) scale(0.00293777) rotate(-52.3652)"/>
<use xlink:href="#stroke1_8_960" transform="translate(60.4054 54.3461) scale(0.00371435) rotate(-39.6743)"/>
<use xlink:href="#stroke1_8_960" transform="translate(61.6234 53.3257) scale(0.00342827) rotate(51.6564)"/>
<use xlink:href="#stroke1_8_960" transform="translate(60.8528 53.4991) scale(0.00335452) rotate(-38.9471)"/>
<use xlink:href="#stroke1_8_960" transform="translate(61.3808 52.74) scale(0.00261062) rotate(26.7651)"/>
<use xlink:href="#stroke1_8_960" transform="translate(61.2734 52.1975) scale(0.00342959) rotate(44.2169)"/>
<use xlink:href="#stroke1_8_960" transform="translate(61.6677 51.9771) scale(0.00344359) rotate(84.9643)"/>
<use xlink:href="#stroke1_8_960" transform="translate(61.4296 52.7994) scale(0.00362409) rotate(-149.313)"/>
<use xlink:href="#stroke1_8_960" transform="translate(61.788 52.0868) scale(0.00338801) rotate(170.548)"/>
<use xlink:href="#stroke1_8_960" transform="translate(60.8216 51.7046) scale(0.00262316) rotate(-99.1363)"/>
<use xlink:href="#stroke1_8_960" transform="translate(60.4321 51.0148) scale(0.00301872) rotate(-54.2951)"/>
<use xlink:href="#stroke1_8_960" transform="translate(62.0787 50.8322) scale(0.0038613) rotate(153.396)"/>
<use xlink:href="#stroke1_8_960" transform="translate(60.8155 49.5457) scale(0.00315732) rotate(14.3657)"/>
<use xlink:href="#stroke1_8_960" transform="translate(60.6122 49.3644) scale(0.00319841) rotate(-13.424)"/>
<use xlink:href="#stroke1_8_960" transform="translate(61.6466 48.6629) scale(0.00331472) rotate(56.823)"/>
<use xlink:href="#stroke1_8_960" transform="translate(60.6572 49.1096) scale(0.00289245) rotate(-62.2529)"/>
<use xlink:href="#stroke1_8_960" transform="translate(61.2705 49.1817) scale(0.00293063) rotate(-169.194)"/>
<use xlink:href="#stroke1_8_960" transform="translate(61.5156 48.0448) scale(0.00266559) rotate(102.748)"/>
<use xlink:href="#stroke1_8_960" transform="translate(59.955 47.9149) scale(0.00359413) rotate(-40.2039)"/>
<use xlink:href="#stroke1_8_960" transform="translate(60.5425 47.254) scale(0.00260095) rotate(-18.8879)"/>
<use xlink:href="#stroke1_8_960" transform="translate(60.1651 47.7763) scale(0.00266612) rotate(-95.3366)"/>
<use xlink:href="#stroke1_8_960" transform="translate(59.7543 46.6589) scale(0.00349141) rotate(-11.2954)"/>
<use xlink:href="#stroke1_8_960" transform="translate(59.7471 46.8433) scale(0.00348971) rotate(-73.3133)"/>
<use xlink:href="#stroke1_8_960" transform="translate(59.5188 45.9475) scale(0.00306625) rotate(-3.2302)"/>
<use xlink:href="#stroke1_8_960" transform="translate(59.9013 45.2367) scale(0.00349233) rotate(46.8276)"/>
<use xlink:href="#stroke1_8_960" transform="translate(59.7322 46.5219) scale(0.00392377) rotate(-163.738)"/>
<use xlink:href="#stroke1_8_960" transform="translate(59.2282 44.6923) scale(0.00356293) rotate(53.2128)"/>
<use xlink:href="#stroke1_8_960" transform="translate(59.2629 45.6991) scale(0.00351552) rotate(149.138)"/>
<use xlink:href="#stroke1_8_960" transform="translate(58.654 44.5344) scale(0.00342936) rotate(75.2042)"/>
<use xlink:href="#stroke1_8_960" transform="translate(58.1443 45.6384) scale(0.00303928) rotate(-165.834)"/>
<use xlink:href="#stroke1_8_960" transform="translate(58.1391 45.5439) scale(0.00380856) rotate(150.376)"/>
<use xlink:href="#stroke1_8_960" transform="translate(57.606 44.9035) scale(0.00304891) rotate(110.083)"/>
<use xlink:href="#stroke1_8_960" transform="translate(57.0008 45.2264) scale(0.00265722) rotate(-172.958)"/>
<use xlink:href="#stroke1_8_960" transform="translate(56.2211 45.8044) scale(0.00278015) rotate(-121.558)"/>
<use xlink:href="#stroke1_8_960" transform="translate(56.1447 45.7735) scale(0.00308292) rotate(-148.292)"/>
<use xlink:href="#stroke1_8_960" transform="translate(56.1529 44.555) scale(0.00339827) rotate(95.0507)"/>
<use xlink:href="#stroke1_8_960" transform="translate(54.7088 45.2828) scale(0.00268086) rotate(-68.703)"/>
<use xlink:href="#stroke1_8_960" transform="translate(54.9031 45.9171) scale(0.00313111) rotate(-138.053)"/>
<use xlink:href="#stroke1_8_960" transform="translate(55.2816 45.5359) scale(0.00262256) rotate(110.893)"/>
<use xlink:href="#stroke1_8_960" transform="translate(54.0988 45.2471) scale(0.00366226) rotate(12.8864)"/>
<use xlink:href="#stroke1_8_960" transform="translate(54.6098 46.1628) scale(0.00266719) rotate(144.848)"/>
<use xlink:href="#stroke1_8_960" transform="translate(53.0341 46.083) scale(0.00310511) rotate(-45.4897)"/>
<use xlink:href="#stroke1_8_960" transform="translate(52.7384 46.804) scale(0.00368275) rotate(-77.5933)"/>
<use xlink:href="#stroke1_8_960" transform="translate(53.9105 47.0746) scale(0.00284543) rotate(147.143)"/>
<use xlink:href="#stroke1_8_960" transform="translate(52.9742 46.6406) scale(0.00270493) rotate(24.2257)"/>
<use xlink:href="#stroke1_8_960" transform="translate(52.8757 46.8189) scale(0.00341727) rotate(32.59)"/>
<use xlink:href="#stroke1_8_960" transform="translate(52.7771 48.2605) scale(0.00277297) rotate(-153.547)"/>
<use xlink:href="#stroke1_8_960" transform="translate(51.9498 48.5921) scale(0.00356719) rotate(-101.966)"/>
<use xlink:href="#stroke1_8_960" transform="translate(52.7863 48.3122) scale(0.00271977) rotate(127.377)"/>
<use xlink:href="#stroke1_8_960" transform="translate(51.5356 49.1856) scale(0.00361272) rotate(-84.166)"/>
<use xlink:href="#stroke1_8_960" transform="translate(51.1822 49.328) scale(0.00309959) rotate(-89.4297)"/>
<use xlink:href="#stroke1_8_960" transform="translate(52.1692 49.2502) scale(0.00388404) rotate(133.942)"/>
<use xlink:href="#stroke1_8_960" transform="translate(51.449 49.0256) scale(0.00304404) rotate(65.1892)"/>
<use xlink:href="#stroke1_8_960" transform="translate(50.4352 49.8711) scale(0.0033155) rotate(-37.4964)"/>
<use xlink:href="#stroke1_8_960" transform="translate(51.0276 49.732) scale(0.00275886) rotate(58.7148)"/>
<use xlink:href="#stroke1_8_960" transform="translate(51.3806 50.3143) scale(0.0034544) rotate(100.886)"/>
<use xlink:href="#stroke1_8_960" transform="translate(51.2633 50.8605) scale(0.00381999) rotate(119.715)"/>
<use xlink:href="#stroke1_8_960" transform="translate(50.453 50.7718) scale(0.00274485) rotate(88.2195)"/>
<use xlink:href="#stroke1_8_960" transform="translate(50.2048 50.8968) scale(0.00331781) rotate(69.7479)"/>
<use xlink:href="#stroke1_8_960" transform="translate(48.9028 51.9205) scale(0.00396123) rotate(-48.8082)"/>
<use xlink:href="#stroke1_8_960" transform="translate(48.9507 52.8226) scale(0.0037683) rotate(-124.998)"/>
<use xlink:href="#stroke1_8_960" transform="translate(49.9093 52.7332) scale(0.00309901) rotate(139.205)"/>
<use xlink:href="#stroke1_8_960" transform="translate(49.288 52.7416) scale(0.00284502) rotate(133.091)"/>
<use xlink:href="#stroke1_8_960" transform="translate(49.0828 53.2481) scale(0.00261558) rotate(154.107)"/>
<use xlink:href="#stroke1_8_960" transform="translate(48.7719 52.8448) scale(0.00293111) rotate(56.751)"/>
<use xlink:href="#stroke1_8_960" transform="translate(48.7184 53.2815) scale(0.00298709) rotate(95.7955)"/>
<use xlink:href="#stroke1_8_960" transform="translate(48.4431 53.4801) scale(0.0033293) rotate(38.0989)"/>
<use xlink:href="#stroke1_8_960" transform="translate(48.2021 53.7782) scale(0.00327191) rotate(47.3866)"/>
<use xlink:href="#stroke1_8_960" transform="translate(47.0431 54.8782) scale(0.00370805) rotate(-56.3138)"/>
<use xlink:href="#stroke1_8_960" transform="translate(47.2457 55.5025) scale(0.00347195) rotate(-67.3841)"/>
<use xlink:href="#stroke1_8_960" transform="translate(48.0286 56.1737) scale(0.0029787) rotate(-165.002)"/>
<use xlink:href="#stroke1_8_960" transform="translate(48.0478 55.4147) scale(0.00317164) rotate(63.192)"/>
<use xlink:href="#stroke1_8_960" transform="translate(47.2001 55.9628) scale(0.00291596) rotate(-7.73734)"/>
<use xlink:href="#stroke1_8_960" transform="translate(47.1326 56.2697) scale(0.00341463) rotate(-6.25268)"/>
<use xlink:href="#stroke1_8_960" transform="translate(46.7425 56.4113) scale(0.00379526) rotate(9.39109)"/>
<use xlink:href="#stroke1_8_960" transform="translate(47.3176 58.2984) scale(0.00384033) rotate(-153.68)"/>
<use xlink:href="#stroke1_8_960" transform="translate(46.5591 57.5703) scale(0.00296417) rotate(-11.2586)"/>
<use xlink:href="#stroke1_8_960" transform="translate(47.1079 57.7387) scale(0.00268546) rotate(57.0776)"/>
<use xlink:href="#stroke1_8_960" transform="translate(46.6711 58.3851) scale(0.00323898) rotate(-22.2165)"/>
<use xlink:href="#stroke1_8_960" transform="translate(47.0099 59.8696) scale(0.00387503) rotate(-122.125)"/>
<use xlink:href="#stroke1_8_960" transform="translate(47.3096 60.2212) scale(0.0037968) rotate(-166.114)"/>
<use xlink:href="#stroke1_8_960" transform="translate(47.2607 59.741) scale(0.00287029) rotate(115.771)"/>
<use xlink:href="#stroke1_8_960" transform="translate(47.3372 59.8162) scale(0.00284309) rotate(79.306)"/>
<use xlink:href="#stroke1_8_960" transform="translate(46.5326 60.0086) scale(0.0031213) rotate(21.7745)"/>
<use xlink:href="#stroke1_8_960" transform="translate(47.3607 61.3276) scale(0.00289101) rotate(166.446)"/>
<use xlink:href="#stroke1_8_960" transform="translate(45.8438 61.1457) scale(0.00391889) rotate(-31.9436)"/>
<use xlink:href="#stroke1_8_960" transform="translate(47.3304 61.8847) scale(0.00393256) rotate(134.233)"/>
<use xlink:href="#stroke1_8_960" transform="translate(46.3587 62.5699) scale(0.00274962) rotate(-81.3386)"/>
<use xlink:href="#stroke1_8_960" transform="translate(46.7433 63.2582) scale(0.00315408) rotate(-142.099)"/>
<use xlink:href="#stroke1_8_960" transform="translate(47.3746 62.6861) scale(0.00283517) rotate(101.973)"/>
<use xlink:href="#stroke1_8_960" transform="translate(46.8775 63.9713) scale(0.0032156) rotate(-153.512)"/>
<use xlink:href="#stroke1_8_960" transform="translate(47.4586 63.7155) scale(0.00355414) rotate(129.723)"/>
<use xlink:href="#stroke1_8_960" transform="translate(46.0273 64.6304) scale(0.00339957) rotate(-91.7229)"/>
<use xlink:href="#stroke1_8_960" transform="translate(46.2944 64.4336) scale(0.00299211) rotate(-38.9881)"/>
<use xlink:href="#stroke1_8_960" transform="translate(46.5905 64.3651) scale(0.00261451) rotate(58.3422)"/>
<use xlink:href="#stroke1_8_960" transform="translate(46.0886 64.76) scale(0.00367281) rotate(-8.1807)"/>
<path d="M47.5178 29.4944L41.9159 25.567C41.9159 25.567 38.9183 29.6666 41.9372 31.9522C45.2063 34.4271 47.5178 29.4944 47.5178 29.4944Z" fill="#E39C2A"/>
<path d="M49.903 27.4323L42.8657 22.8051C42.8657 22.8051 44.8228 13.2082 49.4562 10.0525C52.8474 7.74286 55.2107 4.88767 58.7612 6.94424C62.5143 9.1182 60.6125 12.5814 59.7743 16.8369C58.6814 22.3855 49.903 27.4323 49.903 27.4323Z" fill="#E39C2A"/>
<use xlink:href="#stroke2_8_960" transform="translate(41.8741 25.0077) scale(0.00272519) rotate(37.1288)"/>
<use xlink:href="#stroke2_8_960" transform="translate(42.8451 25.2306) scale(0.00334918) rotate(93.6516)"/>
<use xlink:href="#stroke2_8_960" transform="translate(42.4106 25.2062) scale(0.00403538) rotate(29.3642)"/>
<use xlink:href="#stroke2_8_960" transform="translate(43.3112 25.7869) scale(0.0028582) rotate(81.3017)"/>
<use xlink:href="#stroke2_8_960" transform="translate(43.4242 25.7186) scale(0.00366562) rotate(54.0309)"/>
<use xlink:href="#stroke2_8_960" transform="translate(43.6791 27.5656) scale(0.00358686) rotate(-151.393)"/>
<use xlink:href="#stroke2_8_960" transform="translate(43.2907 27.0605) scale(0.00286396) rotate(-54.2113)"/>
<use xlink:href="#stroke2_8_960" transform="translate(43.9401 26.4494) scale(0.0032939) rotate(6.92183)"/>
<use xlink:href="#stroke2_8_960" transform="translate(45.2526 27.8871) scale(0.00401889) rotate(165.577)"/>
<use xlink:href="#stroke2_8_960" transform="translate(45.2859 27.1814) scale(0.00303462) rotate(78.8966)"/>
<use xlink:href="#stroke2_8_960" transform="translate(45.8317 28.041) scale(0.00297391) rotate(159.28)"/>
<use xlink:href="#stroke2_8_960" transform="translate(45.8939 28.7157) scale(0.00377233) rotate(-159.278)"/>
<use xlink:href="#stroke2_8_960" transform="translate(46.3722 27.7434) scale(0.0038156) rotate(77.9401)"/>
<use xlink:href="#stroke2_8_960" transform="translate(47.1935 28.3153) scale(0.00403019) rotate(118.11)"/>
<use xlink:href="#stroke2_8_960" transform="translate(46.0542 29.2) scale(0.00337507) rotate(-76.4006)"/>
<use xlink:href="#stroke2_8_960" transform="translate(47.1625 28.532) scale(0.00385131) rotate(59.8881)"/>
<use xlink:href="#stroke2_8_960" transform="translate(48.2744 29.0281) scale(0.00378847) rotate(117.475)"/>
<use xlink:href="#stroke2_8_960" transform="translate(46.7172 29.6542) scale(0.00384255) rotate(-36.8604)"/>
<use xlink:href="#stroke2_8_960" transform="translate(46.8044 29.5411) scale(0.00370715) rotate(8.84775)"/>
<use xlink:href="#stroke2_8_960" transform="translate(46.8543 29.739) scale(0.00328914) rotate(45.816)"/>
<use xlink:href="#stroke2_8_960" transform="translate(47.2986 30.7789) scale(0.00289123) rotate(129.838)"/>
<use xlink:href="#stroke2_8_960" transform="translate(46.9991 31.4828) scale(0.0038863) rotate(166.454)"/>
<use xlink:href="#stroke2_8_960" transform="translate(45.5733 31.4986) scale(0.00292582) rotate(-57.432)"/>
<use xlink:href="#stroke2_8_960" transform="translate(46.14 32.6542) scale(0.00380518) rotate(-144.968)"/>
<use xlink:href="#stroke2_8_960" transform="translate(45.7491 31.1688) scale(0.00378089) rotate(62.1223)"/>
<use xlink:href="#stroke2_8_960" transform="translate(44.5553 32.2085) scale(0.00279157) rotate(-70.0559)"/>
<use xlink:href="#stroke2_8_960" transform="translate(44.4663 32.5839) scale(0.00259434) rotate(-60.3547)"/>
<use xlink:href="#stroke2_8_960" transform="translate(45.0572 32.8213) scale(0.00347778) rotate(175.126)"/>
<use xlink:href="#stroke2_8_960" transform="translate(43.4585 32.2524) scale(0.00347455) rotate(-37.5031)"/>
<use xlink:href="#stroke2_8_960" transform="translate(44.1338 32.0623) scale(0.00330371) rotate(71.2682)"/>
<use xlink:href="#stroke2_8_960" transform="translate(43.9783 32.8088) scale(0.00276915) rotate(133.49)"/>
<use xlink:href="#stroke2_8_960" transform="translate(43.7196 32.3812) scale(0.00282391) rotate(127.201)"/>
<use xlink:href="#stroke2_8_960" transform="translate(42.3264 33.041) scale(0.00266389) rotate(-93.9046)"/>
<use xlink:href="#stroke2_8_960" transform="translate(42.0564 32.0425) scale(0.00263182) rotate(-35.3921)"/>
<use xlink:href="#stroke2_8_960" transform="translate(42.4094 32.641) scale(0.00332507) rotate(-146.976)"/>
<use xlink:href="#stroke2_8_960" transform="translate(41.3745 31.2651) scale(0.00374773) rotate(-0.231077)"/>
<use xlink:href="#stroke2_8_960" transform="translate(41.5447 32.3964) scale(0.0033309) rotate(-149.414)"/>
<use xlink:href="#stroke2_8_960" transform="translate(41.6341 30.9109) scale(0.00304059) rotate(83.6281)"/>
<use xlink:href="#stroke2_8_960" transform="translate(42.0617 30.9826) scale(0.00397713) rotate(140.883)"/>
<use xlink:href="#stroke2_8_960" transform="translate(41.0863 31.0757) scale(0.00259536) rotate(177.847)"/>
<use xlink:href="#stroke2_8_960" transform="translate(40.4804 31.002) scale(0.00388504) rotate(-118.125)"/>
<use xlink:href="#stroke2_8_960" transform="translate(39.7797 29.4156) scale(0.00396098) rotate(-18.5125)"/>
<use xlink:href="#stroke2_8_960" transform="translate(40.9389 30.0078) scale(0.00312669) rotate(-148.569)"/>
<use xlink:href="#stroke2_8_960" transform="translate(41.388 29.045) scale(0.00315815) rotate(134.194)"/>
<use xlink:href="#stroke2_8_960" transform="translate(40.3573 29.2953) scale(0.00351052) rotate(-128.409)"/>
<use xlink:href="#stroke2_8_960" transform="translate(40.1237 28.4339) scale(0.00306257) rotate(-68.3088)"/>
<use xlink:href="#stroke2_8_960" transform="translate(40.5101 27.7628) scale(0.00265856) rotate(-28.2441)"/>
<use xlink:href="#stroke2_8_960" transform="translate(40.3565 27.6239) scale(0.00310387) rotate(-51.5749)"/>
<use xlink:href="#stroke2_8_960" transform="translate(41.8453 27.0272) scale(0.00353563) rotate(115.258)"/>
<use xlink:href="#stroke2_8_960" transform="translate(40.6179 26.7904) scale(0.0031156) rotate(-43.5144)"/>
<use xlink:href="#stroke2_8_960" transform="translate(42.057 26.704) scale(0.00375167) rotate(152.37)"/>
<use xlink:href="#stroke2_8_960" transform="translate(41.4753 26.7299) scale(0.00345164) rotate(-136.795)"/>
<use xlink:href="#stroke2_8_960" transform="translate(42.2408 25.4841) scale(0.00259552) rotate(98.8053)"/>
<use xlink:href="#stroke2_8_960" transform="translate(42.0264 26.1624) scale(0.00294271) rotate(-149.109)"/>
<use xlink:href="#stroke2_8_960" transform="translate(42.4673 23.1933) scale(0.00270273) rotate(-92.8488)"/>
<use xlink:href="#stroke2_8_960" transform="translate(43.5376 23.4709) scale(0.00346659) rotate(-156.693)"/>
<use xlink:href="#stroke2_8_960" transform="translate(43.2021 22.627) scale(0.00277865) rotate(-3.69928)"/>
<use xlink:href="#stroke2_8_960" transform="translate(43.2379 23.6855) scale(0.0031473) rotate(-77.3043)"/>
<use xlink:href="#stroke2_8_960" transform="translate(43.766 23.1153) scale(0.00325324) rotate(18.1201)"/>
<use xlink:href="#stroke2_8_960" transform="translate(44.2228 24.581) scale(0.00337053) rotate(-124.739)"/>
<use xlink:href="#stroke2_8_960" transform="translate(43.9601 24.5063) scale(0.00348742) rotate(-67.4512)"/>
<use xlink:href="#stroke2_8_960" transform="translate(44.8915 23.5871) scale(0.00308757) rotate(12.8089)"/>
<use xlink:href="#stroke2_8_960" transform="translate(44.7282 24.7034) scale(0.0036527) rotate(-64.8459)"/>
<use xlink:href="#stroke2_8_960" transform="translate(45.2903 24.0765) scale(0.0040093) rotate(-9.55704)"/>
<use xlink:href="#stroke2_8_960" transform="translate(46.4515 24.4812) scale(0.00403165) rotate(67.1102)"/>
<use xlink:href="#stroke2_8_960" transform="translate(46.9353 25.7509) scale(0.0030455) rotate(-170.265)"/>
<use xlink:href="#stroke2_8_960" transform="translate(47.1947 26.026) scale(0.00291739) rotate(-179.845)"/>
<use xlink:href="#stroke2_8_960" transform="translate(47.4037 25.3323) scale(0.00285903) rotate(77.2933)"/>
<use xlink:href="#stroke2_8_960" transform="translate(47.3885 26.6406) scale(0.00345008) rotate(-135.229)"/>
<use xlink:href="#stroke2_8_960" transform="translate(47.8253 26.737) scale(0.00365693) rotate(-132.714)"/>
<use xlink:href="#stroke2_8_960" transform="translate(48.647 26.0524) scale(0.00313092) rotate(97.6346)"/>
<use xlink:href="#stroke2_8_960" transform="translate(47.8337 26.5648) scale(0.00305747) rotate(-49.8791)"/>
<use xlink:href="#stroke2_8_960" transform="translate(48.1866 27.1106) scale(0.00290766) rotate(-77.3259)"/>
<use xlink:href="#stroke2_8_960" transform="translate(49.0092 26.2998) scale(0.00320198) rotate(36.8709)"/>
<use xlink:href="#stroke2_8_960" transform="translate(48.9291 26.7891) scale(0.00287334) rotate(1.44246)"/>
<use xlink:href="#stroke2_8_960" transform="translate(49.7541 26.9054) scale(0.00270866) rotate(59.3987)"/>
<use xlink:href="#stroke2_8_960" transform="translate(49.4065 27.3955) scale(0.00274065) rotate(-44.2043)"/>
<use xlink:href="#stroke2_8_960" transform="translate(50.7952 27.0405) scale(0.00281214) rotate(103.039)"/>
<use xlink:href="#stroke2_8_960" transform="translate(49.9901 27.3556) scale(0.00312129) rotate(-92.4257)"/>
<use xlink:href="#stroke2_8_960" transform="translate(51.3831 27.338) scale(0.002802) rotate(168.535)"/>
<use xlink:href="#stroke2_8_960" transform="translate(50.5646 26.4496) scale(0.00381606) rotate(-22.6807)"/>
<use xlink:href="#stroke2_8_960" transform="translate(50.8367 26.2421) scale(0.00304611) rotate(-40.5272)"/>
<use xlink:href="#stroke2_8_960" transform="translate(51.3924 26.1356) scale(0.00296058) rotate(-22.9004)"/>
<use xlink:href="#stroke2_8_960" transform="translate(51.6407 26.5125) scale(0.00378798) rotate(-106.832)"/>
<use xlink:href="#stroke2_8_960" transform="translate(52.7927 26.4922) scale(0.00331389) rotate(-157.428)"/>
<use xlink:href="#stroke2_8_960" transform="translate(52.7265 26.1854) scale(0.00403349) rotate(-136.325)"/>
<use xlink:href="#stroke2_8_960" transform="translate(52.7298 24.6137) scale(0.0031486) rotate(3.79555)"/>
<use xlink:href="#stroke2_8_960" transform="translate(52.6602 24.4332) scale(0.00387618) rotate(-23.3239)"/>
<use xlink:href="#stroke2_8_960" transform="translate(53.502 24.1444) scale(0.00313958) rotate(9.02482)"/>
<use xlink:href="#stroke2_8_960" transform="translate(53.6797 24.9774) scale(0.0034715) rotate(-80.5354)"/>
<use xlink:href="#stroke2_8_960" transform="translate(53.821 23.6162) scale(0.00314916) rotate(-9.62383)"/>
<use xlink:href="#stroke2_8_960" transform="translate(54.2549 23.5174) scale(0.00300014) rotate(-7.48548)"/>
<use xlink:href="#stroke2_8_960" transform="translate(55.1592 22.9303) scale(0.00374229) rotate(49.157)"/>
<use xlink:href="#stroke2_8_960" transform="translate(54.6938 23.3938) scale(0.00272128) rotate(-55.0258)"/>
<use xlink:href="#stroke2_8_960" transform="translate(56.2341 22.6519) scale(0.00384658) rotate(90.4845)"/>
<use xlink:href="#stroke2_8_960" transform="translate(55.835 23.5891) scale(0.00317619) rotate(-122.109)"/>
<use xlink:href="#stroke2_8_960" transform="translate(56.422 23.3094) scale(0.0028128) rotate(-149.72)"/>
<use xlink:href="#stroke2_8_960" transform="translate(56.0633 21.8029) scale(0.00290427) rotate(10.7195)"/>
<use xlink:href="#stroke2_8_960" transform="translate(56.8007 22.5392) scale(0.00301758) rotate(-164.688)"/>
<use xlink:href="#stroke2_8_960" transform="translate(57.1918 20.9999) scale(0.00383968) rotate(69.5141)"/>
<use xlink:href="#stroke2_8_960" transform="translate(56.7548 21.0857) scale(0.00280415) rotate(-5.21158)"/>
<use xlink:href="#stroke2_8_960" transform="translate(57.5285 20.3868) scale(0.00399791) rotate(44.7436)"/>
<use xlink:href="#stroke2_8_960" transform="translate(58.468 20.975) scale(0.00334302) rotate(138.627)"/>
<use xlink:href="#stroke2_8_960" transform="translate(57.7065 19.6127) scale(0.00386073) rotate(31.2759)"/>
<use xlink:href="#stroke2_8_960" transform="translate(57.563 20.3198) scale(0.00272187) rotate(-74.5098)"/>
<use xlink:href="#stroke2_8_960" transform="translate(57.8374 20.0596) scale(0.00299168) rotate(-62.1235)"/>
<use xlink:href="#stroke2_8_960" transform="translate(59.2704 20.0335) scale(0.00312528) rotate(165.714)"/>
<use xlink:href="#stroke2_8_960" transform="translate(58.4589 19.8152) scale(0.00317631) rotate(-99.8368)"/>
<use xlink:href="#stroke2_8_960" transform="translate(58.423 19.4879) scale(0.00386673) rotate(-104.374)"/>
<use xlink:href="#stroke2_8_960" transform="translate(59.5409 18.1318) scale(0.00277076) rotate(89.4092)"/>
<use xlink:href="#stroke2_8_960" transform="translate(59.6678 18.8321) scale(0.00271001) rotate(-159.275)"/>
<use xlink:href="#stroke2_8_960" transform="translate(58.8386 18.4312) scale(0.00360346) rotate(-103.384)"/>
<use xlink:href="#stroke2_8_960" transform="translate(60.332 17.6197) scale(0.00286274) rotate(135.308)"/>
<use xlink:href="#stroke2_8_960" transform="translate(59.0886 16.8338) scale(0.00268028) rotate(-10.7496)"/>
<use xlink:href="#stroke2_8_960" transform="translate(59.6159 17.4728) scale(0.00305019) rotate(-140.721)"/>
<use xlink:href="#stroke2_8_960" transform="translate(59.5257 17.1115) scale(0.00341905) rotate(-107.014)"/>
<use xlink:href="#stroke2_8_960" transform="translate(59.3484 16.5176) scale(0.00333622) rotate(-86.3163)"/>
<use xlink:href="#stroke2_8_960" transform="translate(60.7917 15.7669) scale(0.00354231) rotate(135.508)"/>
<use xlink:href="#stroke2_8_960" transform="translate(60.2571 15.9436) scale(0.00271048) rotate(-134.083)"/>
<use xlink:href="#stroke2_8_960" transform="translate(60.1292 14.524) scale(0.00268792) rotate(24.2753)"/>
<use xlink:href="#stroke2_8_960" transform="translate(60.7641 13.908) scale(0.00402295) rotate(61.24)"/>
<use xlink:href="#stroke2_8_960" transform="translate(60.7719 14.8696) scale(0.00348845) rotate(-163.63)"/>
<use xlink:href="#stroke2_8_960" transform="translate(59.7624 13.8458) scale(0.00304028) rotate(-53.1917)"/>
<use xlink:href="#stroke2_8_960" transform="translate(60.3721 12.7069) scale(0.00369796) rotate(23.9516)"/>
<use xlink:href="#stroke2_8_960" transform="translate(60.1806 13.4516) scale(0.00262428) rotate(-100.947)"/>
<use xlink:href="#stroke2_8_960" transform="translate(60.0713 12.2299) scale(0.00330603) rotate(-7.30326)"/>
<use xlink:href="#stroke2_8_960" transform="translate(61.0985 12.1044) scale(0.00260865) rotate(106.913)"/>
<use xlink:href="#stroke2_8_960" transform="translate(60.8238 11.5131) scale(0.00260378) rotate(42.9934)"/>
<use xlink:href="#stroke2_8_960" transform="translate(61.7863 11.9285) scale(0.00323642) rotate(147.528)"/>
<use xlink:href="#stroke2_8_960" transform="translate(60.6643 11.9308) scale(0.00303176) rotate(-124.431)"/>
<use xlink:href="#stroke2_8_960" transform="translate(60.6501 11.5101) scale(0.00268456) rotate(-118.572)"/>
<use xlink:href="#stroke2_8_960" transform="translate(61.2469 10.0864) scale(0.00330737) rotate(76.8538)"/>
<use xlink:href="#stroke2_8_960" transform="translate(60.2448 10.2333) scale(0.0028366) rotate(-43.5635)"/>
<use xlink:href="#stroke2_8_960" transform="translate(61.6931 9.3034) scale(0.00390984) rotate(88.8488)"/>
<use xlink:href="#stroke2_8_960" transform="translate(61.0991 8.73464) scale(0.0036699) rotate(63.0559)"/>
<use xlink:href="#stroke2_8_960" transform="translate(61.4411 8.31738) scale(0.00401875) rotate(84.5046)"/>
<use xlink:href="#stroke2_8_960" transform="translate(60.7738 9.2661) scale(0.00378333) rotate(-150.083)"/>
<use xlink:href="#stroke2_8_960" transform="translate(61.0299 8.17711) scale(0.00356814) rotate(131.466)"/>
<use xlink:href="#stroke2_8_960" transform="translate(59.4238 7.49386) scale(0.00333484) rotate(-11.7058)"/>
<use xlink:href="#stroke2_8_960" transform="translate(59.7422 8.11744) scale(0.00270071) rotate(-132.957)"/>
<use xlink:href="#stroke2_8_960" transform="translate(59.522 6.9803) scale(0.0030092) rotate(57.911)"/>
<use xlink:href="#stroke2_8_960" transform="translate(59.5799 7.53656) scale(0.002701) rotate(-168.16)"/>
<use xlink:href="#stroke2_8_960" transform="translate(59.2684 7.47249) scale(0.00260131) rotate(178.751)"/>
<use xlink:href="#stroke2_8_960" transform="translate(59.2772 6.77221) scale(0.00295287) rotate(127.877)"/>
<use xlink:href="#stroke2_8_960" transform="translate(58.2878 6.11579) scale(0.00348777) rotate(46.083)"/>
<use xlink:href="#stroke2_8_960" transform="translate(57.4995 7.24885) scale(0.00395434) rotate(-110.688)"/>
<use xlink:href="#stroke2_8_960" transform="translate(57.6574 7.12186) scale(0.00358562) rotate(-155.245)"/>
<use xlink:href="#stroke2_8_960" transform="translate(57.4157 6.77269) scale(0.00302016) rotate(-171.765)"/>
<use xlink:href="#stroke2_8_960" transform="translate(57.0401 6.91176) scale(0.00337417) rotate(-169.579)"/>
<use xlink:href="#stroke2_8_960" transform="translate(55.6703 5.66333) scale(0.00368029) rotate(-10.2008)"/>
<use xlink:href="#stroke2_8_960" transform="translate(55.8081 7.10827) scale(0.0034388) rotate(-134.529)"/>
<use xlink:href="#stroke2_8_960" transform="translate(55.3488 6.78762) scale(0.00267216) rotate(-126.582)"/>
<use xlink:href="#stroke2_8_960" transform="translate(54.5197 6.32587) scale(0.00288502) rotate(-57.6399)"/>
<use xlink:href="#stroke2_8_960" transform="translate(54.431 6.02515) scale(0.00388556) rotate(10.8207)"/>
<use xlink:href="#stroke2_8_960" transform="translate(54.0071 7.07439) scale(0.00304857) rotate(-109.477)"/>
<use xlink:href="#stroke2_8_960" transform="translate(53.4402 6.85805) scale(0.00291453) rotate(-54.9412)"/>
<use xlink:href="#stroke2_8_960" transform="translate(53.5642 6.43197) scale(0.0027965) rotate(23.0234)"/>
<use xlink:href="#stroke2_8_960" transform="translate(52.8735 7.66429) scale(0.00366242) rotate(-98.5872)"/>
<use xlink:href="#stroke2_8_960" transform="translate(53.681 7.40876) scale(0.00339865) rotate(140.029)"/>
<use xlink:href="#stroke2_8_960" transform="translate(52.3158 8.0985) scale(0.00306202) rotate(-95.864)"/>
<use xlink:href="#stroke2_8_960" transform="translate(53.1141 7.51691) scale(0.00382223) rotate(90.9903)"/>
<use xlink:href="#stroke2_8_960" transform="translate(52.7308 8.69501) scale(0.00304301) rotate(167.735)"/>
<use xlink:href="#stroke2_8_960" transform="translate(52.1821 8.98828) scale(0.00317369) rotate(-169.841)"/>
<use xlink:href="#stroke2_8_960" transform="translate(51.9572 9.15103) scale(0.00370477) rotate(179.272)"/>
<use xlink:href="#stroke2_8_960" transform="translate(51.3489 9.22234) scale(0.00324178) rotate(-171.764)"/>
<use xlink:href="#stroke2_8_960" transform="translate(50.2007 8.90281) scale(0.00382961) rotate(-21.5395)"/>
<use xlink:href="#stroke2_8_960" transform="translate(50.4922 8.62788) scale(0.00270978) rotate(56.879)"/>
<use xlink:href="#stroke2_8_960" transform="translate(50.9046 9.41258) scale(0.00361417) rotate(118.155)"/>
<use xlink:href="#stroke2_8_960" transform="translate(49.4179 10.3195) scale(0.0033503) rotate(-107.764)"/>
<use xlink:href="#stroke2_8_960" transform="translate(49.8983 10.8901) scale(0.00364851) rotate(-162.734)"/>
<use xlink:href="#stroke2_8_960" transform="translate(48.824 10.6329) scale(0.0027655) rotate(-114.917)"/>
<use xlink:href="#stroke2_8_960" transform="translate(47.9441 10.5684) scale(0.00387957) rotate(-65.688)"/>
<use xlink:href="#stroke2_8_960" transform="translate(48.5264 10.2253) scale(0.00341307) rotate(32.1848)"/>
<use xlink:href="#stroke2_8_960" transform="translate(48.9658 10.777) scale(0.00363083) rotate(89.9835)"/>
<use xlink:href="#stroke2_8_960" transform="translate(47.2021 11.7667) scale(0.00396346) rotate(-70.1281)"/>
<use xlink:href="#stroke2_8_960" transform="translate(46.7986 11.6495) scale(0.00396517) rotate(-39.0981)"/>
<use xlink:href="#stroke2_8_960" transform="translate(47.9147 12.4725) scale(0.00259675) rotate(164.915)"/>
<use xlink:href="#stroke2_8_960" transform="translate(47.2193 13.0784) scale(0.00297657) rotate(-129.87)"/>
<use xlink:href="#stroke2_8_960" transform="translate(46.5125 13.0428) scale(0.00308601) rotate(-76.9608)"/>
<use xlink:href="#stroke2_8_960" transform="translate(46.0486 13.1343) scale(0.00348009) rotate(-59.6533)"/>
<use xlink:href="#stroke2_8_960" transform="translate(46.9666 13.4767) scale(0.00285345) rotate(155.048)"/>
<use xlink:href="#stroke2_8_960" transform="translate(45.8232 13.4259) scale(0.00294805) rotate(-29.0564)"/>
<use xlink:href="#stroke2_8_960" transform="translate(45.304 13.6632) scale(0.00341401) rotate(-34.6898)"/>
<use xlink:href="#stroke2_8_960" transform="translate(46.2047 13.6665) scale(0.00342416) rotate(50.4704)"/>
<use xlink:href="#stroke2_8_960" transform="translate(45.3493 14.6353) scale(0.0027163) rotate(-44.3675)"/>
<use xlink:href="#stroke2_8_960" transform="translate(45.1164 14.1375) scale(0.00389037) rotate(18.4983)"/>
<use xlink:href="#stroke2_8_960" transform="translate(46.2631 15.4612) scale(0.00304289) rotate(133.241)"/>
<use xlink:href="#stroke2_8_960" transform="translate(44.8733 16.2115) scale(0.00333621) rotate(-92.9468)"/>
<use xlink:href="#stroke2_8_960" transform="translate(45.6173 15.6205) scale(0.00381075) rotate(101.997)"/>
<use xlink:href="#stroke2_8_960" transform="translate(45.1046 15.8959) scale(0.00273935) rotate(61.1412)"/>
<use xlink:href="#stroke2_8_960" transform="translate(45.1161 17.3282) scale(0.00323637) rotate(-169.447)"/>
<use xlink:href="#stroke2_8_960" transform="translate(44.3385 16.629) scale(0.00297477) rotate(5.53282)"/>
<use xlink:href="#stroke2_8_960" transform="translate(44.8477 17.0398) scale(0.00268449) rotate(93.706)"/>
<use xlink:href="#stroke2_8_960" transform="translate(44.5498 18.1196) scale(0.00278301) rotate(-174.315)"/>
<use xlink:href="#stroke2_8_960" transform="translate(44.9063 18.1149) scale(0.00384512) rotate(136.599)"/>
<use xlink:href="#stroke2_8_960" transform="translate(43.2403 18.7933) scale(0.00404852) rotate(-68.1438)"/>
<use xlink:href="#stroke2_8_960" transform="translate(43.9139 19.5462) scale(0.00323509) rotate(-150.16)"/>
<use xlink:href="#stroke2_8_960" transform="translate(44.2273 19.0191) scale(0.00307847) rotate(110.353)"/>
<use xlink:href="#stroke2_8_960" transform="translate(43.7278 20.3601) scale(0.00332541) rotate(-139.382)"/>
<use xlink:href="#stroke2_8_960" transform="translate(42.8246 20.2402) scale(0.00367291) rotate(-62.0522)"/>
<use xlink:href="#stroke2_8_960" transform="translate(43.1908 20.6287) scale(0.0026237) rotate(-61.9086)"/>
<use xlink:href="#stroke2_8_960" transform="translate(44.0129 21.3938) scale(0.00384409) rotate(176.665)"/>
<use xlink:href="#stroke2_8_960" transform="translate(43.4516 21.8025) scale(0.00273874) rotate(-138.421)"/>
<use xlink:href="#stroke2_8_960" transform="translate(43.1815 20.8986) scale(0.00299432) rotate(43.9587)"/>
<use xlink:href="#stroke2_8_960" transform="translate(42.4491 21.4519) scale(0.00261532) rotate(-9.85417)"/>
<use xlink:href="#stroke2_8_960" transform="translate(42.2975 22.2805) scale(0.00296722) rotate(-62.1333)"/>
<use xlink:href="#stroke2_8_960" transform="translate(43.5919 22.3969) scale(0.00269057) rotate(117.555)"/>
<use xlink:href="#stroke2_8_960" transform="translate(42.1349 22.9356) scale(0.00360683) rotate(-58.7161)"/>
<defs>
<g id="stroke0_8_960" data-figma-scatter-ref="stroke0_8_960_ref" data-figma-scatter="f0.44_w0.26_aj180_sj0.25_r0_s3464792709648091013_sw1">
<path d="M103.731 283.547C110.352 281.363 112.807 281.348 116.121 283.468C130.109 292.418 124.85 308.718 107.972 308.727C90.3768 308.737 87.0606 289.046 103.731 283.547ZM139.837 35.4146C140.937 35.1787 142.512 35.114 143.337 35.271C144.162 35.4281 146.516 35.8391 148.567 36.1851C155.802 37.4051 160.179 46.6969 156.734 53.5249C152.924 61.0769 144.715 67.5811 140.859 66.1021C135.872 64.1881 137.625 69.8792 144.066 76.5152C148.306 80.8841 150.337 81.2685 150.337 77.7066C150.337 76.6574 151.622 74.3218 153.193 72.5161C154.823 70.6412 156.597 66.9201 157.324 63.8501C158.925 57.0892 160.788 55.2289 167.369 53.8169C177.32 51.6829 185.581 56.9263 183.752 64.2153C183.293 66.0423 183.901 67.6656 186.09 70.4585C196.859 84.1975 193.875 104.273 180.596 107.418C177.049 108.258 176.832 108.532 176.773 112.27C176.739 114.448 176.365 116.987 175.943 117.912C175.255 119.417 175.946 119.564 182.506 119.31C190.415 119.003 192.674 119.705 195.953 123.487C199.054 127.064 201.598 126.114 202.609 121.002C203.503 116.483 209.096 110.731 212.596 110.731C214.841 110.731 215.934 108.156 214.449 106.367C206.1 96.3056 222.234 73.6632 235.605 76.6792C241.572 78.0252 246.302 83.6302 246.367 89.4312C246.384 90.9712 247.505 94.4811 248.858 97.231C255.362 110.453 243.304 126.225 232.777 118.263C229.924 116.105 229.837 116.226 229.837 122.341C229.837 128.93 225.932 133.292 219.049 134.393C216.068 134.87 214.933 135.67 213.775 138.116C212.964 139.829 211.55 142.415 210.63 143.863C208.984 146.456 209.02 146.565 213.147 151.254C215.451 153.871 217.337 156.555 217.337 157.218C217.337 157.882 218.074 159.901 218.974 161.706C222.148 168.067 221.073 181.731 217.4 181.731C217.052 181.731 215.97 183.081 214.995 184.731C214.02 186.381 212.573 187.731 211.779 187.731C209.595 187.731 210.044 189.817 212.863 192.76C216.384 196.435 217.425 204.867 214.728 207.858C209.503 213.649 203.05 218.01 198.064 219.122C193.944 220.041 192.83 220.705 192.804 222.259C192.669 230.389 188.242 235.387 179.682 237.077C172.845 238.427 172.072 240.31 177.577 242.203C190.358 246.597 192.892 257.693 182.442 263.506C176.521 266.799 172.426 266.758 167.515 263.354C163.894 260.845 163.161 260.686 159.679 261.653C153.737 263.303 147.363 262.934 141.337 260.593C135.874 258.47 130.724 257.068 124.689 256.061C118.715 255.064 115.151 249.943 114.592 241.551C114.184 235.417 113.671 233.745 111.425 231.231C109.951 229.581 107.986 226.544 107.058 224.481C105.42 220.844 105.211 220.731 100.164 220.731C93.7935 220.731 89.0798 217.922 86.2168 212.42C83.0468 206.327 78.9427 207.336 78.8477 214.231C78.8097 216.981 78.4233 220.817 77.9883 222.755C77.2354 226.113 77.3507 226.324 80.4366 227.255C90.5004 230.29 90.3981 247.946 80.2881 252.934C55.9904 264.92 26.2411 240.473 47.875 226.298C49.556 225.196 50.1805 223.494 50.6895 218.626C51.0495 215.185 52.1298 211.262 53.0908 209.91C54.0507 208.557 55.2736 206.856 55.8086 206.127C56.5016 205.184 56.0161 204.003 54.1221 202.017C50.6273 198.355 49.3112 194.657 49.9981 190.428C50.3281 188.392 50.1033 186.705 49.4463 186.299C48.8364 185.922 48.337 184.345 48.3369 182.794C48.3369 181.244 47.6012 179.366 46.7032 178.621C43.9996 176.376 34.3369 162.856 34.3369 161.317C34.3368 160.529 32.7627 157.822 30.8389 155.302C28.915 152.781 27.3998 150.384 27.4727 149.975C28.4457 144.478 24.6467 141.425 20.4727 144.348C18.2547 145.902 11.2222 145.776 6.86624 144.104C-3.23648 140.227 -1.78745 115.126 8.56839 114.62C14.8594 114.313 23.3369 117.551 23.3369 120.261C23.3372 122.018 26.1103 124.731 27.9073 124.731C28.6933 124.731 29.3369 124.041 29.3369 123.198C29.3372 109.814 50.1851 94.3087 69.8369 93.0767C82.9305 92.2547 88.2617 93.4969 97.1895 99.4468C101.45 102.287 108.337 96.8837 108.337 90.7007C108.337 88.6598 109.172 86.4706 110.483 85.0747C112.734 82.6789 111.804 79.7313 108.796 79.731C106.403 79.731 103.556 73.5422 104.077 69.4702C105.046 61.8843 117.633 57.7673 123.289 63.1861C125.639 65.4379 126.708 65.8083 129.245 65.2515C133.054 64.4145 133.128 63.4739 129.587 60.895C121.36 54.902 128.195 37.9086 139.837 35.4146ZM227.337 203.429C239.094 199.654 252.722 207.291 252.722 217.653C252.722 228.495 231.921 239.44 223.927 232.806C221.665 230.929 220.403 232.363 221.012 236.118C222.097 242.802 213.511 254.731 207.616 254.731C194.246 254.731 188.8 246.232 194.457 234.198C198.202 226.231 204.453 223.784 213.238 226.847C217.536 228.345 217.88 227.687 215.921 221.697C213.052 212.925 216.89 206.783 227.337 203.429ZM179.7 192.695C179.049 192.044 178.051 192.413 176.774 193.779C168.37 202.768 165.063 203.713 156.506 199.571C149.746 196.298 146.45 201.459 151.961 206.689C154.209 208.822 154.482 209.744 154.038 213.682C153.54 218.098 153.664 218.344 158.682 222.967C163.836 227.716 163.837 227.716 164.351 222.867C164.987 216.872 169.522 209.969 174.077 208.066C177.094 206.805 177.337 206.359 177.337 202.046C177.337 199.092 177.95 196.711 179.013 195.536C180.117 194.315 180.352 193.347 179.7 192.695ZM13.7354 183.697C21.2304 180.362 25.9355 181.225 32.1055 187.066C40.5644 195.074 37.0287 205.612 24.6309 209.343C9.40689 213.925 -0.704596 190.124 13.7354 183.697ZM252.956 148.251C262.129 145.732 267.81 147.203 270.983 152.921C277.397 164.478 257.352 180.919 247.179 172.445C237.093 164.044 240.016 151.805 252.956 148.251ZM175.822 162.709C174.842 161.123 172.482 161.589 171.417 163.579C170.283 165.699 171.384 170.913 173.086 171.481C174.366 171.905 176.761 164.229 175.822 162.709ZM150.152 111.481C150.492 108.526 149.534 108.177 145.513 109.79C142.108 111.155 143.035 114.231 146.851 114.231C149.365 114.231 149.886 113.796 150.152 111.481ZM156.837 98.731C156.012 98.731 155.337 99.406 155.337 100.231C155.337 101.056 156.012 101.731 156.837 101.731C157.662 101.731 158.337 101.056 158.337 100.231C158.337 99.4061 157.662 98.7312 156.837 98.731ZM131.337 85.6382C131.337 82.8002 129.491 81.4004 127.429 82.6743C126.501 83.2473 126.685 84.2905 128.185 86.9605C129.273 88.9003 130.316 91.46 130.5 92.6489C130.685 93.8379 131.287 94.905 131.837 95.021C133.25 95.317 133.729 90.7224 132.422 89.4155C131.825 88.8185 131.337 87.1191 131.337 85.6382ZM79.8369 36.9214C89.8819 31.2487 102.893 46.8492 95.6582 55.8921C92.2024 60.211 91.2042 63.981 91.8701 70.1997C92.5322 76.3837 92.4821 76.5638 89.0371 80.3628C76.0391 94.6997 55.1533 78.5005 64.8242 61.5825C66.3391 58.9327 67.3172 55.6452 67.3242 53.1753C67.3402 47.7053 72.4159 41.1124 79.8369 36.9214ZM120.896 78.731C120.653 78.731 120.177 79.1811 119.837 79.731C119.497 80.2809 119.695 80.7309 120.277 80.731C120.859 80.731 121.337 80.281 121.337 79.731C121.337 79.181 121.139 78.731 120.896 78.731ZM205.485 39.4898C219.631 37.0418 227.598 50.9151 220.597 65.8081C213.393 81.13 190.339 77.7861 190.091 61.3823C189.98 54.0764 199.509 40.5238 205.485 39.4898ZM51.8369 14.5542C64.4449 5.86451 75.68 19.3671 68.6241 34.731C62.385 48.3167 41.3372 43.775 41.3369 28.8423C41.3369 26.0333 47.6529 17.4382 51.8369 14.5542ZM108.212 2.17043C121.43 -6.81137 141.546 14.0924 133.237 28.1743C132.084 30.1297 130.819 31.7302 130.427 31.731C130.035 31.731 128.813 32.5703 127.713 33.5962C119.456 41.2872 107.786 35.7761 103.367 22.0991C100.152 12.1461 101.463 6.75643 108.212 2.17043Z" fill="#E39C2A"/>
</g>
<path id="stroke0_8_960_ref" d="M6.07881 72.4658L11.7274 76.371C11.7274 76.371 7.87091 81.205 4.90268 78.2659C2.99035 76.3723 6.07881 72.4658 6.07881 72.4658ZM7.53174 69.7851L13.7232 73.7236C13.7232 73.7236 23.1632 70.0608 25.0818 64.7409C26.5533 60.6609 29.0224 59.2234 25.6408 56.5075C22.4418 53.9382 19.6743 56.4036 15.9731 58.1744C10.9162 60.5939 7.53174 69.7851 7.53174 69.7851Z"/>
<g id="stroke1_8_960" data-figma-scatter-ref="stroke1_8_960_ref" data-figma-scatter="f0.44_w0.26_aj180_sj0.25_r0_s11003941653296913374_sw1">
<path d="M103.731 283.547C110.352 281.363 112.807 281.348 116.121 283.468C130.109 292.418 124.85 308.718 107.972 308.727C90.3768 308.737 87.0606 289.046 103.731 283.547ZM139.837 35.4146C140.937 35.1787 142.512 35.114 143.337 35.271C144.162 35.4281 146.516 35.8391 148.567 36.1851C155.802 37.4051 160.179 46.6969 156.734 53.5249C152.924 61.0769 144.715 67.5811 140.859 66.1021C135.872 64.1881 137.625 69.8792 144.066 76.5152C148.306 80.8841 150.337 81.2685 150.337 77.7066C150.337 76.6574 151.622 74.3218 153.193 72.5161C154.823 70.6412 156.597 66.9201 157.324 63.8501C158.925 57.0892 160.788 55.2289 167.369 53.8169C177.32 51.6829 185.581 56.9263 183.752 64.2153C183.293 66.0423 183.901 67.6656 186.09 70.4585C196.859 84.1975 193.875 104.273 180.596 107.418C177.049 108.258 176.832 108.532 176.773 112.27C176.739 114.448 176.365 116.987 175.943 117.912C175.255 119.417 175.946 119.564 182.506 119.31C190.415 119.003 192.674 119.705 195.953 123.487C199.054 127.064 201.598 126.114 202.609 121.002C203.503 116.483 209.096 110.731 212.596 110.731C214.841 110.731 215.934 108.156 214.449 106.367C206.1 96.3056 222.234 73.6632 235.605 76.6792C241.572 78.0252 246.302 83.6302 246.367 89.4312C246.384 90.9712 247.505 94.4811 248.858 97.231C255.362 110.453 243.304 126.225 232.777 118.263C229.924 116.105 229.837 116.226 229.837 122.341C229.837 128.93 225.932 133.292 219.049 134.393C216.068 134.87 214.933 135.67 213.775 138.116C212.964 139.829 211.55 142.415 210.63 143.863C208.984 146.456 209.02 146.565 213.147 151.254C215.451 153.871 217.337 156.555 217.337 157.218C217.337 157.882 218.074 159.901 218.974 161.706C222.148 168.067 221.073 181.731 217.4 181.731C217.052 181.731 215.97 183.081 214.995 184.731C214.02 186.381 212.573 187.731 211.779 187.731C209.595 187.731 210.044 189.817 212.863 192.76C216.384 196.435 217.425 204.867 214.728 207.858C209.503 213.649 203.05 218.01 198.064 219.122C193.944 220.041 192.83 220.705 192.804 222.259C192.669 230.389 188.242 235.387 179.682 237.077C172.845 238.427 172.072 240.31 177.577 242.203C190.358 246.597 192.892 257.693 182.442 263.506C176.521 266.799 172.426 266.758 167.515 263.354C163.894 260.845 163.161 260.686 159.679 261.653C153.737 263.303 147.363 262.934 141.337 260.593C135.874 258.47 130.724 257.068 124.689 256.061C118.715 255.064 115.151 249.943 114.592 241.551C114.184 235.417 113.671 233.745 111.425 231.231C109.951 229.581 107.986 226.544 107.058 224.481C105.42 220.844 105.211 220.731 100.164 220.731C93.7935 220.731 89.0798 217.922 86.2168 212.42C83.0468 206.327 78.9427 207.336 78.8477 214.231C78.8097 216.981 78.4233 220.817 77.9883 222.755C77.2354 226.113 77.3507 226.324 80.4366 227.255C90.5004 230.29 90.3981 247.946 80.2881 252.934C55.9904 264.92 26.2411 240.473 47.875 226.298C49.556 225.196 50.1805 223.494 50.6895 218.626C51.0495 215.185 52.1298 211.262 53.0908 209.91C54.0507 208.557 55.2736 206.856 55.8086 206.127C56.5016 205.184 56.0161 204.003 54.1221 202.017C50.6273 198.355 49.3112 194.657 49.9981 190.428C50.3281 188.392 50.1033 186.705 49.4463 186.299C48.8364 185.922 48.337 184.345 48.3369 182.794C48.3369 181.244 47.6012 179.366 46.7032 178.621C43.9996 176.376 34.3369 162.856 34.3369 161.317C34.3368 160.529 32.7627 157.822 30.8389 155.302C28.915 152.781 27.3998 150.384 27.4727 149.975C28.4457 144.478 24.6467 141.425 20.4727 144.348C18.2547 145.902 11.2222 145.776 6.86624 144.104C-3.23648 140.227 -1.78745 115.126 8.56839 114.62C14.8594 114.313 23.3369 117.551 23.3369 120.261C23.3372 122.018 26.1103 124.731 27.9073 124.731C28.6933 124.731 29.3369 124.041 29.3369 123.198C29.3372 109.814 50.1851 94.3087 69.8369 93.0767C82.9305 92.2547 88.2617 93.4969 97.1895 99.4468C101.45 102.287 108.337 96.8837 108.337 90.7007C108.337 88.6598 109.172 86.4706 110.483 85.0747C112.734 82.6789 111.804 79.7313 108.796 79.731C106.403 79.731 103.556 73.5422 104.077 69.4702C105.046 61.8843 117.633 57.7673 123.289 63.1861C125.639 65.4379 126.708 65.8083 129.245 65.2515C133.054 64.4145 133.128 63.4739 129.587 60.895C121.36 54.902 128.195 37.9086 139.837 35.4146ZM227.337 203.429C239.094 199.654 252.722 207.291 252.722 217.653C252.722 228.495 231.921 239.44 223.927 232.806C221.665 230.929 220.403 232.363 221.012 236.118C222.097 242.802 213.511 254.731 207.616 254.731C194.246 254.731 188.8 246.232 194.457 234.198C198.202 226.231 204.453 223.784 213.238 226.847C217.536 228.345 217.88 227.687 215.921 221.697C213.052 212.925 216.89 206.783 227.337 203.429ZM179.7 192.695C179.049 192.044 178.051 192.413 176.774 193.779C168.37 202.768 165.063 203.713 156.506 199.571C149.746 196.298 146.45 201.459 151.961 206.689C154.209 208.822 154.482 209.744 154.038 213.682C153.54 218.098 153.664 218.344 158.682 222.967C163.836 227.716 163.837 227.716 164.351 222.867C164.987 216.872 169.522 209.969 174.077 208.066C177.094 206.805 177.337 206.359 177.337 202.046C177.337 199.092 177.95 196.711 179.013 195.536C180.117 194.315 180.352 193.347 179.7 192.695ZM13.7354 183.697C21.2304 180.362 25.9355 181.225 32.1055 187.066C40.5644 195.074 37.0287 205.612 24.6309 209.343C9.40689 213.925 -0.704596 190.124 13.7354 183.697ZM252.956 148.251C262.129 145.732 267.81 147.203 270.983 152.921C277.397 164.478 257.352 180.919 247.179 172.445C237.093 164.044 240.016 151.805 252.956 148.251ZM175.822 162.709C174.842 161.123 172.482 161.589 171.417 163.579C170.283 165.699 171.384 170.913 173.086 171.481C174.366 171.905 176.761 164.229 175.822 162.709ZM150.152 111.481C150.492 108.526 149.534 108.177 145.513 109.79C142.108 111.155 143.035 114.231 146.851 114.231C149.365 114.231 149.886 113.796 150.152 111.481ZM156.837 98.731C156.012 98.731 155.337 99.406 155.337 100.231C155.337 101.056 156.012 101.731 156.837 101.731C157.662 101.731 158.337 101.056 158.337 100.231C158.337 99.4061 157.662 98.7312 156.837 98.731ZM131.337 85.6382C131.337 82.8002 129.491 81.4004 127.429 82.6743C126.501 83.2473 126.685 84.2905 128.185 86.9605C129.273 88.9003 130.316 91.46 130.5 92.6489C130.685 93.8379 131.287 94.905 131.837 95.021C133.25 95.317 133.729 90.7224 132.422 89.4155C131.825 88.8185 131.337 87.1191 131.337 85.6382ZM79.8369 36.9214C89.8819 31.2487 102.893 46.8492 95.6582 55.8921C92.2024 60.211 91.2042 63.981 91.8701 70.1997C92.5322 76.3837 92.4821 76.5638 89.0371 80.3628C76.0391 94.6997 55.1533 78.5005 64.8242 61.5825C66.3391 58.9327 67.3172 55.6452 67.3242 53.1753C67.3402 47.7053 72.4159 41.1124 79.8369 36.9214ZM120.896 78.731C120.653 78.731 120.177 79.1811 119.837 79.731C119.497 80.2809 119.695 80.7309 120.277 80.731C120.859 80.731 121.337 80.281 121.337 79.731C121.337 79.181 121.139 78.731 120.896 78.731ZM205.485 39.4898C219.631 37.0418 227.598 50.9151 220.597 65.8081C213.393 81.13 190.339 77.7861 190.091 61.3823C189.98 54.0764 199.509 40.5238 205.485 39.4898ZM51.8369 14.5542C64.4449 5.86451 75.68 19.3671 68.6241 34.731C62.385 48.3167 41.3372 43.775 41.3369 28.8423C41.3369 26.0333 47.6529 17.4382 51.8369 14.5542ZM108.212 2.17043C121.43 -6.81137 141.546 14.0924 133.237 28.1743C132.084 30.1297 130.819 31.7302 130.427 31.731C130.035 31.731 128.813 32.5703 127.713 33.5962C119.456 41.2872 107.786 35.7761 103.367 22.0991C100.152 12.1461 101.463 6.75643 108.212 2.17043Z" fill="#E39C2A"/>
</g>
<path id="stroke1_8_960_ref" d="M46.5065 68.2462L52.9769 69.6219C52.9769 69.6219 51.8517 74.6415 47.8522 73.5821C45.2508 72.893 46.5065 68.2462 46.5065 68.2462ZM46.7016 65.3741L54.4395 67.2188C54.4395 67.2188 61.6822 60.1426 61.3571 54.4967C61.1078 50.1666 62.086 46.3387 57.9094 45.1692C53.9583 44.0628 52.6126 48.2987 49.9043 51.381C46.2041 55.5923 46.7016 65.3741 46.7016 65.3741Z"/>
<g id="stroke2_8_960" data-figma-scatter-ref="stroke2_8_960_ref" data-figma-scatter="f0.44_w0.26_aj180_sj0.25_r0_s977443698714580255_sw1">
<path d="M103.731 283.547C110.352 281.363 112.807 281.348 116.121 283.468C130.109 292.418 124.85 308.718 107.972 308.727C90.3768 308.737 87.0606 289.046 103.731 283.547ZM139.837 35.4146C140.937 35.1787 142.512 35.114 143.337 35.271C144.162 35.4281 146.516 35.8391 148.567 36.1851C155.802 37.4051 160.179 46.6969 156.734 53.5249C152.924 61.0769 144.715 67.5811 140.859 66.1021C135.872 64.1881 137.625 69.8792 144.066 76.5152C148.306 80.8841 150.337 81.2685 150.337 77.7066C150.337 76.6574 151.622 74.3218 153.193 72.5161C154.823 70.6412 156.597 66.9201 157.324 63.8501C158.925 57.0892 160.788 55.2289 167.369 53.8169C177.32 51.6829 185.581 56.9263 183.752 64.2153C183.293 66.0423 183.901 67.6656 186.09 70.4585C196.859 84.1975 193.875 104.273 180.596 107.418C177.049 108.258 176.832 108.532 176.773 112.27C176.739 114.448 176.365 116.987 175.943 117.912C175.255 119.417 175.946 119.564 182.506 119.31C190.415 119.003 192.674 119.705 195.953 123.487C199.054 127.064 201.598 126.114 202.609 121.002C203.503 116.483 209.096 110.731 212.596 110.731C214.841 110.731 215.934 108.156 214.449 106.367C206.1 96.3056 222.234 73.6632 235.605 76.6792C241.572 78.0252 246.302 83.6302 246.367 89.4312C246.384 90.9712 247.505 94.4811 248.858 97.231C255.362 110.453 243.304 126.225 232.777 118.263C229.924 116.105 229.837 116.226 229.837 122.341C229.837 128.93 225.932 133.292 219.049 134.393C216.068 134.87 214.933 135.67 213.775 138.116C212.964 139.829 211.55 142.415 210.63 143.863C208.984 146.456 209.02 146.565 213.147 151.254C215.451 153.871 217.337 156.555 217.337 157.218C217.337 157.882 218.074 159.901 218.974 161.706C222.148 168.067 221.073 181.731 217.4 181.731C217.052 181.731 215.97 183.081 214.995 184.731C214.02 186.381 212.573 187.731 211.779 187.731C209.595 187.731 210.044 189.817 212.863 192.76C216.384 196.435 217.425 204.867 214.728 207.858C209.503 213.649 203.05 218.01 198.064 219.122C193.944 220.041 192.83 220.705 192.804 222.259C192.669 230.389 188.242 235.387 179.682 237.077C172.845 238.427 172.072 240.31 177.577 242.203C190.358 246.597 192.892 257.693 182.442 263.506C176.521 266.799 172.426 266.758 167.515 263.354C163.894 260.845 163.161 260.686 159.679 261.653C153.737 263.303 147.363 262.934 141.337 260.593C135.874 258.47 130.724 257.068 124.689 256.061C118.715 255.064 115.151 249.943 114.592 241.551C114.184 235.417 113.671 233.745 111.425 231.231C109.951 229.581 107.986 226.544 107.058 224.481C105.42 220.844 105.211 220.731 100.164 220.731C93.7935 220.731 89.0798 217.922 86.2168 212.42C83.0468 206.327 78.9427 207.336 78.8477 214.231C78.8097 216.981 78.4233 220.817 77.9883 222.755C77.2354 226.113 77.3507 226.324 80.4366 227.255C90.5004 230.29 90.3981 247.946 80.2881 252.934C55.9904 264.92 26.2411 240.473 47.875 226.298C49.556 225.196 50.1805 223.494 50.6895 218.626C51.0495 215.185 52.1298 211.262 53.0908 209.91C54.0507 208.557 55.2736 206.856 55.8086 206.127C56.5016 205.184 56.0161 204.003 54.1221 202.017C50.6273 198.355 49.3112 194.657 49.9981 190.428C50.3281 188.392 50.1033 186.705 49.4463 186.299C48.8364 185.922 48.337 184.345 48.3369 182.794C48.3369 181.244 47.6012 179.366 46.7032 178.621C43.9996 176.376 34.3369 162.856 34.3369 161.317C34.3368 160.529 32.7627 157.822 30.8389 155.302C28.915 152.781 27.3998 150.384 27.4727 149.975C28.4457 144.478 24.6467 141.425 20.4727 144.348C18.2547 145.902 11.2222 145.776 6.86624 144.104C-3.23648 140.227 -1.78745 115.126 8.56839 114.62C14.8594 114.313 23.3369 117.551 23.3369 120.261C23.3372 122.018 26.1103 124.731 27.9073 124.731C28.6933 124.731 29.3369 124.041 29.3369 123.198C29.3372 109.814 50.1851 94.3087 69.8369 93.0767C82.9305 92.2547 88.2617 93.4969 97.1895 99.4468C101.45 102.287 108.337 96.8837 108.337 90.7007C108.337 88.6598 109.172 86.4706 110.483 85.0747C112.734 82.6789 111.804 79.7313 108.796 79.731C106.403 79.731 103.556 73.5422 104.077 69.4702C105.046 61.8843 117.633 57.7673 123.289 63.1861C125.639 65.4379 126.708 65.8083 129.245 65.2515C133.054 64.4145 133.128 63.4739 129.587 60.895C121.36 54.902 128.195 37.9086 139.837 35.4146ZM227.337 203.429C239.094 199.654 252.722 207.291 252.722 217.653C252.722 228.495 231.921 239.44 223.927 232.806C221.665 230.929 220.403 232.363 221.012 236.118C222.097 242.802 213.511 254.731 207.616 254.731C194.246 254.731 188.8 246.232 194.457 234.198C198.202 226.231 204.453 223.784 213.238 226.847C217.536 228.345 217.88 227.687 215.921 221.697C213.052 212.925 216.89 206.783 227.337 203.429ZM179.7 192.695C179.049 192.044 178.051 192.413 176.774 193.779C168.37 202.768 165.063 203.713 156.506 199.571C149.746 196.298 146.45 201.459 151.961 206.689C154.209 208.822 154.482 209.744 154.038 213.682C153.54 218.098 153.664 218.344 158.682 222.967C163.836 227.716 163.837 227.716 164.351 222.867C164.987 216.872 169.522 209.969 174.077 208.066C177.094 206.805 177.337 206.359 177.337 202.046C177.337 199.092 177.95 196.711 179.013 195.536C180.117 194.315 180.352 193.347 179.7 192.695ZM13.7354 183.697C21.2304 180.362 25.9355 181.225 32.1055 187.066C40.5644 195.074 37.0287 205.612 24.6309 209.343C9.40689 213.925 -0.704596 190.124 13.7354 183.697ZM252.956 148.251C262.129 145.732 267.81 147.203 270.983 152.921C277.397 164.478 257.352 180.919 247.179 172.445C237.093 164.044 240.016 151.805 252.956 148.251ZM175.822 162.709C174.842 161.123 172.482 161.589 171.417 163.579C170.283 165.699 171.384 170.913 173.086 171.481C174.366 171.905 176.761 164.229 175.822 162.709ZM150.152 111.481C150.492 108.526 149.534 108.177 145.513 109.79C142.108 111.155 143.035 114.231 146.851 114.231C149.365 114.231 149.886 113.796 150.152 111.481ZM156.837 98.731C156.012 98.731 155.337 99.406 155.337 100.231C155.337 101.056 156.012 101.731 156.837 101.731C157.662 101.731 158.337 101.056 158.337 100.231C158.337 99.4061 157.662 98.7312 156.837 98.731ZM131.337 85.6382C131.337 82.8002 129.491 81.4004 127.429 82.6743C126.501 83.2473 126.685 84.2905 128.185 86.9605C129.273 88.9003 130.316 91.46 130.5 92.6489C130.685 93.8379 131.287 94.905 131.837 95.021C133.25 95.317 133.729 90.7224 132.422 89.4155C131.825 88.8185 131.337 87.1191 131.337 85.6382ZM79.8369 36.9214C89.8819 31.2487 102.893 46.8492 95.6582 55.8921C92.2024 60.211 91.2042 63.981 91.8701 70.1997C92.5322 76.3837 92.4821 76.5638 89.0371 80.3628C76.0391 94.6997 55.1533 78.5005 64.8242 61.5825C66.3391 58.9327 67.3172 55.6452 67.3242 53.1753C67.3402 47.7053 72.4159 41.1124 79.8369 36.9214ZM120.896 78.731C120.653 78.731 120.177 79.1811 119.837 79.731C119.497 80.2809 119.695 80.7309 120.277 80.731C120.859 80.731 121.337 80.281 121.337 79.731C121.337 79.181 121.139 78.731 120.896 78.731ZM205.485 39.4898C219.631 37.0418 227.598 50.9151 220.597 65.8081C213.393 81.13 190.339 77.7861 190.091 61.3823C189.98 54.0764 199.509 40.5238 205.485 39.4898ZM51.8369 14.5542C64.4449 5.86451 75.68 19.3671 68.6241 34.731C62.385 48.3167 41.3372 43.775 41.3369 28.8423C41.3369 26.0333 47.6529 17.4382 51.8369 14.5542ZM108.212 2.17043C121.43 -6.81137 141.546 14.0924 133.237 28.1743C132.084 30.1297 130.819 31.7302 130.427 31.731C130.035 31.731 128.813 32.5703 127.713 33.5962C119.456 41.2872 107.786 35.7761 103.367 22.0991C100.152 12.1461 101.463 6.75643 108.212 2.17043Z" fill="#E39C2A"/>
</g>
<path id="stroke2_8_960_ref" d="M41.9159 25.567L47.5178 29.4944C47.5178 29.4944 45.2063 34.4271 41.9372 31.9522C38.9183 29.6666 41.9159 25.567 41.9159 25.567ZM42.8657 22.8051L49.903 27.4323C49.903 27.4323 58.6814 22.3855 59.7743 16.8369C60.6125 12.5814 62.5143 9.1182 58.7612 6.94424C55.2107 4.88767 52.8474 7.74286 49.4562 10.0525C44.8228 13.2082 42.8657 22.8051 42.8657 22.8051Z"/>
</defs>
</svg>
