<svg width="68" height="87" viewBox="0 0 68 87" fill="none" xmlns="http://www.w3.org/2000/svg" xmlns:xlink="http://www.w3.org/1999/xlink">
<path d="M55.601 76.371L61.2496 72.4658C61.2496 72.4658 64.3381 76.3723 62.4258 78.2659C59.4575 81.205 55.601 76.371 55.601 76.371Z" fill="#E39C2A"/>
<path d="M53.6052 73.7236L59.7967 69.7851C59.7967 69.7851 56.4123 60.5939 51.3553 58.1744C47.6541 56.4036 44.8866 53.9382 41.6876 56.5075C38.306 59.2234 40.7752 60.6609 42.2466 64.7409C44.1652 70.0608 53.6052 73.7236 53.6052 73.7236Z" fill="#E39C2A"/>
<use xlink:href="#stroke0_8_1035" transform="matrix(0.00368189 0.000540156 0.000540156 -0.00368189 60.6651 72.9606)"/>
<use xlink:href="#stroke0_8_1035" transform="matrix(-0.00313465 0.00122323 0.00122323 0.00313465 61.2101 72.1605)"/>
<use xlink:href="#stroke0_8_1035" transform="matrix(0.00281184 -0.00264983 -0.00264983 -0.00281184 60.5645 73.739)"/>
<use xlink:href="#stroke0_8_1035" transform="matrix(0.00394264 -0.000622939 -0.000622939 -0.00394264 59.7651 73.9837)"/>
<use xlink:href="#stroke0_8_1035" transform="matrix(-0.00141383 -0.00232129 -0.00232129 0.00141383 60.3462 73.5014)"/>
<use xlink:href="#stroke0_8_1035" transform="matrix(-0.00316858 -0.00126582 -0.00126582 0.00316858 60.2504 73.4842)"/>
<use xlink:href="#stroke0_8_1035" transform="matrix(-0.00246193 -0.0020862 -0.0020862 0.00246193 59.7863 73.6887)"/>
<use xlink:href="#stroke0_8_1035" transform="matrix(3.13604e-05 -0.00366524 -0.00366524 -3.13604e-05 59.4164 74.6176)"/>
<use xlink:href="#stroke0_8_1035" transform="matrix(-0.00342367 1.28409e-05 1.28409e-05 0.00342367 59.0047 73.8757)"/>
<use xlink:href="#stroke0_8_1035" transform="matrix(0.00207615 -0.00267697 -0.00267697 -0.00207615 58.2697 75.2273)"/>
<use xlink:href="#stroke0_8_1035" transform="matrix(0.002302 0.00251048 0.00251048 -0.002302 57.2227 74.9598)"/>
<use xlink:href="#stroke0_8_1035" transform="matrix(0.00304993 -0.000881286 -0.000881286 -0.00304993 57.2952 75.7248)"/>
<use xlink:href="#stroke0_8_1035" transform="matrix(0.00120312 -0.00268075 -0.00268075 -0.00120312 57.3999 75.7145)"/>
<use xlink:href="#stroke0_8_1035" transform="matrix(0.000749615 -0.00294834 -0.00294834 -0.000749615 57.1478 75.797)"/>
<use xlink:href="#stroke0_8_1035" transform="matrix(-0.00392203 -4.21012e-06 -4.21012e-06 0.00392203 57.1577 75.1606)"/>
<use xlink:href="#stroke0_8_1035" transform="matrix(0.00353666 -0.000869233 -0.000869233 -0.00353666 55.9986 76.8249)"/>
<use xlink:href="#stroke0_8_1035" transform="matrix(-0.003504 -0.000980472 -0.000980472 0.003504 56.4243 75.7248)"/>
<use xlink:href="#stroke0_8_1035" transform="matrix(-0.000836662 0.00276076 0.00276076 0.000836662 55.3717 75.9155)"/>
<use xlink:href="#stroke0_8_1035" transform="matrix(-0.00171949 0.00340594 0.00340594 0.00171949 55.6296 76.0167)"/>
<use xlink:href="#stroke0_8_1035" transform="matrix(-0.000752781 -0.00395758 -0.00395758 0.000752781 57.1298 77.3411)"/>
<use xlink:href="#stroke0_8_1035" transform="matrix(-0.00306167 -0.00130148 -0.00130148 0.00306167 57.0449 77.2467)"/>
<use xlink:href="#stroke0_8_1035" transform="matrix(9.27477e-05 -0.00388549 -0.00388549 -9.27477e-05 57.605 78.0698)"/>
<use xlink:href="#stroke0_8_1035" transform="matrix(-0.000260626 0.00398079 0.00398079 0.000260626 56.6807 77.3888)"/>
<use xlink:href="#stroke0_8_1035" transform="matrix(0.00308822 -0.00189508 -0.00189508 -0.00308822 57.5425 78.9137)"/>
<use xlink:href="#stroke0_8_1035" transform="matrix(-0.00104923 0.00241532 0.00241532 0.00104923 57.5745 78.1756)"/>
<use xlink:href="#stroke0_8_1035" transform="matrix(0.00291782 0.00194323 0.00194323 -0.00291782 57.6047 78.7388)"/>
<use xlink:href="#stroke0_8_1035" transform="matrix(0.00158866 0.00237662 0.00237662 -0.00158866 58.0478 78.6569)"/>
<use xlink:href="#stroke0_8_1035" transform="matrix(0.000559807 0.00253538 0.00253538 -0.000559807 58.3538 78.8718)"/>
<use xlink:href="#stroke0_8_1035" transform="matrix(-0.00213249 0.00324092 0.00324092 0.00213249 59.0486 78.3119)"/>
<use xlink:href="#stroke0_8_1035" transform="matrix(0.00205117 0.0025682 0.0025682 -0.00205117 59.0413 78.9365)"/>
<use xlink:href="#stroke0_8_1035" transform="matrix(-0.000660692 0.00304951 0.00304951 0.000660692 59.6792 78.7381)"/>
<use xlink:href="#stroke0_8_1035" transform="matrix(-0.00338513 0.00205589 0.00205589 0.00338513 60.6171 78.2299)"/>
<use xlink:href="#stroke0_8_1035" transform="matrix(-0.000857811 -0.00317613 -0.00317613 0.000857811 61.5032 79.357)"/>
<use xlink:href="#stroke0_8_1035" transform="matrix(0.00333553 0.00197769 0.00197769 -0.00333553 60.4844 79.0559)"/>
<use xlink:href="#stroke0_8_1035" transform="matrix(0.00324995 -0.000807402 -0.000807402 -0.00324995 61.5148 79.64)"/>
<use xlink:href="#stroke0_8_1035" transform="matrix(0.00148955 0.00315021 0.00315021 -0.00148955 61.4156 78.4646)"/>
<use xlink:href="#stroke0_8_1035" transform="matrix(-0.00263424 -0.00081712 -0.00081712 0.00263424 62.8244 78.0604)"/>
<use xlink:href="#stroke0_8_1035" transform="matrix(-0.00271657 -0.0011145 -0.0011145 0.00271657 63.2864 77.9752)"/>
<use xlink:href="#stroke0_8_1035" transform="matrix(0.00137967 0.00234084 0.00234084 -0.00137967 62.3929 77.8193)"/>
<use xlink:href="#stroke0_8_1035" transform="matrix(-0.00260394 -0.000984739 -0.000984739 0.00260394 63.3482 77.2349)"/>
<use xlink:href="#stroke0_8_1035" transform="matrix(-0.00354526 9.86719e-05 9.86719e-05 0.00354526 63.4295 76.5927)"/>
<use xlink:href="#stroke0_8_1035" transform="matrix(-0.0018118 0.00187281 0.00187281 0.0018118 63.0044 76.2608)"/>
<use xlink:href="#stroke0_8_1035" transform="matrix(0.00344543 -9.85579e-05 -9.85579e-05 -0.00344543 62.8061 76.9635)"/>
<use xlink:href="#stroke0_8_1035" transform="matrix(-0.00141792 0.00232258 0.00232258 0.00141792 62.654 75.5615)"/>
<use xlink:href="#stroke0_8_1035" transform="matrix(-0.00310948 0.00189735 0.00189735 0.00310948 62.9104 74.9908)"/>
<use xlink:href="#stroke0_8_1035" transform="matrix(0.00346244 -0.000550634 -0.000550634 -0.00346244 62.629 75.82)"/>
<use xlink:href="#stroke0_8_1035" transform="matrix(-0.00237068 0.00129855 0.00129855 0.00237068 62.939 74.3333)"/>
<use xlink:href="#stroke0_8_1035" transform="matrix(0.00114928 0.00263172 0.00263172 -0.00114928 62.0462 74.4149)"/>
<use xlink:href="#stroke0_8_1035" transform="matrix(0.0033491 -0.00209818 -0.00209818 -0.0033491 62.3714 74.9904)"/>
<use xlink:href="#stroke0_8_1035" transform="matrix(0.00352968 0.000341229 0.000341229 -0.00352968 61.6548 74.3398)"/>
<use xlink:href="#stroke0_8_1035" transform="matrix(0.000909077 0.00334953 0.00334953 -0.000909077 61.2429 73.2166)"/>
<use xlink:href="#stroke0_8_1035" transform="matrix(-0.00326836 -0.00183169 -0.00183169 0.00326836 62.4468 72.8719)"/>
<use xlink:href="#stroke0_8_1035" transform="matrix(0.00263004 -0.00167222 -0.00167222 -0.00263004 61.3478 73.4473)"/>
<use xlink:href="#stroke0_8_1035" transform="matrix(0.00152127 -0.00262847 -0.00262847 -0.00152127 61.3915 73.1391)"/>
<use xlink:href="#stroke0_8_1035" transform="matrix(-0.00292828 -0.00194718 -0.00194718 0.00292828 60.4958 69.5981)"/>
<use xlink:href="#stroke0_8_1035" transform="matrix(-0.0018054 -0.0019349 -0.0019349 0.0018054 60.0816 70.0495)"/>
<use xlink:href="#stroke0_8_1035" transform="matrix(0.00216785 -0.0029115 -0.0029115 -0.00216785 59.2745 70.8405)"/>
<use xlink:href="#stroke0_8_1035" transform="matrix(0.00306306 -0.000618995 -0.000618995 -0.00306306 58.412 70.8123)"/>
<use xlink:href="#stroke0_8_1035" transform="matrix(-0.00284128 -0.00064132 -0.00064132 0.00284128 58.9065 70.0861)"/>
<use xlink:href="#stroke0_8_1035" transform="matrix(-0.00379558 3.69981e-05 3.69981e-05 0.00379558 58.7821 70.36)"/>
<use xlink:href="#stroke0_8_1035" transform="matrix(0.00144779 0.00365792 0.00365792 -0.00144779 57.0667 70.8429)"/>
<use xlink:href="#stroke0_8_1035" transform="matrix(-0.00049148 -0.0033715 -0.0033715 0.00049148 58.118 71.8514)"/>
<use xlink:href="#stroke0_8_1035" transform="matrix(-0.00373827 0.000989745 0.000989745 0.00373827 57.4042 70.8098)"/>
<use xlink:href="#stroke0_8_1035" transform="matrix(-0.00211424 -0.00301296 -0.00301296 0.00211424 57.4675 71.9232)"/>
<use xlink:href="#stroke0_8_1035" transform="matrix(0.00211071 -0.00323775 -0.00323775 -0.00211071 56.4372 72.6778)"/>
<use xlink:href="#stroke0_8_1035" transform="matrix(-0.00203453 -0.00339322 -0.00339322 0.00203453 56.6172 72.29)"/>
<use xlink:href="#stroke0_8_1035" transform="matrix(-0.00266332 -0.00112812 -0.00112812 0.00266332 56.0429 72.1612)"/>
<use xlink:href="#stroke0_8_1035" transform="matrix(0.00218481 0.00219707 0.00219707 -0.00218481 54.6756 72.8202)"/>
<use xlink:href="#stroke0_8_1035" transform="matrix(-0.000793111 -0.00305572 -0.00305572 0.000793111 55.4092 73.015)"/>
<use xlink:href="#stroke0_8_1035" transform="matrix(0.0012019 0.00315387 0.00315387 -0.0012019 53.8421 72.6768)"/>
<use xlink:href="#stroke0_8_1035" transform="matrix(-0.000524582 0.00354462 0.00354462 0.000524582 53.6448 72.5487)"/>
<use xlink:href="#stroke0_8_1035" transform="matrix(-0.00358377 -0.00100254 -0.00100254 0.00358377 54.5936 73.2439)"/>
<use xlink:href="#stroke0_8_1035" transform="matrix(-0.00314807 -0.00174292 -0.00174292 0.00314807 54.1283 73.607)"/>
<use xlink:href="#stroke0_8_1035" transform="matrix(0.00170474 0.00222966 0.00222966 -0.00170474 52.4985 73.673)"/>
<use xlink:href="#stroke0_8_1035" transform="matrix(0.00297146 0.00123598 0.00123598 -0.00297146 52.2932 73.5267)"/>
<use xlink:href="#stroke0_8_1035" transform="matrix(-0.000752246 -0.00279826 -0.00279826 0.000752246 53.0876 73.353)"/>
<use xlink:href="#stroke0_8_1035" transform="matrix(0.00347906 -0.000242246 -0.000242246 -0.00347906 51.6444 73.7692)"/>
<use xlink:href="#stroke0_8_1035" transform="matrix(0.00151637 0.00216383 0.00216383 -0.00151637 51.3506 72.6822)"/>
<use xlink:href="#stroke0_8_1035" transform="matrix(-0.00122467 -0.00341798 -0.00341798 0.00122467 52.1476 73.0649)"/>
<use xlink:href="#stroke0_8_1035" transform="matrix(-0.00308055 0.000156494 0.000156494 0.00308055 51.5953 71.9)"/>
<use xlink:href="#stroke0_8_1035" transform="matrix(0.00116939 0.00302814 0.00302814 -0.00116939 50.1766 72.112)"/>
<use xlink:href="#stroke0_8_1035" transform="matrix(-0.00210594 0.00185978 0.00185978 0.00210594 50.3804 71.7871)"/>
<use xlink:href="#stroke0_8_1035" transform="matrix(-0.00216243 0.00200626 0.00200626 0.00216243 50.2343 71.2725)"/>
<use xlink:href="#stroke0_8_1035" transform="matrix(0.00393048 0.000550702 0.000550702 -0.00393048 49.144 72.4396)"/>
<use xlink:href="#stroke0_8_1035" transform="matrix(-0.00157922 -0.00238478 -0.00238478 0.00157922 50.0712 71.6458)"/>
<use xlink:href="#stroke0_8_1035" transform="matrix(0.00110146 0.00251749 0.00251749 -0.00110146 48.6441 71.2481)"/>
<use xlink:href="#stroke0_8_1035" transform="matrix(-0.00221587 -0.00333472 -0.00333472 0.00221587 49.6604 71.3164)"/>
<use xlink:href="#stroke0_8_1035" transform="matrix(-0.000811125 -0.00265513 -0.00265513 0.000811125 49.0094 71.2457)"/>
<use xlink:href="#stroke0_8_1035" transform="matrix(-0.00199082 -0.00167462 -0.00167462 0.00199082 48.7686 70.7225)"/>
<use xlink:href="#stroke0_8_1035" transform="matrix(0.00110034 -0.00237751 -0.00237751 -0.00110034 48.2439 71.0532)"/>
<use xlink:href="#stroke0_8_1035" transform="matrix(-0.00288578 0.000336078 0.000336078 0.00288578 47.8459 70.2582)"/>
<use xlink:href="#stroke0_8_1035" transform="matrix(-0.000497148 0.0032889 0.0032889 0.000497148 46.7851 69.9688)"/>
<use xlink:href="#stroke0_8_1035" transform="matrix(0.000419462 -0.00349648 -0.00349648 -0.000419462 47.595 70.4801)"/>
<use xlink:href="#stroke0_8_1035" transform="matrix(-0.00311843 -3.83645e-05 -3.83645e-05 0.00311843 47.2152 69.2433)"/>
<use xlink:href="#stroke0_8_1035" transform="matrix(-0.00225707 0.00134657 0.00134657 0.00225707 46.4319 69.22)"/>
<use xlink:href="#stroke0_8_1035" transform="matrix(-0.00202937 -0.00249913 -0.00249913 0.00202937 46.6918 69.5947)"/>
<use xlink:href="#stroke0_8_1035" transform="matrix(0.00234132 0.00178738 0.00178738 -0.00234132 45.3783 69.1681)"/>
<use xlink:href="#stroke0_8_1035" transform="matrix(0.00282516 -0.000904731 -0.000904731 -0.00282516 45.435 69.4143)"/>
<use xlink:href="#stroke0_8_1035" transform="matrix(-0.00266868 -0.00265009 -0.00265009 0.00266868 46.1004 68.6009)"/>
<use xlink:href="#stroke0_8_1035" transform="matrix(-0.00326035 -0.000656166 -0.000656166 0.00326035 45.6227 67.8893)"/>
<use xlink:href="#stroke0_8_1035" transform="matrix(3.51315e-05 -0.00329752 -0.00329752 -3.51315e-05 45.1991 68.5892)"/>
<use xlink:href="#stroke0_8_1035" transform="matrix(-0.00253148 0.00162485 0.00162485 0.00253148 44.3996 67.378)"/>
<use xlink:href="#stroke0_8_1035" transform="matrix(-0.00318618 -0.00189605 -0.00189605 0.00318618 44.8744 67.3518)"/>
<use xlink:href="#stroke0_8_1035" transform="matrix(-0.000674886 0.00379604 0.00379604 0.000674886 43.1514 66.8002)"/>
<use xlink:href="#stroke0_8_1035" transform="matrix(0.00297846 -0.000279793 -0.000279793 -0.00297846 43.3323 67.3499)"/>
<use xlink:href="#stroke0_8_1035" transform="matrix(8.5718e-06 -0.00402282 -0.00402282 -8.5718e-06 44.1035 67.0464)"/>
<use xlink:href="#stroke0_8_1035" transform="matrix(0.00162499 0.00351804 0.00351804 -0.00162499 42.0814 66.1346)"/>
<use xlink:href="#stroke0_8_1035" transform="matrix(-0.00267861 -0.00188861 -0.00188861 0.00267861 43.4548 65.7263)"/>
<use xlink:href="#stroke0_8_1035" transform="matrix(0.00183367 0.00272583 0.00272583 -0.00183367 41.7831 65.5312)"/>
<use xlink:href="#stroke0_8_1035" transform="matrix(0.00320842 -0.0014847 -0.0014847 -0.00320842 42.4059 65.7893)"/>
<use xlink:href="#stroke0_8_1035" transform="matrix(0.00142725 0.00327582 0.00327582 -0.00142725 41.4569 64.5957)"/>
<use xlink:href="#stroke0_8_1035" transform="matrix(0.000194727 -0.00377155 -0.00377155 -0.000194727 42.9027 64.8207)"/>
<use xlink:href="#stroke0_8_1035" transform="matrix(-0.00207921 0.0031195 0.0031195 0.00207921 41.71 63.219)"/>
<use xlink:href="#stroke0_8_1035" transform="matrix(0.00352776 0.000750166 0.000750166 -0.00352776 41.0517 64.0416)"/>
<use xlink:href="#stroke0_8_1035" transform="matrix(-0.000114372 -0.00397522 -0.00397522 0.000114372 42.1552 63.6805)"/>
<use xlink:href="#stroke0_8_1035" transform="matrix(-0.00297692 -0.00113526 -0.00113526 0.00297692 42.1251 62.3657)"/>
<use xlink:href="#stroke0_8_1035" transform="matrix(-0.000878742 0.00273581 0.00273581 0.000878742 40.7969 61.98)"/>
<use xlink:href="#stroke0_8_1035" transform="matrix(-0.00301981 -0.00189511 -0.00189511 0.00301981 41.9465 61.7733)"/>
<use xlink:href="#stroke0_8_1035" transform="matrix(-0.00198302 0.00318052 0.00318052 0.00198302 40.5399 60.9966)"/>
<use xlink:href="#stroke0_8_1035" transform="matrix(-0.000723519 0.00349484 0.00349484 0.000723519 40.1968 60.7201)"/>
<use xlink:href="#stroke0_8_1035" transform="matrix(-0.000250224 0.0034136 0.0034136 0.000250224 39.8785 60.4644)"/>
<use xlink:href="#stroke0_8_1035" transform="matrix(0.000881511 -0.00325988 -0.00325988 -0.000881511 40.8066 61.0826)"/>
<use xlink:href="#stroke0_8_1035" transform="matrix(-0.00305931 -0.00229665 -0.00229665 0.00305931 41.061 59.9433)"/>
<use xlink:href="#stroke0_8_1035" transform="matrix(-0.000226606 -0.00300653 -0.00300653 0.000226606 40.4548 60.1431)"/>
<use xlink:href="#stroke0_8_1035" transform="matrix(-0.00373806 0.000396624 0.000396624 0.00373806 40.5122 58.7129)"/>
<use xlink:href="#stroke0_8_1035" transform="matrix(-0.00368398 -1.43384e-05 -1.43384e-05 0.00368398 40.4065 58.3245)"/>
<use xlink:href="#stroke0_8_1035" transform="matrix(-0.00135821 0.00369806 0.00369806 0.00135821 39.8995 57.8065)"/>
<use xlink:href="#stroke0_8_1035" transform="matrix(0.000617107 0.00258946 0.00258946 -0.000617107 39.5516 57.7224)"/>
<use xlink:href="#stroke0_8_1035" transform="matrix(-0.00102376 -0.00334222 -0.00334222 0.00102376 41.1704 58.1211)"/>
<use xlink:href="#stroke0_8_1035" transform="matrix(0.00153767 -0.00253975 -0.00253975 -0.00153767 40.9852 58.1506)"/>
<use xlink:href="#stroke0_8_1035" transform="matrix(0.00314752 -0.00189612 -0.00189612 -0.00314752 40.9328 58.0354)"/>
<use xlink:href="#stroke0_8_1035" transform="matrix(-0.00275617 0.000734106 0.000734106 0.00275617 41.3799 56.2591)"/>
<use xlink:href="#stroke0_8_1035" transform="matrix(-0.00052207 0.0030727 0.0030727 0.00052207 41.0273 56.0912)"/>
<use xlink:href="#stroke0_8_1035" transform="matrix(0.00208797 -0.00303974 -0.00303974 -0.00208797 42.1051 57.278)"/>
<use xlink:href="#stroke0_8_1035" transform="matrix(-0.0034956 -0.00199275 -0.00199275 0.0034956 43.0335 55.9594)"/>
<use xlink:href="#stroke0_8_1035" transform="matrix(-0.000610985 -0.00311099 -0.00311099 0.000610985 43.1907 56.3704)"/>
<use xlink:href="#stroke0_8_1035" transform="matrix(-0.000795389 -0.00285334 -0.00285334 0.000795389 43.448 56.041)"/>
<use xlink:href="#stroke0_8_1035" transform="matrix(0.000408894 -0.00331012 -0.00331012 -0.000408894 43.7272 56.2176)"/>
<use xlink:href="#stroke0_8_1035" transform="matrix(-0.00228703 0.0014792 0.0014792 0.00228703 43.7085 55.1021)"/>
<use xlink:href="#stroke0_8_1035" transform="matrix(0.00176102 -0.0033756 -0.0033756 -0.00176102 44.229 55.9915)"/>
<use xlink:href="#stroke0_8_1035" transform="matrix(-0.00208209 -0.00236259 -0.00236259 0.00208209 45.0432 55.5452)"/>
<use xlink:href="#stroke0_8_1035" transform="matrix(0.00264763 -0.000203158 -0.000203158 -0.00264763 44.4123 55.7004)"/>
<use xlink:href="#stroke0_8_1035" transform="matrix(0.00172768 -0.00341627 -0.00341627 -0.00172768 45.4316 56.0294)"/>
<use xlink:href="#stroke0_8_1035" transform="matrix(-0.00312963 0.00129553 0.00129553 0.00312963 45.8077 54.6838)"/>
<use xlink:href="#stroke0_8_1035" transform="matrix(-0.00398948 0.000161327 0.000161327 0.00398948 46.4795 55.0311)"/>
<use xlink:href="#stroke0_8_1035" transform="matrix(0.00279753 0.000377019 0.000377019 -0.00279753 45.8732 56.2751)"/>
<use xlink:href="#stroke0_8_1035" transform="matrix(0.00321808 -0.000140158 -0.000140158 -0.00321808 46.2984 56.3499)"/>
<use xlink:href="#stroke0_8_1035" transform="matrix(0.00190527 -0.00318071 -0.00318071 -0.00190527 47.3446 56.6863)"/>
<use xlink:href="#stroke0_8_1035" transform="matrix(-0.00188203 -0.00249346 -0.00249346 0.00188203 48.1867 56.0512)"/>
<use xlink:href="#stroke0_8_1035" transform="matrix(0.00203031 0.0021639 0.0021639 -0.00203031 47.1856 56.3495)"/>
<use xlink:href="#stroke0_8_1035" transform="matrix(0.00156012 -0.00240364 -0.00240364 -0.00156012 48.3836 56.8246)"/>
<use xlink:href="#stroke0_8_1035" transform="matrix(-0.00117955 -0.00249489 -0.00249489 0.00117955 49.0215 56.6677)"/>
<use xlink:href="#stroke0_8_1035" transform="matrix(0.000493471 0.00280927 0.00280927 -0.000493471 48.1258 56.6396)"/>
<use xlink:href="#stroke0_8_1035" transform="matrix(0.000549727 -0.00354476 -0.00354476 -0.000549727 49.3988 57.7685)"/>
<use xlink:href="#stroke0_8_1035" transform="matrix(-0.000651789 -0.00353555 -0.00353555 0.000651789 50.1691 57.3579)"/>
<use xlink:href="#stroke0_8_1035" transform="matrix(-0.00392782 1.02363e-06 1.02363e-06 0.00392782 50.2494 56.9873)"/>
<use xlink:href="#stroke0_8_1035" transform="matrix(-3.67162e-05 0.00387226 0.00387226 3.67162e-05 49.5701 57.2167)"/>
<use xlink:href="#stroke0_8_1035" transform="matrix(-0.00201406 -0.00247156 -0.00247156 0.00201406 51.3714 57.6276)"/>
<use xlink:href="#stroke0_8_1035" transform="matrix(0.00389674 0.000510368 0.000510368 -0.00389674 50.415 58.4652)"/>
<use xlink:href="#stroke0_8_1035" transform="matrix(-0.00351245 -0.00126496 -0.00126496 0.00351245 52.1588 57.6625)"/>
<use xlink:href="#stroke0_8_1035" transform="matrix(-0.00174983 0.00226234 0.00226234 0.00174983 51.7619 57.5903)"/>
<use xlink:href="#stroke0_8_1035" transform="matrix(0.0012469 -0.00370526 -0.00370526 -0.0012469 52.6009 59.1309)"/>
<use xlink:href="#stroke0_8_1035" transform="matrix(0.000788268 -0.00388704 -0.00388704 -0.000788268 53.0691 59.3842)"/>
<use xlink:href="#stroke0_8_1035" transform="matrix(-0.00100243 0.00259889 0.00259889 0.00100243 52.6043 58.5181)"/>
<use xlink:href="#stroke0_8_1035" transform="matrix(0.00290573 0.000918413 0.000918413 -0.00290573 52.655 59.5112)"/>
<use xlink:href="#stroke0_8_1035" transform="matrix(-0.0006615 0.0039172 0.0039172 0.0006615 52.7516 59.1106)"/>
<use xlink:href="#stroke0_8_1035" transform="matrix(0.00129523 0.00382464 0.00382464 -0.00129523 53.1369 59.4409)"/>
<use xlink:href="#stroke0_8_1035" transform="matrix(0.00257358 0.000957487 0.000957487 -0.00257358 53.4352 60.5785)"/>
<use xlink:href="#stroke0_8_1035" transform="matrix(-0.00145157 -0.00372683 -0.00372683 0.00145157 55.0826 60.7893)"/>
<use xlink:href="#stroke0_8_1035" transform="matrix(-0.0028584 0.00121791 0.00121791 0.0028584 54.6434 60.3486)"/>
<use xlink:href="#stroke0_8_1035" transform="matrix(0.00234004 0.00146871 0.00146871 -0.00234004 54.3716 61.1694)"/>
<use xlink:href="#stroke0_8_1035" transform="matrix(-0.000548903 0.00271871 0.00271871 0.000548903 54.807 60.791)"/>
<use xlink:href="#stroke0_8_1035" transform="matrix(-0.000872199 -0.00305146 -0.00305146 0.000872199 55.9796 61.7954)"/>
<use xlink:href="#stroke0_8_1035" transform="matrix(0.00359501 0.000633943 0.000633943 -0.00359501 55.1129 62.2645)"/>
<use xlink:href="#stroke0_8_1035" transform="matrix(0.000530101 -0.00310584 -0.00310584 -0.000530101 56.2367 62.7148)"/>
<use xlink:href="#stroke0_8_1035" transform="matrix(-0.00338365 0.000954077 0.000954077 0.00338365 56.3713 61.8868)"/>
<use xlink:href="#stroke0_8_1035" transform="matrix(0.00275362 -0.000766473 -0.000766473 -0.00275362 55.8168 63.5204)"/>
<use xlink:href="#stroke0_8_1035" transform="matrix(0.00189881 0.00310474 0.00310474 -0.00189881 55.9051 62.9497)"/>
<use xlink:href="#stroke0_8_1035" transform="matrix(0.00224363 0.00327046 0.00327046 -0.00224363 56.0453 63.3897)"/>
<use xlink:href="#stroke0_8_1035" transform="matrix(0.000699848 -0.00264129 -0.00264129 -0.000699848 57.0567 64.4981)"/>
<use xlink:href="#stroke0_8_1035" transform="matrix(0.00188863 -0.00217248 -0.00217248 -0.00188863 57.1926 64.7861)"/>
<use xlink:href="#stroke0_8_1035" transform="matrix(0.00320505 0.00234242 0.00234242 -0.00320505 56.5418 64.719)"/>
<use xlink:href="#stroke0_8_1035" transform="matrix(0.000587129 0.00270479 0.00270479 -0.000587129 56.7948 64.7561)"/>
<use xlink:href="#stroke0_8_1035" transform="matrix(-0.00331437 -0.000603235 -0.000603235 0.00331437 58.2042 64.819)"/>
<use xlink:href="#stroke0_8_1035" transform="matrix(0.00197709 -0.00284426 -0.00284426 -0.00197709 58.0808 66.2712)"/>
<use xlink:href="#stroke0_8_1035" transform="matrix(0.00335672 -0.0014838 -0.0014838 -0.00335672 57.8428 66.6981)"/>
<use xlink:href="#stroke0_8_1035" transform="matrix(-0.00221261 0.00140874 0.00140874 0.00221261 58.2347 65.8247)"/>
<use xlink:href="#stroke0_8_1035" transform="matrix(-0.000811091 0.00258924 0.00258924 0.000811091 58.132 66.1043)"/>
<use xlink:href="#stroke0_8_1035" transform="matrix(-0.0016604 0.00243478 0.00243478 0.0016604 58.5008 66.2602)"/>
<use xlink:href="#stroke0_8_1035" transform="matrix(0.0018633 -0.00346538 -0.00346538 -0.0018633 58.8785 68.0902)"/>
<use xlink:href="#stroke0_8_1035" transform="matrix(0.00177826 -0.00249318 -0.00249318 -0.00177826 59.1619 68.2095)"/>
<use xlink:href="#stroke0_8_1035" transform="matrix(0.00298978 -0.00228041 -0.00228041 -0.00298978 59.1367 68.7397)"/>
<use xlink:href="#stroke0_8_1035" transform="matrix(-0.000188429 0.00385441 0.00385441 0.000188429 58.6502 67.9035)"/>
<use xlink:href="#stroke0_8_1035" transform="matrix(0.00295892 -0.000515477 -0.000515477 -0.00295892 59.1551 69.3208)"/>
<use xlink:href="#stroke0_8_1035" transform="matrix(0.0022445 0.00315671 0.00315671 -0.0022445 58.9483 69.047)"/>
<use xlink:href="#stroke0_8_1035" transform="matrix(-0.00342976 -0.000497845 -0.000497845 0.00342976 60.1954 69.182)"/>
<path d="M14.3515 69.6219L20.822 68.2461C20.822 68.2461 22.0777 72.893 19.4762 73.582C15.4767 74.6414 14.3515 69.6219 14.3515 69.6219Z" fill="#E39C2A"/>
<path d="M12.889 67.2188L20.6268 65.374C20.6268 65.374 21.1243 55.5922 17.4241 51.3809C14.7159 48.2987 13.3702 44.0627 9.41909 45.1691C5.24247 46.3386 6.22062 50.1666 5.97131 54.4967C5.64624 60.1426 12.889 67.2188 12.889 67.2188Z" fill="#E39C2A"/>
<use xlink:href="#stroke1_8_1035" transform="matrix(0.00290121 -0.00191233 -0.00191233 -0.00290121 20.7223 68.9542)"/>
<use xlink:href="#stroke1_8_1035" transform="matrix(-0.000421898 0.00260862 0.00260862 0.000421898 20.0999 67.8152)"/>
<use xlink:href="#stroke1_8_1035" transform="matrix(0.00116908 0.00291596 0.00291596 -0.00116908 19.5375 68.281)"/>
<use xlink:href="#stroke1_8_1035" transform="matrix(-0.000850966 -0.00296922 -0.00296922 0.000850966 20.3496 68.8182)"/>
<use xlink:href="#stroke1_8_1035" transform="matrix(-0.00340943 -0.000649685 -0.000649685 0.00340943 19.9841 68.3238)"/>
<use xlink:href="#stroke1_8_1035" transform="matrix(-0.00352688 0.00193783 0.00193783 0.00352688 19.0752 67.6405)"/>
<use xlink:href="#stroke1_8_1035" transform="matrix(0.00249809 -0.00101256 -0.00101256 -0.00249809 18.3872 69.3862)"/>
<use xlink:href="#stroke1_8_1035" transform="matrix(-0.00284473 0.000188511 0.000188511 0.00284473 18.5721 68.3166)"/>
<use xlink:href="#stroke1_8_1035" transform="matrix(0.00365202 0.000795849 0.000795849 -0.00365202 17.2613 69.5687)"/>
<use xlink:href="#stroke1_8_1035" transform="matrix(0.00248036 -0.00114525 -0.00114525 -0.00248036 17.3388 69.7207)"/>
<use xlink:href="#stroke1_8_1035" transform="matrix(-0.000753412 -0.0030516 -0.0030516 0.000753412 17.7355 69.5845)"/>
<use xlink:href="#stroke1_8_1035" transform="matrix(-0.000268516 0.00282888 0.00282888 0.000268516 16.3425 68.6102)"/>
<use xlink:href="#stroke1_8_1035" transform="matrix(-0.00382684 0.00027582 0.00027582 0.00382684 16.8461 68.5685)"/>
<use xlink:href="#stroke1_8_1035" transform="matrix(0.00221414 0.00187803 0.00187803 -0.00221414 15.3896 69.4045)"/>
<use xlink:href="#stroke1_8_1035" transform="matrix(-0.00211529 -0.00304837 -0.00304837 0.00211529 16.3394 69.4301)"/>
<use xlink:href="#stroke1_8_1035" transform="matrix(-0.00338471 -0.00128132 -0.00128132 0.00338471 15.7702 68.8974)"/>
<use xlink:href="#stroke1_8_1035" transform="matrix(-0.00337554 -7.80293e-05 -7.80293e-05 0.00337554 15.1649 68.7822)"/>
<use xlink:href="#stroke1_8_1035" transform="matrix(-0.00301175 0.00120324 0.00120324 0.00301175 14.5812 68.9882)"/>
<use xlink:href="#stroke1_8_1035" transform="matrix(0.00280407 0.000608945 0.000608945 -0.00280407 13.7613 70.3815)"/>
<use xlink:href="#stroke1_8_1035" transform="matrix(-0.000143282 0.00381849 0.00381849 0.000143282 14.1691 69.7451)"/>
<use xlink:href="#stroke1_8_1035" transform="matrix(0.00279781 -0.000833559 -0.000833559 -0.00279781 14.514 71.2499)"/>
<use xlink:href="#stroke1_8_1035" transform="matrix(0.00283044 0.000629936 0.000629936 -0.00283044 14.5576 71.3087)"/>
<use xlink:href="#stroke1_8_1035" transform="matrix(-0.00256823 -0.00267494 -0.00267494 0.00256823 16.002 71.2559)"/>
<use xlink:href="#stroke1_8_1035" transform="matrix(0.0012428 0.00372969 0.00372969 -0.0012428 14.6797 71.3787)"/>
<use xlink:href="#stroke1_8_1035" transform="matrix(-0.000395235 0.00353648 0.00353648 0.000395235 15.2057 71.4899)"/>
<use xlink:href="#stroke1_8_1035" transform="matrix(-0.00259271 -0.0011929 -0.0011929 0.00259271 16.3314 72.1988)"/>
<use xlink:href="#stroke1_8_1035" transform="matrix(5.37662e-05 0.00390184 0.00390184 -5.37662e-05 15.4501 72.217)"/>
<use xlink:href="#stroke1_8_1035" transform="matrix(-0.00231318 0.00255419 0.00255419 0.00231318 16.4221 72.1779)"/>
<use xlink:href="#stroke1_8_1035" transform="matrix(-0.00391149 -0.000966478 -0.000966478 0.00391149 17.5023 72.7018)"/>
<use xlink:href="#stroke1_8_1035" transform="matrix(-0.00362771 -0.00171481 -0.00171481 0.00362771 17.8799 73.3352)"/>
<use xlink:href="#stroke1_8_1035" transform="matrix(-0.00293869 -0.000780181 -0.000780181 0.00293869 18.1207 73.2335)"/>
<use xlink:href="#stroke1_8_1035" transform="matrix(0.00195827 -0.00341955 -0.00341955 -0.00195827 18.2464 74.5854)"/>
<use xlink:href="#stroke1_8_1035" transform="matrix(0.00174879 -0.00260771 -0.00260771 -0.00174879 18.5877 74.3581)"/>
<use xlink:href="#stroke1_8_1035" transform="matrix(-0.00155589 -0.00264896 -0.00264896 0.00155589 19.4193 73.8759)"/>
<use xlink:href="#stroke1_8_1035" transform="matrix(-0.000717879 -0.00278311 -0.00278311 0.000717879 19.7199 74.1714)"/>
<use xlink:href="#stroke1_8_1035" transform="matrix(-0.00146939 0.00230496 0.00230496 0.00146939 19.3756 73.257)"/>
<use xlink:href="#stroke1_8_1035" transform="matrix(0.00324534 0.00182151 0.00182151 -0.00324534 19.0757 73.6192)"/>
<use xlink:href="#stroke1_8_1035" transform="matrix(0.00283948 -0.00234054 -0.00234054 -0.00283948 20.3081 74.1197)"/>
<use xlink:href="#stroke1_8_1035" transform="matrix(-0.000776766 -0.00388945 -0.00388945 0.000776766 21.2541 73.3092)"/>
<use xlink:href="#stroke1_8_1035" transform="matrix(0.00171755 0.00240913 0.00240913 -0.00171755 20.073 72.4359)"/>
<use xlink:href="#stroke1_8_1035" transform="matrix(-0.00257787 -0.0026734 -0.0026734 0.00257787 21.7905 72.1737)"/>
<use xlink:href="#stroke1_8_1035" transform="matrix(-0.0028641 -0.000317157 -0.000317157 0.0028641 21.5808 71.4153)"/>
<use xlink:href="#stroke1_8_1035" transform="matrix(-0.00329581 0.00195534 0.00195534 0.00329581 21.0501 70.5906)"/>
<use xlink:href="#stroke1_8_1035" transform="matrix(-0.000769642 -0.00270227 -0.00270227 0.000769642 21.7334 71.2469)"/>
<use xlink:href="#stroke1_8_1035" transform="matrix(0.00212923 -0.00341993 -0.00341993 -0.00212923 21.1239 71.3768)"/>
<use xlink:href="#stroke1_8_1035" transform="matrix(-0.000670446 -0.00342707 -0.00342707 0.000670446 21.4929 70.5086)"/>
<use xlink:href="#stroke1_8_1035" transform="matrix(0.00283563 -0.00137828 -0.00137828 -0.00283563 20.9411 70.3575)"/>
<use xlink:href="#stroke1_8_1035" transform="matrix(-0.0026563 0.000403604 0.000403604 0.0026563 21.3292 68.9239)"/>
<use xlink:href="#stroke1_8_1035" transform="matrix(0.00290893 0.00136243 0.00136243 -0.00290893 20.1443 69.3409)"/>
<use xlink:href="#stroke1_8_1035" transform="matrix(0.00270231 -0.00162198 -0.00162198 -0.00270231 20.8949 69.2821)"/>
<use xlink:href="#stroke1_8_1035" transform="matrix(-0.00259031 0.000978603 0.000978603 0.00259031 20.9168 67.8136)"/>
<use xlink:href="#stroke1_8_1035" transform="matrix(0.00277922 0.00257756 0.00257756 -0.00277922 19.8506 65.4522)"/>
<use xlink:href="#stroke1_8_1035" transform="matrix(0.00269029 0.000322195 0.000322195 -0.00269029 19.834 65.8432)"/>
<use xlink:href="#stroke1_8_1035" transform="matrix(0.00392185 0.000531425 0.000531425 -0.00392185 19.2844 66.2599)"/>
<use xlink:href="#stroke1_8_1035" transform="matrix(0.00246349 -0.00125371 -0.00125371 -0.00246349 19.3803 66.4275)"/>
<use xlink:href="#stroke1_8_1035" transform="matrix(0.0027838 -0.00276025 -0.00276025 -0.0027838 19.0864 66.3829)"/>
<use xlink:href="#stroke1_8_1035" transform="matrix(-0.00101502 0.00304273 0.00304273 0.00101502 18.3284 65.2563)"/>
<use xlink:href="#stroke1_8_1035" transform="matrix(-0.00295955 0.00134996 0.00134996 0.00295955 18.4226 65.0439)"/>
<use xlink:href="#stroke1_8_1035" transform="matrix(-0.00245658 0.00197576 0.00197576 0.00245658 17.8863 65.1335)"/>
<use xlink:href="#stroke1_8_1035" transform="matrix(-0.00212346 -0.00212345 -0.00212345 0.00212346 18.2101 66.2267)"/>
<use xlink:href="#stroke1_8_1035" transform="matrix(0.00166927 0.00229555 0.00229555 -0.00166927 16.577 65.8956)"/>
<use xlink:href="#stroke1_8_1035" transform="matrix(-0.00206793 0.00195779 0.00195779 0.00206793 16.8383 65.5769)"/>
<use xlink:href="#stroke1_8_1035" transform="matrix(-0.00203589 -0.00345768 -0.00345768 0.00203589 17.2879 66.4884)"/>
<use xlink:href="#stroke1_8_1035" transform="matrix(-0.00114936 0.0027682 0.0027682 0.00114936 15.8003 65.8855)"/>
<use xlink:href="#stroke1_8_1035" transform="matrix(-0.00142446 0.00273546 0.00273546 0.00142446 15.453 65.7829)"/>
<use xlink:href="#stroke1_8_1035" transform="matrix(0.00147971 0.00230231 0.00230231 -0.00147971 14.8186 66.51)"/>
<use xlink:href="#stroke1_8_1035" transform="matrix(0.000905948 -0.00265107 -0.00265107 -0.000905948 15.2908 66.9719)"/>
<use xlink:href="#stroke1_8_1035" transform="matrix(0.00257629 0.0016197 0.0016197 -0.00257629 14.1743 67.1933)"/>
<use xlink:href="#stroke1_8_1035" transform="matrix(-0.00116389 0.00253623 0.00253623 0.00116389 14.1375 66.3016)"/>
<use xlink:href="#stroke1_8_1035" transform="matrix(0.000164843 0.00265092 0.00265092 -0.000164843 13.6903 66.8547)"/>
<use xlink:href="#stroke1_8_1035" transform="matrix(0.00278161 0.00197612 0.00197612 -0.00278161 13.0692 67.3694)"/>
<use xlink:href="#stroke1_8_1035" transform="matrix(0.00112391 0.00280031 0.00280031 -0.00112391 12.7139 66.7587)"/>
<use xlink:href="#stroke1_8_1035" transform="matrix(-0.0016373 0.00212097 0.00212097 0.0016373 12.8655 66.5157)"/>
<use xlink:href="#stroke1_8_1035" transform="matrix(-0.00268842 0.00248509 0.00248509 0.00268842 12.5013 66.4611)"/>
<use xlink:href="#stroke1_8_1035" transform="matrix(0.00265704 0.00159824 0.00159824 -0.00265704 11.6509 67.0891)"/>
<use xlink:href="#stroke1_8_1035" transform="matrix(-0.00115921 0.00253152 0.00253152 0.00115921 11.8311 66.0729)"/>
<use xlink:href="#stroke1_8_1035" transform="matrix(0.000608925 -0.0035361 -0.0035361 -0.000608925 12.2981 66.8631)"/>
<use xlink:href="#stroke1_8_1035" transform="matrix(-0.00337533 -0.00167991 -0.00167991 0.00337533 12.2066 65.7125)"/>
<use xlink:href="#stroke1_8_1035" transform="matrix(0.00103654 0.00287 0.00287 -0.00103654 10.8928 65.2396)"/>
<use xlink:href="#stroke1_8_1035" transform="matrix(0.00183824 -0.00189292 -0.00189292 -0.00183824 11.3204 65.7336)"/>
<use xlink:href="#stroke1_8_1035" transform="matrix(0.00126312 0.00360722 0.00360722 -0.00126312 10.1832 64.6984)"/>
<use xlink:href="#stroke1_8_1035" transform="matrix(-0.00322681 9.63812e-05 9.63812e-05 0.00322681 11.1019 64.1286)"/>
<use xlink:href="#stroke1_8_1035" transform="matrix(-0.00305175 -0.00152034 -0.00152034 0.00305175 11.0824 64.0661)"/>
<use xlink:href="#stroke1_8_1035" transform="matrix(4.04699e-05 0.00276795 0.00276795 -4.04699e-05 9.85432 63.6054)"/>
<use xlink:href="#stroke1_8_1035" transform="matrix(0.00206446 0.0020267 0.0020267 -0.00206446 9.34359 63.8596)"/>
<use xlink:href="#stroke1_8_1035" transform="matrix(0.000780435 -0.00389344 -0.00389344 -0.000780435 10.2985 64.0544)"/>
<use xlink:href="#stroke1_8_1035" transform="matrix(-0.00308068 0.00249715 0.00249715 0.00308068 9.26988 62.4157)"/>
<use xlink:href="#stroke1_8_1035" transform="matrix(0.000724655 0.00389705 0.00389705 -0.000724655 8.35876 62.3529)"/>
<use xlink:href="#stroke1_8_1035" transform="matrix(0.00154784 -0.00295382 -0.00295382 -0.00154784 9.27294 62.9034)"/>
<use xlink:href="#stroke1_8_1035" transform="matrix(0.000572466 0.00367062 0.00367062 -0.000572466 8.17027 61.488)"/>
<use xlink:href="#stroke1_8_1035" transform="matrix(0.00364183 -0.000593297 -0.000593297 -0.00364183 8.13545 62.1961)"/>
<use xlink:href="#stroke1_8_1035" transform="matrix(-0.000370187 0.00285391 0.00285391 0.000370187 7.66125 60.9479)"/>
<use xlink:href="#stroke1_8_1035" transform="matrix(0.00160382 0.00351764 0.00351764 -0.00160382 7.32421 60.6697)"/>
<use xlink:href="#stroke1_8_1035" transform="matrix(0.0028639 -0.000488018 -0.000488018 -0.0028639 7.44991 61.1274)"/>
<use xlink:href="#stroke1_8_1035" transform="matrix(0.0024507 0.00199988 0.00199988 -0.0024507 6.99536 60.3796)"/>
<use xlink:href="#stroke1_8_1035" transform="matrix(0.000399052 0.00309712 0.00309712 -0.000399052 7.10223 59.4917)"/>
<use xlink:href="#stroke1_8_1035" transform="matrix(0.0024556 -0.00160271 -0.00160271 -0.0024556 7.06496 60.2876)"/>
<use xlink:href="#stroke1_8_1035" transform="matrix(-0.00164275 -0.00224448 -0.00224448 0.00164275 7.69449 59.3742)"/>
<use xlink:href="#stroke1_8_1035" transform="matrix(0.00106336 0.00258219 0.00258219 -0.00106336 6.66762 58.7305)"/>
<use xlink:href="#stroke1_8_1035" transform="matrix(0.00126037 -0.00267838 -0.00267838 -0.00126037 6.90457 59.3397)"/>
<use xlink:href="#stroke1_8_1035" transform="matrix(0.00313608 0.00243748 0.00243748 -0.00313608 6.12572 58.3789)"/>
<use xlink:href="#stroke1_8_1035" transform="matrix(0.00264293 -0.00233322 -0.00233322 -0.00264293 6.46236 58.6483)"/>
<use xlink:href="#stroke1_8_1035" transform="matrix(0.00252104 -0.00266225 -0.00266225 -0.00252104 6.49956 58.2294)"/>
<use xlink:href="#stroke1_8_1035" transform="matrix(-0.000188104 0.00375265 0.00375265 0.000188104 5.92274 56.4672)"/>
<use xlink:href="#stroke1_8_1035" transform="matrix(0.000752932 -0.0024943 -0.0024943 -0.000752932 6.4404 57.1538)"/>
<use xlink:href="#stroke1_8_1035" transform="matrix(-0.00270077 0.00176637 0.00176637 0.00270077 6.45356 55.6445)"/>
<use xlink:href="#stroke1_8_1035" transform="matrix(0.00237832 -0.00243312 -0.00243312 -0.00237832 6.03258 56.666)"/>
<use xlink:href="#stroke1_8_1035" transform="matrix(-0.00256283 -0.00105599 -0.00105599 0.00256283 6.43191 55.3482)"/>
<use xlink:href="#stroke1_8_1035" transform="matrix(0.00218564 -0.00251967 -0.00251967 -0.00218564 5.96491 55.912)"/>
<use xlink:href="#stroke1_8_1035" transform="matrix(-0.00179388 -0.00232647 -0.00232647 0.00179388 6.73509 54.8916)"/>
<use xlink:href="#stroke1_8_1035" transform="matrix(-0.00285888 -0.00237132 -0.00237132 0.00285888 6.92302 54.346)"/>
<use xlink:href="#stroke1_8_1035" transform="matrix(-0.00212681 0.00268881 0.00268881 0.00212681 5.70502 53.3257)"/>
<use xlink:href="#stroke1_8_1035" transform="matrix(-0.0026089 -0.00210866 -0.00210866 0.0026089 6.47561 53.499)"/>
<use xlink:href="#stroke1_8_1035" transform="matrix(-0.00233092 0.00117565 0.00117565 0.00233092 5.94763 52.74)"/>
<use xlink:href="#stroke1_8_1035" transform="matrix(-0.00245801 0.00239171 0.00239171 0.00245801 6.05504 52.1975)"/>
<use xlink:href="#stroke1_8_1035" transform="matrix(-0.000302269 0.0034303 0.0034303 0.000302269 5.6607 51.977)"/>
<use xlink:href="#stroke1_8_1035" transform="matrix(0.00311661 -0.00184953 -0.00184953 -0.00311661 5.89885 52.7993)"/>
<use xlink:href="#stroke1_8_1035" transform="matrix(0.00334201 0.000556407 0.000556407 -0.00334201 5.5404 52.0867)"/>
<use xlink:href="#stroke1_8_1035" transform="matrix(0.000416517 -0.00258988 -0.00258988 -0.000416517 6.50686 51.7045)"/>
<use xlink:href="#stroke1_8_1035" transform="matrix(-0.00176176 -0.0024513 -0.0024513 0.00176176 6.89638 51.0147)"/>
<use xlink:href="#stroke1_8_1035" transform="matrix(0.00345246 0.0017292 0.0017292 -0.00345246 5.24973 50.8321)"/>
<use xlink:href="#stroke1_8_1035" transform="matrix(-0.0030586 0.000783366 0.000783366 0.0030586 6.51293 49.5457)"/>
<use xlink:href="#stroke1_8_1035" transform="matrix(-0.00311102 -0.000742528 -0.000742528 0.00311102 6.71621 49.3644)"/>
<use xlink:href="#stroke1_8_1035" transform="matrix(-0.00181391 0.00277437 0.00277437 0.00181391 5.6818 48.6628)"/>
<use xlink:href="#stroke1_8_1035" transform="matrix(-0.00134664 -0.00255985 -0.00255985 0.00134664 6.67126 49.1095)"/>
<use xlink:href="#stroke1_8_1035" transform="matrix(0.00287866 -0.000549472 -0.000549472 -0.00287866 6.05792 49.1816)"/>
<use xlink:href="#stroke1_8_1035" transform="matrix(0.000588176 0.00259988 0.00259988 -0.000588176 5.81283 48.0448)"/>
<use xlink:href="#stroke1_8_1035" transform="matrix(-0.00274502 -0.00232004 -0.00232004 0.00274502 7.37339 47.9149)"/>
<use xlink:href="#stroke1_8_1035" transform="matrix(-0.0024609 -0.000841972 -0.000841972 0.0024609 6.78595 47.2539)"/>
<use xlink:href="#stroke1_8_1035" transform="matrix(0.000247967 -0.00265457 -0.00265457 -0.000247967 7.16332 47.7763)"/>
<use xlink:href="#stroke1_8_1035" transform="matrix(-0.00342378 -0.000683851 -0.000683851 0.00342378 7.57418 46.6588)"/>
<use xlink:href="#stroke1_8_1035" transform="matrix(-0.00100203 -0.00334275 -0.00334275 0.00100203 7.58134 46.8433)"/>
<use xlink:href="#stroke1_8_1035" transform="matrix(-0.00306138 -0.000172776 -0.000172776 0.00306138 7.80967 45.9475)"/>
<use xlink:href="#stroke1_8_1035" transform="matrix(-0.00238944 0.00254695 0.00254695 0.00238944 7.42715 45.2367)"/>
<use xlink:href="#stroke1_8_1035" transform="matrix(0.00376679 -0.00109877 -0.00109877 -0.00376679 7.59624 46.5218)"/>
<use xlink:href="#stroke1_8_1035" transform="matrix(-0.00213365 0.00285343 0.00285343 0.00213365 8.10026 44.6922)"/>
<use xlink:href="#stroke1_8_1035" transform="matrix(0.00301773 0.00180339 0.00180339 -0.00301773 8.06558 45.699)"/>
<use xlink:href="#stroke1_8_1035" transform="matrix(-0.000875774 0.00331564 0.00331564 0.000875774 8.6744 44.5344)"/>
<use xlink:href="#stroke1_8_1035" transform="matrix(0.00294685 -0.000743835 -0.000743835 -0.00294685 9.18409 45.6383)"/>
<use xlink:href="#stroke1_8_1035" transform="matrix(0.00331073 0.00188261 0.00188261 -0.00331073 9.18934 45.5438)"/>
<use xlink:href="#stroke1_8_1035" transform="matrix(0.00104696 0.00286351 0.00286351 -0.00104696 9.7224 44.9034)"/>
<use xlink:href="#stroke1_8_1035" transform="matrix(0.00263717 -0.000325772 -0.000325772 -0.00263717 10.3277 45.2263)"/>
<use xlink:href="#stroke1_8_1035" transform="matrix(0.00145505 -0.00236899 -0.00236899 -0.00145505 11.1073 45.8043)"/>
<use xlink:href="#stroke1_8_1035" transform="matrix(0.00262275 -0.00162037 -0.00162037 -0.00262275 11.1838 45.7734)"/>
<use xlink:href="#stroke1_8_1035" transform="matrix(0.000299174 0.00338508 0.00338508 -0.000299174 11.1755 44.555)"/>
<use xlink:href="#stroke1_8_1035" transform="matrix(-0.000973696 -0.00249779 -0.00249779 0.000973696 12.6196 45.2827)"/>
<use xlink:href="#stroke1_8_1035" transform="matrix(0.00232879 -0.00209299 -0.00209299 -0.00232879 12.4253 45.9171)"/>
<use xlink:href="#stroke1_8_1035" transform="matrix(0.000935262 0.00245012 0.00245012 -0.000935262 12.0468 45.5358)"/>
<use xlink:href="#stroke1_8_1035" transform="matrix(-0.00357002 0.000816753 0.000816753 0.00357002 13.2297 45.247)"/>
<use xlink:href="#stroke1_8_1035" transform="matrix(0.00218076 0.00153565 0.00153565 -0.00218076 12.7187 46.1628)"/>
<use xlink:href="#stroke1_8_1035" transform="matrix(-0.0021768 -0.00221433 -0.00221433 0.0021768 14.2943 46.083)"/>
<use xlink:href="#stroke1_8_1035" transform="matrix(-0.000791236 -0.00359674 -0.00359674 0.000791236 14.59 46.8039)"/>
<use xlink:href="#stroke1_8_1035" transform="matrix(0.00239025 0.00154376 0.00154376 -0.00239025 13.4179 47.0745)"/>
<use xlink:href="#stroke1_8_1035" transform="matrix(-0.00246672 0.00110992 0.00110992 0.00246672 14.3542 46.6405)"/>
<use xlink:href="#stroke1_8_1035" transform="matrix(-0.00287921 0.00184062 0.00184062 0.00287921 14.4527 46.8189)"/>
<use xlink:href="#stroke1_8_1035" transform="matrix(0.00248264 -0.00123524 -0.00123524 -0.00248264 14.5514 48.2605)"/>
<use xlink:href="#stroke1_8_1035" transform="matrix(0.000739591 -0.00348968 -0.00348968 -0.000739591 15.3786 48.592)"/>
<use xlink:href="#stroke1_8_1035" transform="matrix(0.00165105 0.00216128 0.00216128 -0.00165105 14.5421 48.3122)"/>
<use xlink:href="#stroke1_8_1035" transform="matrix(-0.000367218 -0.00359401 -0.00359401 0.000367218 15.7929 49.1855)"/>
<use xlink:href="#stroke1_8_1035" transform="matrix(-3.08538e-05 -0.00309944 -0.00309944 3.08538e-05 16.1462 49.3279)"/>
<use xlink:href="#stroke1_8_1035" transform="matrix(0.00269524 0.00279669 0.00279669 -0.00269524 15.1593 49.2501)"/>
<use xlink:href="#stroke1_8_1035" transform="matrix(-0.00127735 0.00276307 0.00276307 0.00127735 15.8794 49.0255)"/>
<use xlink:href="#stroke1_8_1035" transform="matrix(-0.00263049 -0.00201819 -0.00201819 0.00263049 16.8932 49.8711)"/>
<use xlink:href="#stroke1_8_1035" transform="matrix(-0.00143267 0.0023577 0.0023577 0.00143267 16.3008 49.732)"/>
<use xlink:href="#stroke1_8_1035" transform="matrix(0.000652354 0.00339225 0.00339225 -0.000652354 15.9479 50.3143)"/>
<use xlink:href="#stroke1_8_1035" transform="matrix(0.00189349 0.00331768 0.00331768 -0.00189349 16.0651 50.8604)"/>
<use xlink:href="#stroke1_8_1035" transform="matrix(-8.52839e-05 0.00274353 0.00274353 8.52839e-05 16.8755 50.7717)"/>
<use xlink:href="#stroke1_8_1035" transform="matrix(-0.00114846 0.0031127 0.0031127 0.00114846 17.1236 50.8967)"/>
<use xlink:href="#stroke1_8_1035" transform="matrix(-0.00260879 -0.00298086 -0.00298086 0.00260879 18.4256 51.9205)"/>
<use xlink:href="#stroke1_8_1035" transform="matrix(0.00216128 -0.0030869 -0.0030869 -0.00216128 18.3777 52.8226)"/>
<use xlink:href="#stroke1_8_1035" transform="matrix(0.00234612 0.00202474 0.00202474 -0.00234612 17.4191 52.7332)"/>
<use xlink:href="#stroke1_8_1035" transform="matrix(0.0019436 0.00207764 0.00207764 -0.0019436 18.0405 52.7415)"/>
<use xlink:href="#stroke1_8_1035" transform="matrix(0.002353 0.0011422 0.0011422 -0.002353 18.2456 53.2481)"/>
<use xlink:href="#stroke1_8_1035" transform="matrix(-0.00160707 0.00245128 0.00245128 0.00160707 18.5565 52.8447)"/>
<use xlink:href="#stroke1_8_1035" transform="matrix(0.000301631 0.00297182 0.00297182 -0.000301631 18.6101 53.2815)"/>
<use xlink:href="#stroke1_8_1035" transform="matrix(-0.00261998 0.00205425 0.00205425 0.00261998 18.8853 53.48)"/>
<use xlink:href="#stroke1_8_1035" transform="matrix(-0.00221524 0.00240793 0.00240793 0.00221524 19.1263 53.7781)"/>
<use xlink:href="#stroke1_8_1035" transform="matrix(-0.00205664 -0.00308542 -0.00308542 0.00205664 20.2854 54.8782)"/>
<use xlink:href="#stroke1_8_1035" transform="matrix(-0.00133515 -0.00320497 -0.00320497 0.00133515 20.0827 55.5024)"/>
<use xlink:href="#stroke1_8_1035" transform="matrix(0.00287724 -0.000770824 -0.000770824 -0.00287724 19.2999 56.1737)"/>
<use xlink:href="#stroke1_8_1035" transform="matrix(-0.00143041 0.00283076 0.00283076 0.00143041 19.2806 55.4146)"/>
<use xlink:href="#stroke1_8_1035" transform="matrix(-0.00288941 -0.000392581 -0.000392581 0.00288941 20.1283 55.9627)"/>
<use xlink:href="#stroke1_8_1035" transform="matrix(-0.00339431 -0.000371898 -0.000371898 0.00339431 20.1958 56.2697)"/>
<use xlink:href="#stroke1_8_1035" transform="matrix(-0.00374439 0.000619282 0.000619282 0.00374439 20.586 56.4112)"/>
<use xlink:href="#stroke1_8_1035" transform="matrix(0.00344222 -0.00170273 -0.00170273 -0.00344222 20.0108 58.2983)"/>
<use xlink:href="#stroke1_8_1035" transform="matrix(-0.00290712 -0.000578716 -0.000578716 0.00290712 20.7694 57.5703)"/>
<use xlink:href="#stroke1_8_1035" transform="matrix(-0.00145955 0.0022542 0.0022542 0.00145955 20.2205 57.7386)"/>
<use xlink:href="#stroke1_8_1035" transform="matrix(-0.00299852 -0.00122468 -0.00122468 0.00299852 20.6573 58.385)"/>
<use xlink:href="#stroke1_8_1035" transform="matrix(0.00206064 -0.00328171 -0.00328171 -0.00206064 20.3185 59.8695)"/>
<use xlink:href="#stroke1_8_1035" transform="matrix(0.00368584 -0.000911177 -0.000911177 -0.00368584 20.0189 60.2212)"/>
<use xlink:href="#stroke1_8_1035" transform="matrix(0.00124795 0.0025848 0.0025848 -0.00124795 20.0678 59.7409)"/>
<use xlink:href="#stroke1_8_1035" transform="matrix(-0.000527576 0.00279371 0.00279371 0.000527576 19.9912 59.8161)"/>
<use xlink:href="#stroke1_8_1035" transform="matrix(-0.0028986 0.00115786 0.00115786 0.0028986 20.7958 60.0086)"/>
<use xlink:href="#stroke1_8_1035" transform="matrix(0.0028105 0.000677527 0.000677527 -0.0028105 19.9677 61.3276)"/>
<use xlink:href="#stroke1_8_1035" transform="matrix(-0.00332545 -0.00207342 -0.00207342 0.00332545 21.4846 61.1457)"/>
<use xlink:href="#stroke1_8_1035" transform="matrix(0.00274328 0.0028177 0.0028177 -0.00274328 19.998 61.8846)"/>
<use xlink:href="#stroke1_8_1035" transform="matrix(-0.000414078 -0.00271826 -0.00271826 0.000414078 20.9697 62.5698)"/>
<use xlink:href="#stroke1_8_1035" transform="matrix(0.00248881 -0.00193754 -0.00193754 -0.00248881 20.5851 63.2581)"/>
<use xlink:href="#stroke1_8_1035" transform="matrix(0.000588151 0.0027735 0.0027735 -0.000588151 19.9539 62.686)"/>
<use xlink:href="#stroke1_8_1035" transform="matrix(0.00287806 -0.00143418 -0.00143418 -0.00287806 20.4509 63.9712)"/>
<use xlink:href="#stroke1_8_1035" transform="matrix(0.00227135 0.00273366 0.00273366 -0.00227135 19.8698 63.7155)"/>
<use xlink:href="#stroke1_8_1035" transform="matrix(0.000102208 -0.00339804 -0.00339804 -0.000102208 21.3012 64.6304)"/>
<use xlink:href="#stroke1_8_1035" transform="matrix(-0.0023257 -0.00188251 -0.00188251 0.0023257 21.0341 64.4336)"/>
<use xlink:href="#stroke1_8_1035" transform="matrix(-0.00137221 0.00222546 0.00222546 0.00137221 20.7379 64.365)"/>
<use xlink:href="#stroke1_8_1035" transform="matrix(-0.00363543 -0.000522625 -0.000522625 0.00363543 21.2398 64.76)"/>
<path d="M19.8107 29.4944L25.4125 25.567C25.4125 25.567 28.4101 29.6667 25.3912 31.9522C22.1221 34.4271 19.8107 29.4944 19.8107 29.4944Z" fill="#E39C2A"/>
<path d="M17.4254 27.4324L24.4628 22.8052C24.4628 22.8052 22.5056 13.2083 17.8722 10.0526C14.481 7.74292 12.1177 4.88773 8.56728 6.9443C4.81417 9.11826 6.71589 12.5814 7.55411 16.8369C8.64705 22.3856 17.4254 27.4324 17.4254 27.4324Z" fill="#E39C2A"/>
<use xlink:href="#stroke2_8_1035" transform="matrix(-0.00217274 0.00164495 0.00164495 0.00217274 25.4544 25.0077)"/>
<use xlink:href="#stroke2_8_1035" transform="matrix(0.000213308 0.00334238 0.00334238 -0.000213308 24.4833 25.2306)"/>
<use xlink:href="#stroke2_8_1035" transform="matrix(-0.00351692 0.00197879 0.00197879 0.00351692 24.9179 25.2062)"/>
<use xlink:href="#stroke2_8_1035" transform="matrix(-0.000432247 0.00282532 0.00282532 0.000432247 24.0173 25.787)"/>
<use xlink:href="#stroke2_8_1035" transform="matrix(-0.002153 0.00296671 0.00296671 0.002153 23.9043 25.7186)"/>
<use xlink:href="#stroke2_8_1035" transform="matrix(0.00314898 -0.00171741 -0.00171741 -0.00314898 23.6493 27.5656)"/>
<use xlink:href="#stroke2_8_1035" transform="matrix(-0.00167483 -0.00232318 -0.00232318 0.00167483 24.0378 27.0606)"/>
<use xlink:href="#stroke2_8_1035" transform="matrix(-0.00326989 0.000396965 0.000396965 0.00326989 23.3883 26.4494)"/>
<use xlink:href="#stroke2_8_1035" transform="matrix(0.00389224 0.00100101 0.00100101 -0.00389224 22.0758 27.8871)"/>
<use xlink:href="#stroke2_8_1035" transform="matrix(-0.000584409 0.00297781 0.00297781 0.000584409 22.0425 27.1815)"/>
<use xlink:href="#stroke2_8_1035" transform="matrix(0.00278156 0.00105216 0.00105216 -0.00278156 21.4967 28.0411)"/>
<use xlink:href="#stroke2_8_1035" transform="matrix(0.00352831 -0.00133475 -0.00133475 -0.00352831 21.4345 28.7157)"/>
<use xlink:href="#stroke2_8_1035" transform="matrix(-0.000797212 0.00373139 0.00373139 0.000797212 20.9562 27.7435)"/>
<use xlink:href="#stroke2_8_1035" transform="matrix(0.0018989 0.0035548 0.0035548 -0.0018989 20.1349 28.3153)"/>
<use xlink:href="#stroke2_8_1035" transform="matrix(-0.000793588 -0.00328045 -0.00328045 0.000793588 21.2742 29.2)"/>
<use xlink:href="#stroke2_8_1035" transform="matrix(-0.00193216 0.00333156 0.00333156 0.00193216 20.1659 28.5321)"/>
<use xlink:href="#stroke2_8_1035" transform="matrix(0.00174785 0.00336118 0.00336118 -0.00174785 19.054 29.0282)"/>
<use xlink:href="#stroke2_8_1035" transform="matrix(-0.00307442 -0.00230502 -0.00230502 0.00307442 20.6113 29.6543)"/>
<use xlink:href="#stroke2_8_1035" transform="matrix(-0.00366304 0.000570195 0.000570195 0.00366304 20.524 29.5412)"/>
<use xlink:href="#stroke2_8_1035" transform="matrix(-0.00229242 0.00235866 0.00235866 0.00229242 20.4742 29.739)"/>
<use xlink:href="#stroke2_8_1035" transform="matrix(0.00185217 0.00222007 0.00222007 -0.00185217 20.0299 30.779)"/>
<use xlink:href="#stroke2_8_1035" transform="matrix(0.0037782 0.00091026 0.00091026 -0.0037782 20.3293 31.4828)"/>
<use xlink:href="#stroke2_8_1035" transform="matrix(-0.00157497 -0.00246574 -0.00246574 0.00157497 21.7551 31.4986)"/>
<use xlink:href="#stroke2_8_1035" transform="matrix(0.0031158 -0.0021843 -0.0021843 -0.0031158 21.1885 32.6542)"/>
<use xlink:href="#stroke2_8_1035" transform="matrix(-0.00176789 0.00334211 0.00334211 0.00176789 21.5793 31.1688)"/>
<use xlink:href="#stroke2_8_1035" transform="matrix(-0.000952214 -0.00262415 -0.00262415 0.000952214 22.7732 32.2085)"/>
<use xlink:href="#stroke2_8_1035" transform="matrix(-0.00128324 -0.00225475 -0.00225475 0.00128324 22.8621 32.584)"/>
<use xlink:href="#stroke2_8_1035" transform="matrix(0.00346521 0.000295478 0.000295478 -0.00346521 22.2712 32.8214)"/>
<use xlink:href="#stroke2_8_1035" transform="matrix(-0.00275643 -0.00211532 -0.00211532 0.00275643 23.8699 32.2525)"/>
<use xlink:href="#stroke2_8_1035" transform="matrix(-0.00106095 0.00312871 0.00312871 0.00106095 23.1946 32.0623)"/>
<use xlink:href="#stroke2_8_1035" transform="matrix(0.00190579 0.00200901 0.00200901 -0.00190579 23.3501 32.8089)"/>
<use xlink:href="#stroke2_8_1035" transform="matrix(0.00170736 0.0022493 0.0022493 -0.00170736 23.6088 32.3812)"/>
<use xlink:href="#stroke2_8_1035" transform="matrix(0.0001814 -0.00265771 -0.00265771 -0.0001814 25.002 33.041)"/>
<use xlink:href="#stroke2_8_1035" transform="matrix(-0.00214548 -0.00152427 -0.00152427 0.00214548 25.272 32.0425)"/>
<use xlink:href="#stroke2_8_1035" transform="matrix(0.00278787 -0.00181215 -0.00181215 -0.00278787 24.919 32.6411)"/>
<use xlink:href="#stroke2_8_1035" transform="matrix(-0.0037477 -1.51148e-05 -1.51148e-05 0.0037477 25.9539 31.2651)"/>
<use xlink:href="#stroke2_8_1035" transform="matrix(0.00286745 -0.00169488 -0.00169488 -0.00286745 25.7837 32.3964)"/>
<use xlink:href="#stroke2_8_1035" transform="matrix(-0.000337447 0.0030218 0.0030218 0.000337447 25.6944 30.911)"/>
<use xlink:href="#stroke2_8_1035" transform="matrix(0.00308571 0.00250918 0.00250918 -0.00308571 25.2667 30.9826)"/>
<use xlink:href="#stroke2_8_1035" transform="matrix(0.00259353 9.75028e-05 9.75028e-05 -0.00259353 26.2422 31.0758)"/>
<use xlink:href="#stroke2_8_1035" transform="matrix(0.00183136 -0.00342631 -0.00342631 -0.00183136 26.848 31.0021)"/>
<use xlink:href="#stroke2_8_1035" transform="matrix(-0.00375602 -0.00125765 -0.00125765 0.00375602 27.5487 29.4157)"/>
<use xlink:href="#stroke2_8_1035" transform="matrix(0.00266792 -0.00163046 -0.00163046 -0.00266792 26.3895 30.0079)"/>
<use xlink:href="#stroke2_8_1035" transform="matrix(0.00220151 0.00226435 0.00226435 -0.00220151 25.9404 29.045)"/>
<use xlink:href="#stroke2_8_1035" transform="matrix(0.00218099 -0.00275083 -0.00275083 -0.00218099 26.9712 29.2954)"/>
<use xlink:href="#stroke2_8_1035" transform="matrix(-0.00113194 -0.00284571 -0.00284571 0.00113194 27.2047 28.434)"/>
<use xlink:href="#stroke2_8_1035" transform="matrix(-0.00234203 -0.00125811 -0.00125811 0.00234203 26.8183 27.7628)"/>
<use xlink:href="#stroke2_8_1035" transform="matrix(-0.00192903 -0.00243164 -0.00243164 0.00192903 26.9719 27.6239)"/>
<use xlink:href="#stroke2_8_1035" transform="matrix(0.00150863 0.00319761 0.00319761 -0.00150863 25.4831 27.0272)"/>
<use xlink:href="#stroke2_8_1035" transform="matrix(-0.00225944 -0.00214521 -0.00214521 0.00225944 26.7105 26.7905)"/>
<use xlink:href="#stroke2_8_1035" transform="matrix(0.00332384 0.00173986 0.00173986 -0.00332384 25.2714 26.7041)"/>
<use xlink:href="#stroke2_8_1035" transform="matrix(0.00251592 -0.00236304 -0.00236304 -0.00251592 25.8531 26.73)"/>
<use xlink:href="#stroke2_8_1035" transform="matrix(0.000397317 0.00256493 0.00256493 -0.000397317 25.0876 25.4842)"/>
<use xlink:href="#stroke2_8_1035" transform="matrix(0.00252528 -0.00151079 -0.00151079 -0.00252528 25.302 26.1625)"/>
<use xlink:href="#stroke2_8_1035" transform="matrix(0.000134325 -0.00269939 -0.00269939 -0.000134325 24.8612 23.1933)"/>
<use xlink:href="#stroke2_8_1035" transform="matrix(0.00318371 -0.00137158 -0.00137158 -0.00318371 23.7909 23.471)"/>
<use xlink:href="#stroke2_8_1035" transform="matrix(-0.00277286 -0.000179278 -0.000179278 0.00277286 24.1263 22.6271)"/>
<use xlink:href="#stroke2_8_1035" transform="matrix(-0.000691691 -0.00307036 -0.00307036 0.000691691 24.0906 23.6855)"/>
<use xlink:href="#stroke2_8_1035" transform="matrix(-0.0030919 0.00101179 0.00101179 0.0030919 23.5624 23.1153)"/>
<use xlink:href="#stroke2_8_1035" transform="matrix(0.00192066 -0.00276975 -0.00276975 -0.00192066 23.1056 24.581)"/>
<use xlink:href="#stroke2_8_1035" transform="matrix(-0.00133732 -0.00322082 -0.00322082 0.00133732 23.3684 24.5063)"/>
<use xlink:href="#stroke2_8_1035" transform="matrix(-0.00301073 0.000684516 0.000684516 0.00301073 22.437 23.5871)"/>
<use xlink:href="#stroke2_8_1035" transform="matrix(-0.0015526 -0.00330631 -0.00330631 0.0015526 22.6003 24.7034)"/>
<use xlink:href="#stroke2_8_1035" transform="matrix(-0.00395365 -0.000665661 -0.000665661 0.00395365 22.0382 24.0766)"/>
<use xlink:href="#stroke2_8_1035" transform="matrix(-0.00156815 0.00371417 0.00371417 0.00156815 20.877 24.4812)"/>
<use xlink:href="#stroke2_8_1035" transform="matrix(0.00300164 -0.000514976 -0.000514976 -0.00300164 20.3931 25.751)"/>
<use xlink:href="#stroke2_8_1035" transform="matrix(0.00291738 -7.91643e-06 -7.91643e-06 -0.00291738 20.1337 26.0261)"/>
<use xlink:href="#stroke2_8_1035" transform="matrix(-0.000628876 0.00278901 0.00278901 0.000628876 19.9248 25.3324)"/>
<use xlink:href="#stroke2_8_1035" transform="matrix(0.00244932 -0.00242979 -0.00242979 -0.00244932 19.9399 26.6407)"/>
<use xlink:href="#stroke2_8_1035" transform="matrix(0.00248062 -0.00268694 -0.00268694 -0.00248062 19.5031 26.7371)"/>
<use xlink:href="#stroke2_8_1035" transform="matrix(0.000415956 0.00310316 0.00310316 -0.000415956 18.6814 26.0525)"/>
<use xlink:href="#stroke2_8_1035" transform="matrix(-0.00197024 -0.00233801 -0.00233801 0.00197024 19.4948 26.5649)"/>
<use xlink:href="#stroke2_8_1035" transform="matrix(-0.000637956 -0.00283681 -0.00283681 0.000637956 19.1418 27.1106)"/>
<use xlink:href="#stroke2_8_1035" transform="matrix(-0.00256155 0.00192123 0.00192123 0.00256155 18.3192 26.2998)"/>
<use xlink:href="#stroke2_8_1035" transform="matrix(-0.00287243 7.23307e-05 7.23307e-05 0.00287243 18.3993 26.7891)"/>
<use xlink:href="#stroke2_8_1035" transform="matrix(-0.00137887 0.00233143 0.00233143 0.00137887 17.5743 26.9055)"/>
<use xlink:href="#stroke2_8_1035" transform="matrix(-0.00196466 -0.00191083 -0.00191083 0.00196466 17.922 27.3955)"/>
<use xlink:href="#stroke2_8_1035" transform="matrix(0.000634437 0.00273964 0.00273964 -0.000634437 16.5332 27.0406)"/>
<use xlink:href="#stroke2_8_1035" transform="matrix(0.000132103 -0.0031185 -0.0031185 -0.000132103 17.3383 27.3557)"/>
<use xlink:href="#stroke2_8_1035" transform="matrix(0.00274609 0.000556928 0.000556928 -0.00274609 15.9453 27.3381)"/>
<use xlink:href="#stroke2_8_1035" transform="matrix(-0.00352096 -0.00147146 -0.00147146 0.00352096 16.7639 26.4497)"/>
<use xlink:href="#stroke2_8_1035" transform="matrix(-0.00231534 -0.00197939 -0.00197939 0.00231534 16.4917 26.2422)"/>
<use xlink:href="#stroke2_8_1035" transform="matrix(-0.00272724 -0.00115205 -0.00115205 0.00272724 15.936 26.1357)"/>
<use xlink:href="#stroke2_8_1035" transform="matrix(0.00109687 -0.00362569 -0.00362569 -0.00109687 15.6878 26.5126)"/>
<use xlink:href="#stroke2_8_1035" transform="matrix(0.00306004 -0.00127201 -0.00127201 -0.00306004 14.5358 26.4922)"/>
<use xlink:href="#stroke2_8_1035" transform="matrix(0.00291729 -0.00278539 -0.00278539 -0.00291729 14.602 26.1854)"/>
<use xlink:href="#stroke2_8_1035" transform="matrix(-0.00314169 0.000208426 0.000208426 0.00314169 14.5987 24.6137)"/>
<use xlink:href="#stroke2_8_1035" transform="matrix(-0.00355942 -0.00153469 -0.00153469 0.00355942 14.6682 24.4332)"/>
<use xlink:href="#stroke2_8_1035" transform="matrix(-0.00310071 0.000492482 0.000492482 0.00310071 13.8264 24.1445)"/>
<use xlink:href="#stroke2_8_1035" transform="matrix(-0.000570847 -0.00342424 -0.00342424 0.000570847 13.6487 24.9775)"/>
<use xlink:href="#stroke2_8_1035" transform="matrix(-0.00310484 -0.000526473 -0.000526473 0.00310484 13.5074 23.6163)"/>
<use xlink:href="#stroke2_8_1035" transform="matrix(-0.00297457 -0.000390843 -0.000390843 0.00297457 13.0735 23.5175)"/>
<use xlink:href="#stroke2_8_1035" transform="matrix(-0.00244741 0.00283106 0.00283106 0.00244741 12.1692 22.9303)"/>
<use xlink:href="#stroke2_8_1035" transform="matrix(-0.00155986 -0.00222984 -0.00222984 0.00155986 12.6346 23.3939)"/>
<use xlink:href="#stroke2_8_1035" transform="matrix(3.25253e-05 0.00384644 0.00384644 -3.25253e-05 11.0943 22.652)"/>
<use xlink:href="#stroke2_8_1035" transform="matrix(0.00168825 -0.00269035 -0.00269035 -0.00168825 11.4934 23.5891)"/>
<use xlink:href="#stroke2_8_1035" transform="matrix(0.00242907 -0.00141828 -0.00141828 -0.00242907 10.9064 23.3095)"/>
<use xlink:href="#stroke2_8_1035" transform="matrix(-0.00285359 0.000540198 0.000540198 0.00285359 11.2651 21.803)"/>
<use xlink:href="#stroke2_8_1035" transform="matrix(0.00291046 -0.000796863 -0.000796863 -0.00291046 10.5277 22.5392)"/>
<use xlink:href="#stroke2_8_1035" transform="matrix(-0.0013438 0.00359685 0.00359685 0.0013438 10.1366 21)"/>
<use xlink:href="#stroke2_8_1035" transform="matrix(-0.00279255 -0.000254711 -0.000254711 0.00279255 10.5737 21.0857)"/>
<use xlink:href="#stroke2_8_1035" transform="matrix(-0.00283957 0.00281427 0.00281427 0.00283957 9.79988 20.3869)"/>
<use xlink:href="#stroke2_8_1035" transform="matrix(0.00250868 0.0022096 0.0022096 -0.00250868 8.86044 20.9751)"/>
<use xlink:href="#stroke2_8_1035" transform="matrix(-0.00329968 0.00200434 0.00200434 0.00329968 9.62197 19.6128)"/>
<use xlink:href="#stroke2_8_1035" transform="matrix(-0.000726942 -0.002623 -0.002623 0.000726942 9.76538 20.3199)"/>
<use xlink:href="#stroke2_8_1035" transform="matrix(-0.00139881 -0.00264451 -0.00264451 0.00139881 9.49105 20.0596)"/>
<use xlink:href="#stroke2_8_1035" transform="matrix(0.00302863 0.000771218 0.000771218 -0.00302863 8.05802 20.0336)"/>
<use xlink:href="#stroke2_8_1035" transform="matrix(0.000542649 -0.00312961 -0.00312961 -0.000542649 8.86955 19.8153)"/>
<use xlink:href="#stroke2_8_1035" transform="matrix(0.000959916 -0.00374569 -0.00374569 -0.000959916 8.90547 19.4879)"/>
<use xlink:href="#stroke2_8_1035" transform="matrix(-2.85675e-05 0.00277061 0.00277061 2.85675e-05 7.78754 18.1319)"/>
<use xlink:href="#stroke2_8_1035" transform="matrix(0.00253464 -0.000959027 -0.000959027 -0.00253464 7.66067 18.8321)"/>
<use xlink:href="#stroke2_8_1035" transform="matrix(0.000834138 -0.00350559 -0.00350559 -0.000834138 8.48984 18.4313)"/>
<use xlink:href="#stroke2_8_1035" transform="matrix(0.00203512 0.00201335 0.00201335 -0.00203512 6.99647 17.6198)"/>
<use xlink:href="#stroke2_8_1035" transform="matrix(-0.00263325 -0.000499919 -0.000499919 0.00263325 8.23979 16.8339)"/>
<use xlink:href="#stroke2_8_1035" transform="matrix(0.00236107 -0.00193108 -0.00193108 -0.00236107 7.7125 17.4729)"/>
<use xlink:href="#stroke2_8_1035" transform="matrix(0.00100041 -0.00326942 -0.00326942 -0.00100041 7.80273 17.1116)"/>
<use xlink:href="#stroke2_8_1035" transform="matrix(-0.000214345 -0.00332933 -0.00332933 0.000214345 7.97999 16.5176)"/>
<use xlink:href="#stroke2_8_1035" transform="matrix(0.0025269 0.00248249 0.00248249 -0.0025269 6.53668 15.767)"/>
<use xlink:href="#stroke2_8_1035" transform="matrix(0.00188568 -0.00194702 -0.00194702 -0.00188568 7.07135 15.9436)"/>
<use xlink:href="#stroke2_8_1035" transform="matrix(-0.00245026 0.00110506 0.00110506 0.00245026 7.19928 14.5241)"/>
<use xlink:href="#stroke2_8_1035" transform="matrix(-0.00193561 0.00352669 0.00352669 0.00193561 6.56432 13.9081)"/>
<use xlink:href="#stroke2_8_1035" transform="matrix(0.00334704 -0.000983162 -0.000983162 -0.00334704 6.55656 14.8696)"/>
<use xlink:href="#stroke2_8_1035" transform="matrix(-0.00182155 -0.00243418 -0.00243418 0.00182155 7.56599 13.8458)"/>
<use xlink:href="#stroke2_8_1035" transform="matrix(-0.00337952 0.00150124 0.00150124 0.00337952 6.95638 12.707)"/>
<use xlink:href="#stroke2_8_1035" transform="matrix(0.000498341 -0.00257653 -0.00257653 -0.000498341 7.14782 13.4517)"/>
<use xlink:href="#stroke2_8_1035" transform="matrix(-0.00327921 -0.000420266 -0.000420266 0.00327921 7.25713 12.23)"/>
<use xlink:href="#stroke2_8_1035" transform="matrix(0.000758911 0.00249582 0.00249582 -0.000758911 6.22998 12.1045)"/>
<use xlink:href="#stroke2_8_1035" transform="matrix(-0.00190449 0.00177556 0.00177556 0.00190449 6.50467 11.5132)"/>
<use xlink:href="#stroke2_8_1035" transform="matrix(0.00273042 0.00173759 0.00173759 -0.00273042 5.54212 11.9286)"/>
<use xlink:href="#stroke2_8_1035" transform="matrix(0.0017142 -0.00250062 -0.00250062 -0.0017142 6.6641 11.9309)"/>
<use xlink:href="#stroke2_8_1035" transform="matrix(0.00128391 -0.00235763 -0.00235763 -0.00128391 6.67837 11.5102)"/>
<use xlink:href="#stroke2_8_1035" transform="matrix(-0.000752216 0.00322069 0.00322069 0.000752216 6.0815 10.0865)"/>
<use xlink:href="#stroke2_8_1035" transform="matrix(-0.00205543 -0.00195487 -0.00195487 0.00205543 7.08363 10.2334)"/>
<use xlink:href="#stroke2_8_1035" transform="matrix(-7.85549e-05 0.00390905 0.00390905 7.85549e-05 5.63528 9.30347)"/>
<use xlink:href="#stroke2_8_1035" transform="matrix(-0.00166291 0.00327153 0.00327153 0.00166291 6.22937 8.7347)"/>
<use xlink:href="#stroke2_8_1035" transform="matrix(-0.000384858 0.00400028 0.00400028 0.000384858 5.88735 8.31744)"/>
<use xlink:href="#stroke2_8_1035" transform="matrix(0.00327921 -0.00188689 -0.00188689 -0.00327921 6.55461 9.26617)"/>
<use xlink:href="#stroke2_8_1035" transform="matrix(0.00236273 0.00267378 0.00267378 -0.00236273 6.29851 8.17718)"/>
<use xlink:href="#stroke2_8_1035" transform="matrix(-0.00326548 -0.000676591 -0.000676591 0.00326548 7.90467 7.49392)"/>
<use xlink:href="#stroke2_8_1035" transform="matrix(0.00184041 -0.00197655 -0.00197655 -0.00184041 7.58623 8.1175)"/>
<use xlink:href="#stroke2_8_1035" transform="matrix(-0.00159859 0.00254947 0.00254947 0.00159859 7.80642 6.98036)"/>
<use xlink:href="#stroke2_8_1035" transform="matrix(0.00264353 -0.000554211 -0.000554211 -0.00264353 7.74851 7.53662)"/>
<use xlink:href="#stroke2_8_1035" transform="matrix(0.00260069 5.67015e-05 5.67015e-05 -0.00260069 8.06004 7.47255)"/>
<use xlink:href="#stroke2_8_1035" transform="matrix(0.00181296 0.0023308 0.0023308 -0.00181296 8.05127 6.77227)"/>
<use xlink:href="#stroke2_8_1035" transform="matrix(-0.00241917 0.0025124 0.0025124 0.00241917 9.04065 6.11585)"/>
<use xlink:href="#stroke2_8_1035" transform="matrix(0.00139699 -0.00369936 -0.00369936 -0.00139699 9.82894 7.24891)"/>
<use xlink:href="#stroke2_8_1035" transform="matrix(0.00325613 -0.00150142 -0.00150142 -0.00325613 9.67099 7.12192)"/>
<use xlink:href="#stroke2_8_1035" transform="matrix(0.00298901 -0.0004326 -0.0004326 -0.00298901 9.91272 6.77275)"/>
<use xlink:href="#stroke2_8_1035" transform="matrix(0.00331852 -0.000610291 -0.000610291 -0.00331852 10.2884 6.91182)"/>
<use xlink:href="#stroke2_8_1035" transform="matrix(-0.00362212 -0.000651776 -0.000651776 0.00362212 11.6581 5.6634)"/>
<use xlink:href="#stroke2_8_1035" transform="matrix(0.00241154 -0.00245149 -0.00245149 -0.00241154 11.5203 7.10833)"/>
<use xlink:href="#stroke2_8_1035" transform="matrix(0.00159253 -0.00214576 -0.00214576 -0.00159253 11.9796 6.78768)"/>
<use xlink:href="#stroke2_8_1035" transform="matrix(-0.00154418 -0.00243698 -0.00243698 0.00154418 12.8087 6.32593)"/>
<use xlink:href="#stroke2_8_1035" transform="matrix(-0.00381647 0.000729463 0.000729463 0.00381647 12.8974 6.02521)"/>
<use xlink:href="#stroke2_8_1035" transform="matrix(0.00101649 -0.00287411 -0.00287411 -0.00101649 13.3213 7.07445)"/>
<use xlink:href="#stroke2_8_1035" transform="matrix(-0.00167415 -0.00238572 -0.00238572 0.00167415 13.8882 6.85811)"/>
<use xlink:href="#stroke2_8_1035" transform="matrix(-0.00257374 0.00109373 0.00109373 0.00257374 13.7643 6.43203)"/>
<use xlink:href="#stroke2_8_1035" transform="matrix(0.00054685 -0.00362137 -0.00362137 -0.00054685 14.4549 7.66436)"/>
<use xlink:href="#stroke2_8_1035" transform="matrix(0.00260461 0.00218331 0.00218331 -0.00260461 13.6474 7.40882)"/>
<use xlink:href="#stroke2_8_1035" transform="matrix(0.00031284 -0.003046 -0.003046 -0.00031284 15.0127 8.09856)"/>
<use xlink:href="#stroke2_8_1035" transform="matrix(6.60581e-05 0.00382165 0.00382165 -6.60581e-05 14.2144 7.51697)"/>
<use xlink:href="#stroke2_8_1035" transform="matrix(0.00297355 0.000646464 0.000646464 -0.00297355 14.5976 8.69507)"/>
<use xlink:href="#stroke2_8_1035" transform="matrix(0.00312394 -0.000559781 -0.000559781 -0.00312394 15.1463 8.98834)"/>
<use xlink:href="#stroke2_8_1035" transform="matrix(0.00370447 4.7068e-05 4.7068e-05 -0.00370447 15.3712 9.15109)"/>
<use xlink:href="#stroke2_8_1035" transform="matrix(0.00320835 -0.000464367 -0.000464367 -0.00320835 15.9795 9.2224)"/>
<use xlink:href="#stroke2_8_1035" transform="matrix(-0.00356216 -0.00140601 -0.00140601 0.00356216 17.1277 8.90287)"/>
<use xlink:href="#stroke2_8_1035" transform="matrix(-0.00148065 0.00226949 0.00226949 0.00148065 16.8362 8.62794)"/>
<use xlink:href="#stroke2_8_1035" transform="matrix(0.00170539 0.00318651 0.00318651 -0.00170539 16.4239 9.41264)"/>
<use xlink:href="#stroke2_8_1035" transform="matrix(0.00102219 -0.00319055 -0.00319055 -0.00102219 17.9105 10.3195)"/>
<use xlink:href="#stroke2_8_1035" transform="matrix(0.00348409 -0.00108294 -0.00108294 -0.00348409 17.4302 10.8901)"/>
<use xlink:href="#stroke2_8_1035" transform="matrix(0.00116511 -0.00250809 -0.00250809 -0.00116511 18.5044 10.633)"/>
<use xlink:href="#stroke2_8_1035" transform="matrix(-0.00159724 -0.00353551 -0.00353551 0.00159724 19.3844 10.5685)"/>
<use xlink:href="#stroke2_8_1035" transform="matrix(-0.0028886 0.00181798 0.00181798 0.0028886 18.802 10.2253)"/>
<use xlink:href="#stroke2_8_1035" transform="matrix(-1.0437e-06 0.00363083 0.00363083 1.0437e-06 18.3626 10.7771)"/>
<use xlink:href="#stroke2_8_1035" transform="matrix(-0.00134725 -0.00372745 -0.00372745 0.00134725 20.1263 11.7668)"/>
<use xlink:href="#stroke2_8_1035" transform="matrix(-0.00307723 -0.00250063 -0.00250063 0.00307723 20.5299 11.6496)"/>
<use xlink:href="#stroke2_8_1035" transform="matrix(0.00250726 0.000675826 0.000675826 -0.00250726 19.4137 12.4726)"/>
<use xlink:href="#stroke2_8_1035" transform="matrix(0.00190813 -0.00228452 -0.00228452 -0.00190813 20.1091 13.0784)"/>
<use xlink:href="#stroke2_8_1035" transform="matrix(-0.00069626 -0.00300644 -0.00300644 0.00069626 20.816 13.0428)"/>
<use xlink:href="#stroke2_8_1035" transform="matrix(-0.00175825 -0.00300326 -0.00300326 0.00175825 21.2798 13.1343)"/>
<use xlink:href="#stroke2_8_1035" transform="matrix(0.00258711 0.00120375 0.00120375 -0.00258711 20.3619 13.4768)"/>
<use xlink:href="#stroke2_8_1035" transform="matrix(-0.00257702 -0.00143178 -0.00143178 0.00257702 21.5052 13.426)"/>
<use xlink:href="#stroke2_8_1035" transform="matrix(-0.00280715 -0.00194303 -0.00194303 0.00280715 22.0244 13.6633)"/>
<use xlink:href="#stroke2_8_1035" transform="matrix(-0.0021794 0.00264104 0.00264104 0.0021794 21.1237 13.6665)"/>
<use xlink:href="#stroke2_8_1035" transform="matrix(-0.0019418 -0.0018994 -0.0018994 0.0019418 21.9791 14.6354)"/>
<use xlink:href="#stroke2_8_1035" transform="matrix(-0.00368937 0.00123433 0.00123433 0.00368937 22.2121 14.1375)"/>
<use xlink:href="#stroke2_8_1035" transform="matrix(0.00208459 0.00221668 0.00221668 -0.00208459 21.0653 15.4612)"/>
<use xlink:href="#stroke2_8_1035" transform="matrix(0.000171513 -0.0033318 -0.0033318 -0.000171513 22.4551 16.2116)"/>
<use xlink:href="#stroke2_8_1035" transform="matrix(0.000792132 0.00372751 0.00372751 -0.000792132 21.7111 15.6205)"/>
<use xlink:href="#stroke2_8_1035" transform="matrix(-0.00132215 0.00239915 0.00239915 0.00132215 22.2238 15.896)"/>
<use xlink:href="#stroke2_8_1035" transform="matrix(0.00318163 -0.000592719 -0.000592719 -0.00318163 22.2123 17.3283)"/>
<use xlink:href="#stroke2_8_1035" transform="matrix(-0.00296091 0.000286815 0.000286815 0.00296091 22.9899 16.6291)"/>
<use xlink:href="#stroke2_8_1035" transform="matrix(0.000173518 0.00267887 0.00267887 -0.000173518 22.4807 17.0399)"/>
<use xlink:href="#stroke2_8_1035" transform="matrix(0.00276932 -0.000275692 -0.000275692 -0.00276932 22.7786 18.1197)"/>
<use xlink:href="#stroke2_8_1035" transform="matrix(0.00279371 0.00264199 0.00264199 -0.00279371 22.4221 18.1149)"/>
<use xlink:href="#stroke2_8_1035" transform="matrix(-0.00150718 -0.00375752 -0.00375752 0.00150718 24.0881 18.7933)"/>
<use xlink:href="#stroke2_8_1035" transform="matrix(0.00280618 -0.0016097 -0.0016097 -0.00280618 23.4145 19.5463)"/>
<use xlink:href="#stroke2_8_1035" transform="matrix(0.00107068 0.00288628 0.00288628 -0.00107068 23.1011 19.0191)"/>
<use xlink:href="#stroke2_8_1035" transform="matrix(0.00252421 -0.00216488 -0.00216488 -0.00252421 23.6006 20.3601)"/>
<use xlink:href="#stroke2_8_1035" transform="matrix(-0.00172137 -0.00324456 -0.00324456 0.00172137 24.5038 20.2403)"/>
<use xlink:href="#stroke2_8_1035" transform="matrix(-0.00123545 -0.00231463 -0.00231463 0.00123545 24.1377 20.6288)"/>
<use xlink:href="#stroke2_8_1035" transform="matrix(0.00383758 0.000223607 0.000223607 -0.00383758 23.3156 21.3939)"/>
<use xlink:href="#stroke2_8_1035" transform="matrix(0.00204868 -0.00181758 -0.00181758 -0.00204868 23.8768 21.8025)"/>
<use xlink:href="#stroke2_8_1035" transform="matrix(-0.00215543 0.00207848 0.00207848 0.00215543 24.147 20.8986)"/>
<use xlink:href="#stroke2_8_1035" transform="matrix(-0.00257673 -0.000447588 -0.000447588 0.00257673 24.8793 21.452)"/>
<use xlink:href="#stroke2_8_1035" transform="matrix(-0.00138692 -0.00262313 -0.00262313 0.00138692 25.0309 22.2806)"/>
<use xlink:href="#stroke2_8_1035" transform="matrix(0.00124468 0.00238536 0.00238536 -0.00124468 23.7365 22.3969)"/>
<use xlink:href="#stroke2_8_1035" transform="matrix(-0.00187295 -0.00308242 -0.00308242 0.00187295 25.1935 22.9356)"/>
<defs>
<g id="stroke0_8_1035" data-figma-scatter-ref="stroke0_8_1035_ref" data-figma-scatter="f0.44_w0.26_aj180_sj0.25_r0_s3464792709648091013_sw1">
<path d="M103.731 283.547C110.352 281.363 112.807 281.348 116.121 283.468C130.109 292.418 124.85 308.718 107.972 308.727C90.3768 308.737 87.0606 289.046 103.731 283.547ZM139.837 35.4146C140.937 35.1787 142.512 35.114 143.337 35.271C144.162 35.4281 146.516 35.8391 148.567 36.1851C155.802 37.4051 160.179 46.6969 156.734 53.5249C152.924 61.0769 144.715 67.5811 140.859 66.1021C135.872 64.1881 137.625 69.8792 144.066 76.5152C148.306 80.8841 150.337 81.2685 150.337 77.7066C150.337 76.6574 151.622 74.3218 153.193 72.5161C154.823 70.6412 156.597 66.9201 157.324 63.8501C158.925 57.0892 160.788 55.2289 167.369 53.8169C177.32 51.6829 185.581 56.9263 183.752 64.2153C183.293 66.0423 183.901 67.6656 186.09 70.4585C196.859 84.1975 193.875 104.273 180.596 107.418C177.049 108.258 176.832 108.532 176.773 112.27C176.739 114.448 176.365 116.987 175.943 117.912C175.255 119.417 175.946 119.564 182.506 119.31C190.415 119.003 192.674 119.705 195.953 123.487C199.054 127.064 201.598 126.114 202.609 121.002C203.503 116.483 209.096 110.731 212.596 110.731C214.841 110.731 215.934 108.156 214.449 106.367C206.1 96.3056 222.234 73.6632 235.605 76.6792C241.572 78.0252 246.302 83.6302 246.367 89.4312C246.384 90.9712 247.505 94.4811 248.858 97.231C255.362 110.453 243.304 126.225 232.777 118.263C229.924 116.105 229.837 116.226 229.837 122.341C229.837 128.93 225.932 133.292 219.049 134.393C216.068 134.87 214.933 135.67 213.775 138.116C212.964 139.829 211.55 142.415 210.63 143.863C208.984 146.456 209.02 146.565 213.147 151.254C215.451 153.871 217.337 156.555 217.337 157.218C217.337 157.882 218.074 159.901 218.974 161.706C222.148 168.067 221.073 181.731 217.4 181.731C217.052 181.731 215.97 183.081 214.995 184.731C214.02 186.381 212.573 187.731 211.779 187.731C209.595 187.731 210.044 189.817 212.863 192.76C216.384 196.435 217.425 204.867 214.728 207.858C209.503 213.649 203.05 218.01 198.064 219.122C193.944 220.041 192.83 220.705 192.804 222.259C192.669 230.389 188.242 235.387 179.682 237.077C172.845 238.427 172.072 240.31 177.577 242.203C190.358 246.597 192.892 257.693 182.442 263.506C176.521 266.799 172.426 266.758 167.515 263.354C163.894 260.845 163.161 260.686 159.679 261.653C153.737 263.303 147.363 262.934 141.337 260.593C135.874 258.47 130.724 257.068 124.689 256.061C118.715 255.064 115.151 249.943 114.592 241.551C114.184 235.417 113.671 233.745 111.425 231.231C109.951 229.581 107.986 226.544 107.058 224.481C105.42 220.844 105.211 220.731 100.164 220.731C93.7935 220.731 89.0798 217.922 86.2168 212.42C83.0468 206.327 78.9427 207.336 78.8477 214.231C78.8097 216.981 78.4233 220.817 77.9883 222.755C77.2354 226.113 77.3507 226.324 80.4366 227.255C90.5004 230.29 90.3981 247.946 80.2881 252.934C55.9904 264.92 26.2411 240.473 47.875 226.298C49.556 225.196 50.1805 223.494 50.6895 218.626C51.0495 215.185 52.1298 211.262 53.0908 209.91C54.0507 208.557 55.2736 206.856 55.8086 206.127C56.5016 205.184 56.0161 204.003 54.1221 202.017C50.6273 198.355 49.3112 194.657 49.9981 190.428C50.3281 188.392 50.1033 186.705 49.4463 186.299C48.8364 185.922 48.337 184.345 48.3369 182.794C48.3369 181.244 47.6012 179.366 46.7032 178.621C43.9996 176.376 34.3369 162.856 34.3369 161.317C34.3368 160.529 32.7627 157.822 30.8389 155.302C28.915 152.781 27.3998 150.384 27.4727 149.975C28.4457 144.478 24.6467 141.425 20.4727 144.348C18.2547 145.902 11.2222 145.776 6.86624 144.104C-3.23648 140.227 -1.78745 115.126 8.56839 114.62C14.8594 114.313 23.3369 117.551 23.3369 120.261C23.3372 122.018 26.1103 124.731 27.9073 124.731C28.6933 124.731 29.3369 124.041 29.3369 123.198C29.3372 109.814 50.1851 94.3087 69.8369 93.0767C82.9305 92.2547 88.2617 93.4969 97.1895 99.4468C101.45 102.287 108.337 96.8837 108.337 90.7007C108.337 88.6598 109.172 86.4706 110.483 85.0747C112.734 82.6789 111.804 79.7313 108.796 79.731C106.403 79.731 103.556 73.5422 104.077 69.4702C105.046 61.8843 117.633 57.7673 123.289 63.1861C125.639 65.4379 126.708 65.8083 129.245 65.2515C133.054 64.4145 133.128 63.4739 129.587 60.895C121.36 54.902 128.195 37.9086 139.837 35.4146ZM227.337 203.429C239.094 199.654 252.722 207.291 252.722 217.653C252.722 228.495 231.921 239.44 223.927 232.806C221.665 230.929 220.403 232.363 221.012 236.118C222.097 242.802 213.511 254.731 207.616 254.731C194.246 254.731 188.8 246.232 194.457 234.198C198.202 226.231 204.453 223.784 213.238 226.847C217.536 228.345 217.88 227.687 215.921 221.697C213.052 212.925 216.89 206.783 227.337 203.429ZM179.7 192.695C179.049 192.044 178.051 192.413 176.774 193.779C168.37 202.768 165.063 203.713 156.506 199.571C149.746 196.298 146.45 201.459 151.961 206.689C154.209 208.822 154.482 209.744 154.038 213.682C153.54 218.098 153.664 218.344 158.682 222.967C163.836 227.716 163.837 227.716 164.351 222.867C164.987 216.872 169.522 209.969 174.077 208.066C177.094 206.805 177.337 206.359 177.337 202.046C177.337 199.092 177.95 196.711 179.013 195.536C180.117 194.315 180.352 193.347 179.7 192.695ZM13.7354 183.697C21.2304 180.362 25.9355 181.225 32.1055 187.066C40.5644 195.074 37.0287 205.612 24.6309 209.343C9.40689 213.925 -0.704596 190.124 13.7354 183.697ZM252.956 148.251C262.129 145.732 267.81 147.203 270.983 152.921C277.397 164.478 257.352 180.919 247.179 172.445C237.093 164.044 240.016 151.805 252.956 148.251ZM175.822 162.709C174.842 161.123 172.482 161.589 171.417 163.579C170.283 165.699 171.384 170.913 173.086 171.481C174.366 171.905 176.761 164.229 175.822 162.709ZM150.152 111.481C150.492 108.526 149.534 108.177 145.513 109.79C142.108 111.155 143.035 114.231 146.851 114.231C149.365 114.231 149.886 113.796 150.152 111.481ZM156.837 98.731C156.012 98.731 155.337 99.406 155.337 100.231C155.337 101.056 156.012 101.731 156.837 101.731C157.662 101.731 158.337 101.056 158.337 100.231C158.337 99.4061 157.662 98.7312 156.837 98.731ZM131.337 85.6382C131.337 82.8002 129.491 81.4004 127.429 82.6743C126.501 83.2473 126.685 84.2905 128.185 86.9605C129.273 88.9003 130.316 91.46 130.5 92.6489C130.685 93.8379 131.287 94.905 131.837 95.021C133.25 95.317 133.729 90.7224 132.422 89.4155C131.825 88.8185 131.337 87.1191 131.337 85.6382ZM79.8369 36.9214C89.8819 31.2487 102.893 46.8492 95.6582 55.8921C92.2024 60.211 91.2042 63.981 91.8701 70.1997C92.5322 76.3837 92.4821 76.5638 89.0371 80.3628C76.0391 94.6997 55.1533 78.5005 64.8242 61.5825C66.3391 58.9327 67.3172 55.6452 67.3242 53.1753C67.3402 47.7053 72.4159 41.1124 79.8369 36.9214ZM120.896 78.731C120.653 78.731 120.177 79.1811 119.837 79.731C119.497 80.2809 119.695 80.7309 120.277 80.731C120.859 80.731 121.337 80.281 121.337 79.731C121.337 79.181 121.139 78.731 120.896 78.731ZM205.485 39.4898C219.631 37.0418 227.598 50.9151 220.597 65.8081C213.393 81.13 190.339 77.7861 190.091 61.3823C189.98 54.0764 199.509 40.5238 205.485 39.4898ZM51.8369 14.5542C64.4449 5.86451 75.68 19.3671 68.6241 34.731C62.385 48.3167 41.3372 43.775 41.3369 28.8423C41.3369 26.0333 47.6529 17.4382 51.8369 14.5542ZM108.212 2.17043C121.43 -6.81137 141.546 14.0924 133.237 28.1743C132.084 30.1297 130.819 31.7302 130.427 31.731C130.035 31.731 128.813 32.5703 127.713 33.5962C119.456 41.2872 107.786 35.7761 103.367 22.0991C100.152 12.1461 101.463 6.75643 108.212 2.17043Z" fill="#E39C2A"/>
</g>
<path id="stroke0_8_1035_ref" d="M61.2496 72.4658L55.601 76.371C55.601 76.371 59.4575 81.205 62.4258 78.2659C64.3381 76.3723 61.2496 72.4658 61.2496 72.4658ZM59.7967 69.7851L53.6052 73.7236C53.6052 73.7236 44.1652 70.0608 42.2466 64.7409C40.7752 60.6609 38.306 59.2234 41.6876 56.5075C44.8866 53.9382 47.6541 56.4036 51.3553 58.1744C56.4123 60.5939 59.7967 69.7851 59.7967 69.7851Z"/>
<g id="stroke1_8_1035" data-figma-scatter-ref="stroke1_8_1035_ref" data-figma-scatter="f0.44_w0.26_aj180_sj0.25_r0_s11003941653296913374_sw1">
<path d="M103.731 283.547C110.352 281.363 112.807 281.348 116.121 283.468C130.109 292.418 124.85 308.718 107.972 308.727C90.3768 308.737 87.0606 289.046 103.731 283.547ZM139.837 35.4146C140.937 35.1787 142.512 35.114 143.337 35.271C144.162 35.4281 146.516 35.8391 148.567 36.1851C155.802 37.4051 160.179 46.6969 156.734 53.5249C152.924 61.0769 144.715 67.5811 140.859 66.1021C135.872 64.1881 137.625 69.8792 144.066 76.5152C148.306 80.8841 150.337 81.2685 150.337 77.7066C150.337 76.6574 151.622 74.3218 153.193 72.5161C154.823 70.6412 156.597 66.9201 157.324 63.8501C158.925 57.0892 160.788 55.2289 167.369 53.8169C177.32 51.6829 185.581 56.9263 183.752 64.2153C183.293 66.0423 183.901 67.6656 186.09 70.4585C196.859 84.1975 193.875 104.273 180.596 107.418C177.049 108.258 176.832 108.532 176.773 112.27C176.739 114.448 176.365 116.987 175.943 117.912C175.255 119.417 175.946 119.564 182.506 119.31C190.415 119.003 192.674 119.705 195.953 123.487C199.054 127.064 201.598 126.114 202.609 121.002C203.503 116.483 209.096 110.731 212.596 110.731C214.841 110.731 215.934 108.156 214.449 106.367C206.1 96.3056 222.234 73.6632 235.605 76.6792C241.572 78.0252 246.302 83.6302 246.367 89.4312C246.384 90.9712 247.505 94.4811 248.858 97.231C255.362 110.453 243.304 126.225 232.777 118.263C229.924 116.105 229.837 116.226 229.837 122.341C229.837 128.93 225.932 133.292 219.049 134.393C216.068 134.87 214.933 135.67 213.775 138.116C212.964 139.829 211.55 142.415 210.63 143.863C208.984 146.456 209.02 146.565 213.147 151.254C215.451 153.871 217.337 156.555 217.337 157.218C217.337 157.882 218.074 159.901 218.974 161.706C222.148 168.067 221.073 181.731 217.4 181.731C217.052 181.731 215.97 183.081 214.995 184.731C214.02 186.381 212.573 187.731 211.779 187.731C209.595 187.731 210.044 189.817 212.863 192.76C216.384 196.435 217.425 204.867 214.728 207.858C209.503 213.649 203.05 218.01 198.064 219.122C193.944 220.041 192.83 220.705 192.804 222.259C192.669 230.389 188.242 235.387 179.682 237.077C172.845 238.427 172.072 240.31 177.577 242.203C190.358 246.597 192.892 257.693 182.442 263.506C176.521 266.799 172.426 266.758 167.515 263.354C163.894 260.845 163.161 260.686 159.679 261.653C153.737 263.303 147.363 262.934 141.337 260.593C135.874 258.47 130.724 257.068 124.689 256.061C118.715 255.064 115.151 249.943 114.592 241.551C114.184 235.417 113.671 233.745 111.425 231.231C109.951 229.581 107.986 226.544 107.058 224.481C105.42 220.844 105.211 220.731 100.164 220.731C93.7935 220.731 89.0798 217.922 86.2168 212.42C83.0468 206.327 78.9427 207.336 78.8477 214.231C78.8097 216.981 78.4233 220.817 77.9883 222.755C77.2354 226.113 77.3507 226.324 80.4366 227.255C90.5004 230.29 90.3981 247.946 80.2881 252.934C55.9904 264.92 26.2411 240.473 47.875 226.298C49.556 225.196 50.1805 223.494 50.6895 218.626C51.0495 215.185 52.1298 211.262 53.0908 209.91C54.0507 208.557 55.2736 206.856 55.8086 206.127C56.5016 205.184 56.0161 204.003 54.1221 202.017C50.6273 198.355 49.3112 194.657 49.9981 190.428C50.3281 188.392 50.1033 186.705 49.4463 186.299C48.8364 185.922 48.337 184.345 48.3369 182.794C48.3369 181.244 47.6012 179.366 46.7032 178.621C43.9996 176.376 34.3369 162.856 34.3369 161.317C34.3368 160.529 32.7627 157.822 30.8389 155.302C28.915 152.781 27.3998 150.384 27.4727 149.975C28.4457 144.478 24.6467 141.425 20.4727 144.348C18.2547 145.902 11.2222 145.776 6.86624 144.104C-3.23648 140.227 -1.78745 115.126 8.56839 114.62C14.8594 114.313 23.3369 117.551 23.3369 120.261C23.3372 122.018 26.1103 124.731 27.9073 124.731C28.6933 124.731 29.3369 124.041 29.3369 123.198C29.3372 109.814 50.1851 94.3087 69.8369 93.0767C82.9305 92.2547 88.2617 93.4969 97.1895 99.4468C101.45 102.287 108.337 96.8837 108.337 90.7007C108.337 88.6598 109.172 86.4706 110.483 85.0747C112.734 82.6789 111.804 79.7313 108.796 79.731C106.403 79.731 103.556 73.5422 104.077 69.4702C105.046 61.8843 117.633 57.7673 123.289 63.1861C125.639 65.4379 126.708 65.8083 129.245 65.2515C133.054 64.4145 133.128 63.4739 129.587 60.895C121.36 54.902 128.195 37.9086 139.837 35.4146ZM227.337 203.429C239.094 199.654 252.722 207.291 252.722 217.653C252.722 228.495 231.921 239.44 223.927 232.806C221.665 230.929 220.403 232.363 221.012 236.118C222.097 242.802 213.511 254.731 207.616 254.731C194.246 254.731 188.8 246.232 194.457 234.198C198.202 226.231 204.453 223.784 213.238 226.847C217.536 228.345 217.88 227.687 215.921 221.697C213.052 212.925 216.89 206.783 227.337 203.429ZM179.7 192.695C179.049 192.044 178.051 192.413 176.774 193.779C168.37 202.768 165.063 203.713 156.506 199.571C149.746 196.298 146.45 201.459 151.961 206.689C154.209 208.822 154.482 209.744 154.038 213.682C153.54 218.098 153.664 218.344 158.682 222.967C163.836 227.716 163.837 227.716 164.351 222.867C164.987 216.872 169.522 209.969 174.077 208.066C177.094 206.805 177.337 206.359 177.337 202.046C177.337 199.092 177.95 196.711 179.013 195.536C180.117 194.315 180.352 193.347 179.7 192.695ZM13.7354 183.697C21.2304 180.362 25.9355 181.225 32.1055 187.066C40.5644 195.074 37.0287 205.612 24.6309 209.343C9.40689 213.925 -0.704596 190.124 13.7354 183.697ZM252.956 148.251C262.129 145.732 267.81 147.203 270.983 152.921C277.397 164.478 257.352 180.919 247.179 172.445C237.093 164.044 240.016 151.805 252.956 148.251ZM175.822 162.709C174.842 161.123 172.482 161.589 171.417 163.579C170.283 165.699 171.384 170.913 173.086 171.481C174.366 171.905 176.761 164.229 175.822 162.709ZM150.152 111.481C150.492 108.526 149.534 108.177 145.513 109.79C142.108 111.155 143.035 114.231 146.851 114.231C149.365 114.231 149.886 113.796 150.152 111.481ZM156.837 98.731C156.012 98.731 155.337 99.406 155.337 100.231C155.337 101.056 156.012 101.731 156.837 101.731C157.662 101.731 158.337 101.056 158.337 100.231C158.337 99.4061 157.662 98.7312 156.837 98.731ZM131.337 85.6382C131.337 82.8002 129.491 81.4004 127.429 82.6743C126.501 83.2473 126.685 84.2905 128.185 86.9605C129.273 88.9003 130.316 91.46 130.5 92.6489C130.685 93.8379 131.287 94.905 131.837 95.021C133.25 95.317 133.729 90.7224 132.422 89.4155C131.825 88.8185 131.337 87.1191 131.337 85.6382ZM79.8369 36.9214C89.8819 31.2487 102.893 46.8492 95.6582 55.8921C92.2024 60.211 91.2042 63.981 91.8701 70.1997C92.5322 76.3837 92.4821 76.5638 89.0371 80.3628C76.0391 94.6997 55.1533 78.5005 64.8242 61.5825C66.3391 58.9327 67.3172 55.6452 67.3242 53.1753C67.3402 47.7053 72.4159 41.1124 79.8369 36.9214ZM120.896 78.731C120.653 78.731 120.177 79.1811 119.837 79.731C119.497 80.2809 119.695 80.7309 120.277 80.731C120.859 80.731 121.337 80.281 121.337 79.731C121.337 79.181 121.139 78.731 120.896 78.731ZM205.485 39.4898C219.631 37.0418 227.598 50.9151 220.597 65.8081C213.393 81.13 190.339 77.7861 190.091 61.3823C189.98 54.0764 199.509 40.5238 205.485 39.4898ZM51.8369 14.5542C64.4449 5.86451 75.68 19.3671 68.6241 34.731C62.385 48.3167 41.3372 43.775 41.3369 28.8423C41.3369 26.0333 47.6529 17.4382 51.8369 14.5542ZM108.212 2.17043C121.43 -6.81137 141.546 14.0924 133.237 28.1743C132.084 30.1297 130.819 31.7302 130.427 31.731C130.035 31.731 128.813 32.5703 127.713 33.5962C119.456 41.2872 107.786 35.7761 103.367 22.0991C100.152 12.1461 101.463 6.75643 108.212 2.17043Z" fill="#E39C2A"/>
</g>
<path id="stroke1_8_1035_ref" d="M20.822 68.2461L14.3515 69.6219C14.3515 69.6219 15.4767 74.6414 19.4762 73.582C22.0777 72.893 20.822 68.2461 20.822 68.2461ZM20.6268 65.374L12.889 67.2188C12.889 67.2188 5.64624 60.1426 5.97131 54.4967C6.22062 50.1666 5.24247 46.3386 9.41909 45.1691C13.3702 44.0627 14.7159 48.2987 17.4241 51.3809C21.1243 55.5922 20.6268 65.374 20.6268 65.374Z"/>
<g id="stroke2_8_1035" data-figma-scatter-ref="stroke2_8_1035_ref" data-figma-scatter="f0.44_w0.26_aj180_sj0.25_r0_s977443698714580255_sw1">
<path d="M103.731 283.547C110.352 281.363 112.807 281.348 116.121 283.468C130.109 292.418 124.85 308.718 107.972 308.727C90.3768 308.737 87.0606 289.046 103.731 283.547ZM139.837 35.4146C140.937 35.1787 142.512 35.114 143.337 35.271C144.162 35.4281 146.516 35.8391 148.567 36.1851C155.802 37.4051 160.179 46.6969 156.734 53.5249C152.924 61.0769 144.715 67.5811 140.859 66.1021C135.872 64.1881 137.625 69.8792 144.066 76.5152C148.306 80.8841 150.337 81.2685 150.337 77.7066C150.337 76.6574 151.622 74.3218 153.193 72.5161C154.823 70.6412 156.597 66.9201 157.324 63.8501C158.925 57.0892 160.788 55.2289 167.369 53.8169C177.32 51.6829 185.581 56.9263 183.752 64.2153C183.293 66.0423 183.901 67.6656 186.09 70.4585C196.859 84.1975 193.875 104.273 180.596 107.418C177.049 108.258 176.832 108.532 176.773 112.27C176.739 114.448 176.365 116.987 175.943 117.912C175.255 119.417 175.946 119.564 182.506 119.31C190.415 119.003 192.674 119.705 195.953 123.487C199.054 127.064 201.598 126.114 202.609 121.002C203.503 116.483 209.096 110.731 212.596 110.731C214.841 110.731 215.934 108.156 214.449 106.367C206.1 96.3056 222.234 73.6632 235.605 76.6792C241.572 78.0252 246.302 83.6302 246.367 89.4312C246.384 90.9712 247.505 94.4811 248.858 97.231C255.362 110.453 243.304 126.225 232.777 118.263C229.924 116.105 229.837 116.226 229.837 122.341C229.837 128.93 225.932 133.292 219.049 134.393C216.068 134.87 214.933 135.67 213.775 138.116C212.964 139.829 211.55 142.415 210.63 143.863C208.984 146.456 209.02 146.565 213.147 151.254C215.451 153.871 217.337 156.555 217.337 157.218C217.337 157.882 218.074 159.901 218.974 161.706C222.148 168.067 221.073 181.731 217.4 181.731C217.052 181.731 215.97 183.081 214.995 184.731C214.02 186.381 212.573 187.731 211.779 187.731C209.595 187.731 210.044 189.817 212.863 192.76C216.384 196.435 217.425 204.867 214.728 207.858C209.503 213.649 203.05 218.01 198.064 219.122C193.944 220.041 192.83 220.705 192.804 222.259C192.669 230.389 188.242 235.387 179.682 237.077C172.845 238.427 172.072 240.31 177.577 242.203C190.358 246.597 192.892 257.693 182.442 263.506C176.521 266.799 172.426 266.758 167.515 263.354C163.894 260.845 163.161 260.686 159.679 261.653C153.737 263.303 147.363 262.934 141.337 260.593C135.874 258.47 130.724 257.068 124.689 256.061C118.715 255.064 115.151 249.943 114.592 241.551C114.184 235.417 113.671 233.745 111.425 231.231C109.951 229.581 107.986 226.544 107.058 224.481C105.42 220.844 105.211 220.731 100.164 220.731C93.7935 220.731 89.0798 217.922 86.2168 212.42C83.0468 206.327 78.9427 207.336 78.8477 214.231C78.8097 216.981 78.4233 220.817 77.9883 222.755C77.2354 226.113 77.3507 226.324 80.4366 227.255C90.5004 230.29 90.3981 247.946 80.2881 252.934C55.9904 264.92 26.2411 240.473 47.875 226.298C49.556 225.196 50.1805 223.494 50.6895 218.626C51.0495 215.185 52.1298 211.262 53.0908 209.91C54.0507 208.557 55.2736 206.856 55.8086 206.127C56.5016 205.184 56.0161 204.003 54.1221 202.017C50.6273 198.355 49.3112 194.657 49.9981 190.428C50.3281 188.392 50.1033 186.705 49.4463 186.299C48.8364 185.922 48.337 184.345 48.3369 182.794C48.3369 181.244 47.6012 179.366 46.7032 178.621C43.9996 176.376 34.3369 162.856 34.3369 161.317C34.3368 160.529 32.7627 157.822 30.8389 155.302C28.915 152.781 27.3998 150.384 27.4727 149.975C28.4457 144.478 24.6467 141.425 20.4727 144.348C18.2547 145.902 11.2222 145.776 6.86624 144.104C-3.23648 140.227 -1.78745 115.126 8.56839 114.62C14.8594 114.313 23.3369 117.551 23.3369 120.261C23.3372 122.018 26.1103 124.731 27.9073 124.731C28.6933 124.731 29.3369 124.041 29.3369 123.198C29.3372 109.814 50.1851 94.3087 69.8369 93.0767C82.9305 92.2547 88.2617 93.4969 97.1895 99.4468C101.45 102.287 108.337 96.8837 108.337 90.7007C108.337 88.6598 109.172 86.4706 110.483 85.0747C112.734 82.6789 111.804 79.7313 108.796 79.731C106.403 79.731 103.556 73.5422 104.077 69.4702C105.046 61.8843 117.633 57.7673 123.289 63.1861C125.639 65.4379 126.708 65.8083 129.245 65.2515C133.054 64.4145 133.128 63.4739 129.587 60.895C121.36 54.902 128.195 37.9086 139.837 35.4146ZM227.337 203.429C239.094 199.654 252.722 207.291 252.722 217.653C252.722 228.495 231.921 239.44 223.927 232.806C221.665 230.929 220.403 232.363 221.012 236.118C222.097 242.802 213.511 254.731 207.616 254.731C194.246 254.731 188.8 246.232 194.457 234.198C198.202 226.231 204.453 223.784 213.238 226.847C217.536 228.345 217.88 227.687 215.921 221.697C213.052 212.925 216.89 206.783 227.337 203.429ZM179.7 192.695C179.049 192.044 178.051 192.413 176.774 193.779C168.37 202.768 165.063 203.713 156.506 199.571C149.746 196.298 146.45 201.459 151.961 206.689C154.209 208.822 154.482 209.744 154.038 213.682C153.54 218.098 153.664 218.344 158.682 222.967C163.836 227.716 163.837 227.716 164.351 222.867C164.987 216.872 169.522 209.969 174.077 208.066C177.094 206.805 177.337 206.359 177.337 202.046C177.337 199.092 177.95 196.711 179.013 195.536C180.117 194.315 180.352 193.347 179.7 192.695ZM13.7354 183.697C21.2304 180.362 25.9355 181.225 32.1055 187.066C40.5644 195.074 37.0287 205.612 24.6309 209.343C9.40689 213.925 -0.704596 190.124 13.7354 183.697ZM252.956 148.251C262.129 145.732 267.81 147.203 270.983 152.921C277.397 164.478 257.352 180.919 247.179 172.445C237.093 164.044 240.016 151.805 252.956 148.251ZM175.822 162.709C174.842 161.123 172.482 161.589 171.417 163.579C170.283 165.699 171.384 170.913 173.086 171.481C174.366 171.905 176.761 164.229 175.822 162.709ZM150.152 111.481C150.492 108.526 149.534 108.177 145.513 109.79C142.108 111.155 143.035 114.231 146.851 114.231C149.365 114.231 149.886 113.796 150.152 111.481ZM156.837 98.731C156.012 98.731 155.337 99.406 155.337 100.231C155.337 101.056 156.012 101.731 156.837 101.731C157.662 101.731 158.337 101.056 158.337 100.231C158.337 99.4061 157.662 98.7312 156.837 98.731ZM131.337 85.6382C131.337 82.8002 129.491 81.4004 127.429 82.6743C126.501 83.2473 126.685 84.2905 128.185 86.9605C129.273 88.9003 130.316 91.46 130.5 92.6489C130.685 93.8379 131.287 94.905 131.837 95.021C133.25 95.317 133.729 90.7224 132.422 89.4155C131.825 88.8185 131.337 87.1191 131.337 85.6382ZM79.8369 36.9214C89.8819 31.2487 102.893 46.8492 95.6582 55.8921C92.2024 60.211 91.2042 63.981 91.8701 70.1997C92.5322 76.3837 92.4821 76.5638 89.0371 80.3628C76.0391 94.6997 55.1533 78.5005 64.8242 61.5825C66.3391 58.9327 67.3172 55.6452 67.3242 53.1753C67.3402 47.7053 72.4159 41.1124 79.8369 36.9214ZM120.896 78.731C120.653 78.731 120.177 79.1811 119.837 79.731C119.497 80.2809 119.695 80.7309 120.277 80.731C120.859 80.731 121.337 80.281 121.337 79.731C121.337 79.181 121.139 78.731 120.896 78.731ZM205.485 39.4898C219.631 37.0418 227.598 50.9151 220.597 65.8081C213.393 81.13 190.339 77.7861 190.091 61.3823C189.98 54.0764 199.509 40.5238 205.485 39.4898ZM51.8369 14.5542C64.4449 5.86451 75.68 19.3671 68.6241 34.731C62.385 48.3167 41.3372 43.775 41.3369 28.8423C41.3369 26.0333 47.6529 17.4382 51.8369 14.5542ZM108.212 2.17043C121.43 -6.81137 141.546 14.0924 133.237 28.1743C132.084 30.1297 130.819 31.7302 130.427 31.731C130.035 31.731 128.813 32.5703 127.713 33.5962C119.456 41.2872 107.786 35.7761 103.367 22.0991C100.152 12.1461 101.463 6.75643 108.212 2.17043Z" fill="#E39C2A"/>
</g>
<path id="stroke2_8_1035_ref" d="M25.4125 25.567L19.8107 29.4944C19.8107 29.4944 22.1221 34.4271 25.3912 31.9522C28.4101 29.6667 25.4125 25.567 25.4125 25.567ZM24.4628 22.8052L17.4254 27.4324C17.4254 27.4324 8.64705 22.3856 7.55411 16.8369C6.71589 12.5814 4.81417 9.11826 8.56728 6.9443C12.1177 4.88773 14.481 7.74292 17.8722 10.0526C22.5056 13.2083 24.4628 22.8052 24.4628 22.8052Z"/>
</defs>
</svg>
