<svg width="153" height="50" viewBox="0 0 153 50" fill="none" xmlns="http://www.w3.org/2000/svg">
<g filter="url(#filter0_d_2_424)">
<path d="M0.570068 16.5L14.0701 2.5L34.5701 0.5H123.07L141.07 2.5L147.57 16.5L143.57 30.5L129.57 36H29.5701V44.5L23.0701 36H14.0701L4.57007 28.5L0.570068 16.5Z" fill="#F5F5F5"/>
<path d="M0.570068 16.5L14.0701 2.5L34.5701 0.5H123.07L141.07 2.5L147.57 16.5L143.57 30.5L129.57 36H29.5701V44.5L23.0701 36H14.0701L4.57007 28.5L0.570068 16.5Z" stroke="#6A5454"/>
</g>
<path d="M24.8381 23.236C24.3021 23.236 23.8221 23.18 23.3981 23.068C22.9821 22.948 22.6221 22.736 22.3181 22.432C22.0221 22.128 21.7781 21.704 21.5861 21.16L22.8581 20.464C22.9621 20.88 23.1741 21.196 23.4941 21.412C23.8141 21.628 24.2621 21.736 24.8381 21.736C25.3501 21.736 25.8781 21.712 26.4221 21.664C26.9661 21.616 27.4781 21.548 27.9581 21.46C28.4381 21.372 28.8341 21.272 29.1461 21.16C29.1461 21.288 29.1541 21.456 29.1701 21.664C29.1941 21.872 29.2221 22.076 29.2541 22.276C29.2941 22.476 29.3301 22.632 29.3621 22.744C29.0421 22.848 28.6341 22.936 28.1381 23.008C27.6421 23.08 27.1061 23.136 26.5301 23.176C25.9621 23.216 25.3981 23.236 24.8381 23.236ZM22.9541 16.18L22.9421 14.728C23.1741 14.8 23.4621 14.856 23.8061 14.896C24.1581 14.936 24.5341 14.96 24.9341 14.968C25.3421 14.976 25.7501 14.972 26.1581 14.956C26.5661 14.932 26.9421 14.9 27.2861 14.86C27.6301 14.812 27.9141 14.752 28.1381 14.68V16.144C27.9381 16.208 27.6661 16.26 27.3221 16.3C26.9781 16.34 26.6021 16.372 26.1941 16.396C25.7861 16.412 25.3741 16.416 24.9581 16.408C24.5421 16.4 24.1581 16.376 23.8061 16.336C23.4541 16.296 23.1701 16.244 22.9541 16.18ZM33.9701 24.052C33.7941 23.94 33.5661 23.824 33.2861 23.704C33.0061 23.592 32.7621 23.512 32.5541 23.464C32.7621 23.168 32.9781 22.792 33.2021 22.336C33.4261 21.872 33.6501 21.36 33.8741 20.8C34.0981 20.232 34.3141 19.644 34.5221 19.036C34.7301 18.42 34.9181 17.816 35.0861 17.224C34.6301 17.264 34.1981 17.292 33.7901 17.308C33.3901 17.324 33.0581 17.324 32.7941 17.308L32.6621 15.868C32.9901 15.9 33.4021 15.912 33.8981 15.904C34.4021 15.896 34.9221 15.868 35.4581 15.82C35.5621 15.404 35.6421 15.02 35.6981 14.668C35.7621 14.316 35.8021 14.004 35.8181 13.732L37.3181 13.936C37.2861 14.168 37.2381 14.428 37.1741 14.716C37.1101 14.996 37.0381 15.3 36.9581 15.628C37.2861 15.572 37.5941 15.512 37.8821 15.448C38.1701 15.376 38.4141 15.304 38.6141 15.232L38.8301 16.576C38.5821 16.656 38.2581 16.74 37.8581 16.828C37.4661 16.908 37.0381 16.98 36.5741 17.044C36.3981 17.676 36.2021 18.328 35.9861 19C35.7701 19.664 35.5461 20.312 35.3141 20.944C35.0821 21.576 34.8501 22.16 34.6181 22.696C34.3941 23.224 34.1781 23.676 33.9701 24.052ZM42.1061 23.548C41.2421 23.684 40.4261 23.716 39.6581 23.644C38.8981 23.572 38.2341 23.416 37.6661 23.176C37.1061 22.936 36.6861 22.636 36.4061 22.276L37.1381 21.196C37.4181 21.484 37.8101 21.72 38.3141 21.904C38.8261 22.08 39.4221 22.184 40.1021 22.216C40.7901 22.24 41.5381 22.176 42.3461 22.024C42.2661 22.224 42.2021 22.476 42.1541 22.78C42.1141 23.084 42.0981 23.34 42.1061 23.548ZM41.7461 19.3C41.4821 19.212 41.1781 19.136 40.8341 19.072C40.4901 19 40.1261 18.944 39.7421 18.904C39.3661 18.864 38.9941 18.84 38.6261 18.832C38.2661 18.816 37.9381 18.816 37.6421 18.832L37.8221 17.428C38.1101 17.412 38.4461 17.416 38.8301 17.44C39.2221 17.456 39.6261 17.484 40.0421 17.524C40.4661 17.564 40.8661 17.616 41.2421 17.68C41.6261 17.736 41.9541 17.796 42.2261 17.86L41.7461 19.3ZM42.2501 15.508C42.0661 15.276 41.8301 15.036 41.5421 14.788C41.2621 14.54 41.0101 14.344 40.7861 14.2L41.3621 13.588C41.4901 13.668 41.6501 13.788 41.8421 13.948C42.0421 14.108 42.2341 14.276 42.4181 14.452C42.6101 14.62 42.7581 14.764 42.8621 14.884L42.2501 15.508ZM41.2781 16.54C41.1581 16.388 41.0141 16.228 40.8461 16.06C40.6781 15.892 40.5021 15.736 40.3181 15.592C40.1421 15.44 39.9821 15.316 39.8381 15.22L40.4141 14.608C40.5421 14.688 40.7021 14.812 40.8941 14.98C41.0861 15.14 41.2741 15.308 41.4581 15.484C41.6421 15.652 41.7861 15.796 41.8901 15.916L41.2781 16.54ZM47.0741 24.04V20.608C46.4901 21.168 45.9981 21.704 45.5981 22.216L44.5061 21.208C44.8421 20.936 45.2301 20.604 45.6701 20.212C46.1101 19.812 46.5781 19.416 47.0741 19.024V17.404C46.7141 17.484 46.3621 17.56 46.0181 17.632C45.6741 17.696 45.3981 17.748 45.1901 17.788L44.8901 16.48C45.1061 16.472 45.4181 16.436 45.8261 16.372C46.2421 16.3 46.6581 16.224 47.0741 16.144V13.9H48.4181V15.796C48.5221 15.772 48.5981 15.744 48.6461 15.712L49.4141 16.288L48.5981 17.92C49.0621 17.64 49.5301 17.408 50.0021 17.224C50.4741 17.04 50.9301 16.948 51.3701 16.948C52.0021 16.948 52.5621 17.068 53.0501 17.308C53.5381 17.54 53.9181 17.876 54.1901 18.316C54.4701 18.748 54.6101 19.272 54.6101 19.888C54.6101 20.808 54.2741 21.592 53.6021 22.24C52.9301 22.888 51.9381 23.332 50.6261 23.572C50.5941 23.444 50.5341 23.292 50.4461 23.116C50.3661 22.94 50.2741 22.764 50.1701 22.588C50.0661 22.412 49.9621 22.268 49.8581 22.156C50.4901 22.076 51.0541 21.948 51.5501 21.772C52.0461 21.588 52.4381 21.344 52.7261 21.04C53.0141 20.728 53.1581 20.344 53.1581 19.888C53.1581 19.32 53.0021 18.9 52.6901 18.628C52.3781 18.348 51.9381 18.208 51.3701 18.208C50.9301 18.208 50.4541 18.328 49.9421 18.568C49.4301 18.808 48.9221 19.116 48.4181 19.492V24.04H47.0741ZM60.6941 24.328C60.5821 24.136 60.4221 23.924 60.2141 23.692C60.0061 23.468 59.8061 23.288 59.6141 23.152C60.7101 22.72 61.5541 22.072 62.1461 21.208C62.7461 20.344 63.0461 19.288 63.0461 18.04C63.0461 17.28 62.9101 16.752 62.6381 16.456C62.3741 16.152 62.0541 16.012 61.6781 16.036C61.3821 16.052 61.1061 16.22 60.8501 16.54C60.5941 16.852 60.4061 17.304 60.2861 17.896C60.1741 18.488 60.1781 19.212 60.2981 20.068C60.1861 20.076 60.0381 20.096 59.8541 20.128C59.6781 20.16 59.5061 20.196 59.3381 20.236C59.1781 20.276 59.0581 20.312 58.9781 20.344C58.9221 20.048 58.8741 19.676 58.8341 19.228C58.8021 18.78 58.7741 18.296 58.7501 17.776C58.7341 17.256 58.7221 16.736 58.7141 16.216C58.7141 15.696 58.7221 15.216 58.7381 14.776C58.7541 14.336 58.7781 13.98 58.8101 13.708L60.2741 13.84C60.2341 14.032 60.1941 14.28 60.1541 14.584C60.1221 14.88 60.0941 15.196 60.0701 15.532C60.0461 15.868 60.0301 16.192 60.0221 16.504C60.2061 16 60.4701 15.584 60.8141 15.256C61.1661 14.92 61.5541 14.748 61.9781 14.74C62.4661 14.732 62.9021 14.852 63.2861 15.1C63.6701 15.34 63.9741 15.708 64.1981 16.204C64.4221 16.692 64.5341 17.304 64.5341 18.04C64.5341 19.584 64.1941 20.864 63.5141 21.88C62.8421 22.888 61.9021 23.704 60.6941 24.328ZM73.9421 24.484C73.8541 24.332 73.7301 24.156 73.5701 23.956C73.4101 23.764 73.2501 23.604 73.0901 23.476C74.0021 23.1 74.7621 22.584 75.3701 21.928C75.0261 21.488 74.7261 21 74.4701 20.464C74.2221 21.224 73.9061 21.912 73.5221 22.528C73.1381 23.144 72.6661 23.732 72.1061 24.292C71.9861 24.148 71.8301 23.996 71.6381 23.836C71.4461 23.676 71.2701 23.556 71.1101 23.476C71.0541 23.796 70.9101 24.024 70.6781 24.16C70.4461 24.304 70.1181 24.376 69.6941 24.376H68.8181C68.8101 24.256 68.7901 24.104 68.7581 23.92C68.7261 23.736 68.6901 23.556 68.6501 23.38C68.6101 23.196 68.5661 23.056 68.5181 22.96H69.3101C69.4701 22.96 69.5821 22.936 69.6461 22.888C69.7181 22.832 69.7541 22.728 69.7541 22.576V20.632C69.4421 20.76 69.1581 20.868 68.9021 20.956C68.6541 21.044 68.4741 21.104 68.3621 21.136L68.0381 19.684C68.2221 19.644 68.4661 19.58 68.7701 19.492C69.0821 19.396 69.4101 19.292 69.7541 19.18V16.984H68.2181V15.664H69.7541V13.48H71.1341V15.664H72.2741V16.984H71.1341V18.712C71.4301 18.6 71.6901 18.5 71.9141 18.412C72.1461 18.324 72.3141 18.252 72.4181 18.196V19.528C72.3221 19.584 72.1581 19.664 71.9261 19.768C71.6941 19.864 71.4301 19.972 71.1341 20.092V23.188C71.1341 23.236 71.1301 23.284 71.1221 23.332C71.1221 23.372 71.1181 23.412 71.1101 23.452C71.6461 22.964 72.0981 22.412 72.4661 21.796C72.8341 21.18 73.1261 20.456 73.3421 19.624C73.5661 18.792 73.7181 17.808 73.7981 16.672H72.5741V15.412H73.8581C73.8661 14.812 73.8661 14.172 73.8581 13.492H75.2501C75.2501 13.836 75.2461 14.168 75.2381 14.488C75.2381 14.8 75.2341 15.108 75.2261 15.412H78.8261V16.672H75.1541C75.1381 16.832 75.1221 16.992 75.1061 17.152C75.0901 17.312 75.0741 17.472 75.0581 17.632H78.0101L78.3701 17.872C78.2581 18.672 78.0941 19.396 77.8781 20.044C77.6621 20.692 77.3821 21.28 77.0381 21.808C77.6941 22.408 78.4501 22.908 79.3061 23.308C79.1381 23.436 78.9701 23.604 78.8021 23.812C78.6421 24.02 78.5061 24.22 78.3941 24.412C77.5541 23.972 76.8261 23.456 76.2101 22.864C75.6101 23.488 74.8541 24.028 73.9421 24.484ZM76.1501 20.848C76.4541 20.296 76.6741 19.644 76.8101 18.892H75.1541C75.3621 19.596 75.6941 20.248 76.1501 20.848ZM84.5621 22.288C84.1621 22.512 83.7861 22.604 83.4341 22.564C83.0821 22.516 82.7701 22.288 82.4981 21.88C82.2501 21.496 82.0221 21.044 81.8141 20.524C81.6061 20.004 81.4261 19.452 81.2741 18.868C81.1301 18.284 81.0181 17.7 80.9381 17.116C80.8661 16.532 80.8341 15.984 80.8421 15.472L82.3061 15.484C82.2821 15.876 82.2941 16.304 82.3421 16.768C82.3901 17.232 82.4661 17.7 82.5701 18.172C82.6741 18.644 82.7981 19.084 82.9421 19.492C83.0861 19.892 83.2421 20.228 83.4101 20.5C83.5221 20.692 83.6421 20.804 83.7701 20.836C83.9061 20.86 84.0501 20.824 84.2021 20.728C84.3941 20.6 84.5941 20.424 84.8021 20.2C85.0181 19.976 85.1981 19.76 85.3421 19.552C85.3821 19.672 85.4461 19.808 85.5341 19.96C85.6301 20.112 85.7301 20.26 85.8341 20.404C85.9461 20.548 86.0461 20.664 86.1341 20.752C85.9181 21.072 85.6701 21.368 85.3901 21.64C85.1181 21.912 84.8421 22.128 84.5621 22.288ZM89.0981 20.044C89.0181 19.812 88.8941 19.524 88.7261 19.18C88.5581 18.836 88.3661 18.48 88.1501 18.112C87.9341 17.736 87.7181 17.392 87.5021 17.08C87.2861 16.76 87.0861 16.512 86.9021 16.336L88.0541 15.604C88.2541 15.804 88.4741 16.072 88.7141 16.408C88.9621 16.744 89.2021 17.104 89.4341 17.488C89.6741 17.864 89.8861 18.232 90.0701 18.592C90.2541 18.944 90.3861 19.244 90.4661 19.492C90.2181 19.54 89.9661 19.616 89.7101 19.72C89.4621 19.824 89.2581 19.932 89.0981 20.044ZM93.9701 24.052C93.7941 23.94 93.5661 23.824 93.2861 23.704C93.0061 23.592 92.7621 23.512 92.5541 23.464C92.7621 23.168 92.9781 22.792 93.2021 22.336C93.4261 21.872 93.6501 21.36 93.8741 20.8C94.0981 20.232 94.3141 19.644 94.5221 19.036C94.7301 18.42 94.9181 17.816 95.0861 17.224C94.6301 17.264 94.1981 17.292 93.7901 17.308C93.3901 17.324 93.0581 17.324 92.7941 17.308L92.6621 15.868C92.9901 15.9 93.4021 15.912 93.8981 15.904C94.4021 15.896 94.9221 15.868 95.4581 15.82C95.5621 15.404 95.6421 15.02 95.6981 14.668C95.7621 14.316 95.8021 14.004 95.8181 13.732L97.3181 13.936C97.2861 14.168 97.2381 14.428 97.1741 14.716C97.1101 14.996 97.0381 15.3 96.9581 15.628C97.2861 15.572 97.5941 15.512 97.8821 15.448C98.1701 15.376 98.4141 15.304 98.6141 15.232L98.8301 16.576C98.5821 16.656 98.2581 16.74 97.8581 16.828C97.4661 16.908 97.0381 16.98 96.5741 17.044C96.3981 17.676 96.2021 18.328 95.9861 19C95.7701 19.664 95.5461 20.312 95.3141 20.944C95.0821 21.576 94.8501 22.16 94.6181 22.696C94.3941 23.224 94.1781 23.676 93.9701 24.052ZM102.106 23.548C101.242 23.684 100.426 23.716 99.6581 23.644C98.8981 23.572 98.2341 23.416 97.6661 23.176C97.1061 22.936 96.6861 22.636 96.4061 22.276L97.1381 21.196C97.4181 21.484 97.8101 21.72 98.3141 21.904C98.8261 22.08 99.4221 22.184 100.102 22.216C100.79 22.24 101.538 22.176 102.346 22.024C102.266 22.224 102.202 22.476 102.154 22.78C102.114 23.084 102.098 23.34 102.106 23.548ZM101.746 19.3C101.482 19.212 101.178 19.136 100.834 19.072C100.49 19 100.126 18.944 99.7421 18.904C99.3661 18.864 98.9941 18.84 98.6261 18.832C98.2661 18.816 97.9381 18.816 97.6421 18.832L97.8221 17.428C98.1101 17.412 98.4461 17.416 98.8301 17.44C99.2221 17.456 99.6261 17.484 100.042 17.524C100.466 17.564 100.866 17.616 101.242 17.68C101.626 17.736 101.954 17.796 102.226 17.86L101.746 19.3ZM108.862 24.376V22.396H106.954V21.076H108.862V18.28C108.51 18.816 108.106 19.352 107.65 19.888C107.194 20.424 106.718 20.928 106.222 21.4C105.726 21.864 105.23 22.268 104.734 22.612C104.614 22.444 104.454 22.256 104.254 22.048C104.054 21.84 103.87 21.68 103.702 21.568C104.102 21.336 104.51 21.048 104.926 20.704C105.35 20.36 105.766 19.98 106.174 19.564C106.582 19.14 106.962 18.708 107.314 18.268C107.666 17.82 107.974 17.38 108.238 16.948H104.23V15.652H108.862V13.444H110.266V15.652H114.91V16.948H110.902C111.166 17.388 111.478 17.832 111.838 18.28C112.198 18.728 112.582 19.16 112.99 19.576C113.398 19.984 113.81 20.356 114.226 20.692C114.65 21.028 115.058 21.312 115.45 21.544C115.282 21.656 115.098 21.816 114.898 22.024C114.698 22.232 114.534 22.424 114.406 22.6C113.902 22.24 113.398 21.828 112.894 21.364C112.398 20.9 111.926 20.404 111.478 19.876C111.03 19.34 110.626 18.8 110.266 18.256V21.076H112.222V22.396H110.266V24.376H108.862ZM120.814 24.376V22.696H116.11V21.52H120.814V20.908H117.418V17.776H120.814V17.152H119.038V15.532H116.29V14.368H119.038V13.48H120.478V14.368H122.662V13.48H124.102V14.368H126.862V15.532H124.102V17.152H122.314V17.776H125.734V20.908H122.314V21.52H127.042V22.696H122.314V24.376H120.814ZM122.314 19.804H124.306V18.88H122.314V19.804ZM118.846 19.804H120.814V18.88H118.846V19.804ZM120.478 16.192H122.662V15.532H120.478V16.192Z" fill="#333333"/>
<defs>
<filter id="filter0_d_2_424" x="0" y="0" width="152.102" height="49.9771" filterUnits="userSpaceOnUse" color-interpolation-filters="sRGB">
<feFlood flood-opacity="0" result="BackgroundImageFix"/>
<feColorMatrix in="SourceAlpha" type="matrix" values="0 0 0 0 0 0 0 0 0 0 0 0 0 0 0 0 0 0 127 0" result="hardAlpha"/>
<feOffset dx="4" dy="4"/>
<feComposite in2="hardAlpha" operator="out"/>
<feColorMatrix type="matrix" values="0 0 0 0 0.403471 0 0 0 0 0.351764 0 0 0 0 0.351764 0 0 0 0.25 0"/>
<feBlend mode="normal" in2="BackgroundImageFix" result="effect1_dropShadow_2_424"/>
<feBlend mode="normal" in="SourceGraphic" in2="effect1_dropShadow_2_424" result="shape"/>
</filter>
</defs>
</svg>
