<svg width="120" height="14" viewBox="0 0 120 14" fill="none" xmlns="http://www.w3.org/2000/svg">
<path d="M4.74594 0.224H4.84394C5.29194 0.308 6.56594 0.672 6.56594 1.246C6.56594 1.442 6.42594 1.624 6.32794 1.778C6.21594 1.946 6.18794 2.1 6.18794 2.296C6.18794 2.646 6.21594 2.982 6.21594 3.332V11.802C6.21594 12.838 6.21594 13.328 5.02594 13.482H4.91394C4.66194 13.454 4.40994 13.398 4.17194 13.286C3.65394 13.048 3.66794 12.782 3.66794 12.25C3.66794 12.026 3.68194 11.788 3.69594 11.55C3.21994 11.732 2.75794 11.914 2.29594 12.11C1.97394 12.25 1.88994 12.362 1.66594 12.614C1.60994 12.67 1.53994 12.712 1.46994 12.754H1.39994C0.81194 12.53 0.53194 12.082 0.27994 11.55C0.13994 11.256 -5.95674e-05 10.934 -5.95674e-05 10.612C-5.95674e-05 10.122 0.20994 9.688 0.43394 9.268H0.54594C0.685941 9.352 0.81194 9.422 0.96594 9.478H1.10594L1.27394 9.436C2.09994 9.226 2.91194 8.974 3.69594 8.624V5.852L3.10794 5.824H2.23994L1.16194 5.936H0.97994C0.79794 5.908 0.64394 5.88 0.50394 5.768C0.29394 5.614 0.20994 5.376 0.20994 5.11C0.20994 4.396 0.71394 3.416 1.07794 2.814H1.17594L1.20394 2.828C1.34394 2.954 1.52594 3.024 1.70794 3.066H3.70994C3.72394 2.604 3.70994 2.128 3.65394 1.666C3.62594 1.428 3.51394 1.274 3.33194 1.106C3.69594 0.658 4.15794 0.294 4.74594 0.224ZM8.00794 0.252H8.11994C8.37194 0.28 8.59594 0.336 8.81994 0.448C9.05794 0.56 9.29594 0.672 9.51994 0.812C9.74394 0.952 10.1219 1.176 10.1219 1.484C10.1219 1.61 10.0379 1.736 9.93994 1.834C9.68794 2.128 9.67394 2.478 9.67394 2.856V3.542H9.72994C10.9339 3.15 10.9339 3.08 11.1299 2.366H11.2559C12.4039 2.66 12.9639 2.856 12.9639 4.186C12.9639 4.732 12.8379 5.306 12.5159 5.768C12.4039 5.922 12.2779 6.006 12.0959 6.048H11.9839L11.4799 5.936H11.3679C10.8079 6.076 10.2199 6.174 9.64594 6.188V9.688C9.67394 10.164 9.84194 10.192 10.3739 10.234H11.2979C11.6059 10.206 11.9279 10.192 12.2219 10.094C12.7679 9.898 12.9499 9.744 13.1879 9.198C13.3279 9.45 13.3419 9.772 13.3419 10.08V10.346C13.3419 11.13 13.3419 11.998 12.8239 12.642C12.4739 13.062 11.2839 13.076 10.7659 13.118H9.57594C8.93194 13.062 8.27394 13.034 7.69994 12.726C7.47594 12.614 7.34994 12.418 7.23794 12.194C7.09794 11.886 7.15394 11.522 7.15394 11.186L7.13994 2.366C7.11194 1.736 7.13994 1.498 6.62194 1.036C7.11194 0.63 7.32194 0.322 8.00794 0.252ZM20.1879 0.266H20.2999C20.6779 0.392 20.9439 0.56 21.2379 0.84C21.3359 0.924 21.4339 1.022 21.5179 1.12C21.6439 0.952 21.7419 0.784 21.8399 0.588H23.9959L24.7379 0.504C25.0039 0.406 25.2559 0.336 25.5359 0.266C26.0399 0.392 26.3899 0.714 26.7399 1.106C26.8939 1.288 27.1739 1.652 27.1739 1.904C27.1739 2.1 26.9919 2.24 26.8519 2.352C26.6559 2.548 26.5159 2.758 26.3899 2.996C26.0679 3.598 25.5079 4.27 25.1159 4.844C24.9759 5.026 24.7799 5.18 24.6259 5.334L24.6539 5.376L25.0039 5.432H25.0879C25.4519 5.376 25.7879 5.25 26.1239 5.124H26.2079C26.5299 5.208 26.8099 5.32 27.0619 5.544C27.2159 5.67 27.4679 5.88 27.4679 6.09C27.4679 6.23 27.4119 6.356 27.3559 6.482C27.2299 6.804 27.1319 7.126 27.0619 7.462C26.9079 8.162 26.6979 8.932 26.2639 9.52C26.1659 9.646 25.9699 9.702 25.8299 9.744H25.7319C25.3959 9.66 25.0879 9.394 24.8639 9.128V11.998C24.8639 12.152 24.5839 12.698 24.1359 12.95C23.7299 13.174 23.2539 13.216 22.8199 13.272C22.1059 13.426 21.3919 13.468 20.6639 13.524H20.5519C20.3279 13.482 20.1039 13.426 19.9079 13.286C19.6139 13.076 19.3339 12.586 19.1379 12.278C18.8299 11.83 18.3119 11.312 17.8219 11.088C17.7659 11.06 17.6539 11.018 17.6539 10.948C17.6539 10.92 17.6959 10.906 17.7099 10.892L18.0599 10.976L19.7399 11.088H19.8239C20.4399 11.06 21.7419 11.046 22.2879 10.948C22.6239 10.892 22.7079 10.724 22.7079 10.402L22.6939 9.226L22.6799 7.476H22.4699L21.5599 7.574C21.4759 7.616 21.4199 7.644 21.4059 7.728H21.3499L21.3079 7.658C21.0559 8.106 20.7199 8.4 20.2159 8.484H20.0199L19.8659 8.442H19.3199L19.1239 8.484L19.1099 8.876H20.1879C20.6079 8.834 21.0559 8.834 21.4479 8.666L21.5179 8.638L21.5459 8.652C21.4619 8.834 21.3919 9.016 21.3359 9.198C21.2379 9.492 21.0419 9.744 20.8599 9.996C20.7059 10.22 20.5239 10.388 20.3419 10.584C20.2299 10.682 19.8799 10.738 19.7259 10.738C19.1799 10.78 18.6479 10.794 18.1019 10.808C17.5419 10.822 16.7159 10.934 16.1279 10.976L15.9319 11.004C15.6239 11.018 15.3299 11.158 15.0359 11.256H14.8679C14.5319 11.13 14.2519 10.976 14.2519 10.57C14.2519 10.024 14.7839 9.408 15.1059 9.016L15.1479 9.072H15.4139L17.2899 8.946V8.526H16.5199L15.1199 8.694H15.0359C14.7139 8.61 14.4759 8.498 14.4759 8.134C14.4759 7.616 14.8959 7.14 15.2879 6.874H15.3999L15.6659 6.958H15.9739L17.2479 6.888V6.286H16.9539C16.4779 6.314 16.3239 6.328 15.9179 6.608H15.7779C15.2879 6.482 14.6579 6.258 14.6579 5.656C14.6579 5.348 14.7419 4.844 14.7839 4.508V2.366C14.7699 2.072 14.5879 1.694 14.3219 1.526C14.2939 1.512 14.2519 1.484 14.2519 1.442C14.2519 1.344 15.0359 0.42 15.6379 0.308H15.8199C16.1279 0.406 16.4219 0.504 16.7439 0.588H19.0539C19.4459 0.518 19.8239 0.42 20.1879 0.266ZM21.5739 2.044L21.5319 1.988C21.5039 2.17 21.4899 2.366 21.4899 2.548V3.262L21.4759 3.444C21.5879 3.206 21.7279 2.968 21.9799 2.842C22.0359 2.814 22.0779 2.786 22.1339 2.744L22.1759 2.702L22.0499 2.688C21.7559 2.59 21.6439 2.324 21.5739 2.044ZM19.0959 2.072V2.702H19.8799V2.072H19.0959ZM17.2899 2.772L17.3039 2.086H17.1499L16.4359 2.156L16.4079 2.198L16.4219 2.772H17.2899ZM24.7099 2.618L24.7239 2.576L23.9259 2.492H23.2539L22.8479 2.548C23.0859 2.674 23.0859 2.758 23.1559 2.996C23.2259 3.262 23.4919 3.486 23.6739 3.654C23.7439 3.57 23.8419 3.514 23.9399 3.458C24.2199 3.276 24.5419 2.912 24.7099 2.618ZM19.8379 4.074L19.5999 4.032H19.5439L19.0959 4.046V4.634H19.8379V4.074ZM16.4079 4.732H17.2899V4.102H17.0379L16.4079 4.158V4.732ZM21.5599 4.312H21.4899V5.502H22.7359C22.7639 5.502 22.8059 5.446 22.8059 5.432C22.8059 5.32 22.5119 5.026 22.4419 4.942C22.1899 4.676 21.8819 4.48 21.5599 4.312ZM19.3479 6.314H19.1239V6.874H20.6359C20.6359 6.748 20.6499 6.636 20.6639 6.524C20.0899 6.412 19.9359 6.384 19.3479 6.314ZM24.8499 8.47L24.8919 8.386C24.9899 8.204 25.3259 7.574 25.3259 7.392C25.3259 7.336 25.2979 7.294 25.2279 7.294C25.1719 7.294 25.1299 7.294 25.0879 7.308C25.0459 7.322 25.0039 7.322 24.9619 7.322C24.9059 7.336 24.8639 7.35 24.8079 7.378V7.616C24.8079 7.896 24.8359 8.19 24.8499 8.47ZM29.7919 0.868C29.9459 0.952 30.0999 1.022 30.2679 1.078H31.0659L33.2079 0.966H36.6239L39.2839 1.106H39.7039L40.5439 1.022L40.7959 0.896C40.6699 1.4 40.5299 2.184 40.3479 2.66C40.2499 2.926 40.1099 3.164 39.8999 3.36C39.6339 3.598 39.2839 3.668 38.9339 3.738H37.8559L36.4139 3.654H36.0359L36.0219 7.126L36.0079 8.876V9.744C36.5959 9.786 37.8839 9.898 38.3879 9.898C38.7239 9.898 39.8859 10.066 40.3339 10.108H40.7539C40.9359 10.066 41.0899 10.01 41.2579 9.926H41.3279V10.01C41.3279 10.71 41.1599 11.354 40.8659 11.984C40.7119 12.306 40.4599 12.698 40.1239 12.866C39.9699 12.95 39.7879 12.978 39.6199 13.02C39.3399 12.978 39.0599 12.936 38.7939 12.866C38.5139 12.81 38.2339 12.782 37.9539 12.726C36.8479 12.474 35.9239 12.39 34.8039 12.334H34.7199C33.8519 12.362 32.9839 12.376 32.1159 12.474C31.2339 12.572 30.0579 12.88 29.1899 13.118C29.0219 13.16 28.8679 13.174 28.6999 13.188C28.3219 13.034 28.0839 12.698 28.0839 12.278C28.0839 11.536 28.6999 10.514 29.1059 9.912C29.2459 10.024 29.3859 10.038 29.5399 10.024C30.0719 9.954 30.5899 9.87 31.1219 9.842L33.3059 9.688V3.57L33.1379 3.598L31.1219 3.724H31.0939L29.7499 3.934H29.4839C29.2319 3.892 29.1339 3.836 28.9799 3.626C28.8679 3.486 28.8119 3.318 28.8119 3.122C28.8119 2.296 29.3019 1.498 29.7919 0.868ZM44.2259 0.49C44.2539 0.532 44.2679 0.574 44.3099 0.602H45.4999L47.8379 0.504H49.1259L53.6899 0.658H54.4039L55.1599 0.602L55.3279 0.546H55.3839C55.3979 0.574 55.4119 0.588 55.4119 0.616C55.4119 0.686 55.2999 0.798 55.2579 0.854C55.1739 0.952 55.1319 1.092 55.0759 1.218C54.8799 1.694 54.5999 2.156 54.1799 2.464L54.1099 2.506C54.3619 2.66 54.8519 2.954 54.8519 3.276C54.8519 3.374 54.6839 3.598 54.6419 3.682C54.5019 3.92 54.5299 4.214 54.5299 4.466C54.5299 4.76 54.5579 5.04 54.6139 5.334C54.6279 5.418 54.6419 5.502 54.6419 5.586C54.6419 6.328 53.7179 6.608 53.1439 6.734H53.0739C52.9619 6.706 52.8779 6.678 52.7799 6.622C52.6259 6.538 52.3599 6.412 52.1919 6.398L51.9819 6.384L51.0159 6.342H50.6939C50.7639 6.398 50.8199 6.468 50.8199 6.552C50.8199 6.636 50.7499 6.692 50.6939 6.748L50.6239 6.804L52.4299 6.846H55.2579L55.3839 6.762C55.3839 7.07 55.2299 7.336 55.1179 7.616C54.9779 7.994 54.8519 8.386 54.5019 8.61C54.3339 8.722 54.1379 8.792 53.9279 8.792L53.3539 8.806C53.7319 8.988 54.4879 9.45 54.4879 9.94C54.4879 10.122 54.3199 10.304 54.2219 10.458C54.1519 10.556 54.1799 10.738 54.1799 10.836V11.004C54.1799 11.256 54.1519 11.522 54.1239 11.774C54.0959 11.956 54.0259 12.166 53.9839 12.348C53.9279 12.614 53.7179 12.852 53.5079 13.006C53.0319 13.37 51.9259 13.412 51.3239 13.454H51.2119C50.9459 13.412 50.6379 13.412 50.4139 13.244C50.2599 13.146 50.0359 12.642 49.9519 12.46C49.8119 12.124 49.6999 11.774 49.6299 11.424L50.9319 11.522H51.2399C51.4499 11.508 51.6739 11.494 51.8839 11.452C52.0239 11.368 51.9959 11.102 51.9679 10.962L51.7299 10.948H49.8259L49.1259 11.004C48.6079 12.068 47.5859 13.076 46.4659 13.468H46.3539C45.8639 13.398 45.5559 13.174 45.1639 12.894C44.8699 12.684 44.6039 12.418 44.3939 12.124L44.3379 12.012C44.1419 12.432 43.8339 12.866 43.3859 13.006H43.2319C42.5179 12.656 42.1679 10.654 42.0839 9.898C42.6159 9.562 42.8679 9.198 43.0499 8.61C43.2739 7.854 43.3859 7.07 43.3999 6.286L43.4419 4.536C43.4559 4.074 43.4139 3.724 43.1339 3.332C43.3439 3.136 43.5679 2.954 43.8339 2.814C43.9179 2.758 43.9739 2.73 43.9879 2.716C44.0019 2.688 43.9879 2.674 43.9459 2.674C43.8059 2.688 43.6239 2.66 43.2599 2.674L43.2319 2.66C43.1619 2.646 43.1059 2.618 43.0359 2.576C42.8819 2.506 42.7979 2.254 42.7979 2.1C42.7979 1.484 43.7499 0.77 44.2259 0.49ZM49.6579 2.422H48.6779L45.4579 2.576H45.4299L45.2759 2.604C45.4439 2.688 45.6119 2.772 45.7939 2.842H46.6619L47.6279 2.786H49.7139L51.5759 2.856H51.6599C51.9539 2.8 52.1779 2.73 52.4439 2.576C51.6739 2.506 50.4839 2.464 49.6579 2.422ZM47.6559 4.774H48.8039L51.3239 4.816H51.9679V4.424H51.8979L47.8519 4.354L45.8499 4.452C45.7799 4.452 45.7099 4.48 45.6399 4.494V4.816H46.1159L47.6559 4.774ZM47.9079 6.272C47.1379 6.3 46.3539 6.314 45.5839 6.412C45.5559 6.678 45.5419 6.944 45.5279 7.224C45.6819 7.098 45.8359 6.986 45.9479 6.832H46.0459L46.0739 6.874H47.3059L48.0899 6.818C48.0759 6.65 47.9499 6.538 47.8239 6.454C47.8799 6.398 47.9499 6.356 48.0059 6.314C47.9779 6.286 47.9499 6.286 47.9079 6.272ZM52.8079 8.806L52.8359 8.778L51.6039 8.694L50.1339 8.666L50.0779 9.016L50.1339 9.072H50.1899L52.2059 9.044C52.3319 9.016 52.6959 8.876 52.8079 8.806ZM47.6839 8.806H47.1379C46.5359 8.862 45.9339 8.904 45.3179 8.904C45.2059 9.744 45.0659 10.584 44.7299 11.368C46.1719 10.92 47.1379 10.262 47.6839 8.806ZM60.8299 0.854C61.2219 0.378 61.8799 0.0279995 62.5099 0.0279995C62.9859 0.0279995 64.3159 0.49 64.3159 1.092C64.3159 1.316 64.1339 1.554 64.0359 1.736C63.9659 1.89 63.8959 2.03 63.8959 2.198C65.0159 2.226 66.1359 2.268 67.2559 2.268C67.6199 2.268 68.1379 2.31 68.4879 2.156C68.3619 2.884 68.2219 3.654 67.6899 4.214C67.4239 4.48 67.0739 4.55 66.7099 4.55C66.0659 4.55 65.4219 4.424 64.7779 4.424H63.8399L63.8259 5.152L65.9959 5.222C66.4719 5.236 67.0179 5.306 67.4659 5.306C67.8999 5.306 68.3339 5.264 68.7539 5.222C68.6139 5.992 68.3759 6.678 67.7739 7.224C67.5079 7.462 67.1859 7.56 66.8219 7.56C66.3039 7.56 65.0859 7.434 64.4979 7.392C64.2599 7.378 64.0359 7.392 63.8119 7.392V8.652L67.9139 9.954C68.2219 10.052 68.5299 10.108 68.8519 10.164C68.6279 10.948 68.3199 11.69 67.7599 12.306C67.5499 12.53 67.2559 12.796 66.9199 12.796C66.6119 12.796 65.7859 12.25 65.5059 12.068C64.9599 11.718 64.3579 11.424 63.7699 11.13C63.6999 11.676 63.5599 12.222 63.1819 12.628C62.5379 13.3 61.4319 13.398 60.5499 13.398C58.9679 13.398 56.7419 12.74 56.7419 10.808C56.7419 10.15 57.0639 9.576 57.5539 9.142C58.3659 8.428 59.5419 8.246 60.5919 8.246C60.9139 8.246 61.2499 8.274 61.5719 8.302V7.364C60.7459 7.392 59.9199 7.462 59.0939 7.532C58.4499 7.588 57.8199 7.728 57.1759 7.728C57.0359 7.728 56.8819 7.742 56.7839 7.63C56.6019 7.42 56.4899 7.168 56.4899 6.888C56.4899 6.314 57.0219 5.67 57.3719 5.236C57.5539 5.32 57.7359 5.362 57.9319 5.362C59.1359 5.362 60.3399 5.264 61.5299 5.194L61.5439 4.48C60.8019 4.508 59.5419 4.522 58.8559 4.662C58.5759 4.704 58.2819 4.76 58.0019 4.76C57.6239 4.76 57.2319 4.522 57.2319 4.102C57.2319 3.556 57.9599 2.73 58.3099 2.324C58.4779 2.38 58.6599 2.422 58.8419 2.422C59.4299 2.422 60.8019 2.282 61.4599 2.226C61.4319 1.638 61.2919 1.232 60.8299 0.854ZM61.4459 10.43C61.0119 10.262 60.5499 10.206 60.0739 10.206C59.8359 10.206 58.8979 10.262 58.8979 10.612C58.8979 10.99 59.9339 11.144 60.1999 11.144C60.5359 11.144 60.8999 11.102 61.1799 10.92C61.3619 10.822 61.4179 10.626 61.4459 10.43ZM73.0239 0.7C73.4719 0.364 74.0179 0.0279995 74.6059 0.0279995C74.9559 0.0279995 75.3199 0.168 75.6279 0.308C75.9639 0.476 76.2719 0.714 76.2719 1.106C76.2719 1.484 76.0059 1.792 75.8099 2.072C75.7119 2.198 75.6699 2.352 75.6139 2.492C76.9999 2.492 78.3999 2.52 79.7859 2.422C79.9819 2.408 80.1779 2.394 80.3739 2.394C80.1499 3.57 79.9119 4.97 78.4139 4.97C78.2319 4.97 78.0359 4.942 77.8399 4.928L75.9639 4.816C75.6979 4.816 75.4459 4.844 75.1799 4.858C75.0679 5.432 74.9699 6.02 74.9139 6.594C76.1179 6.048 77.0139 5.782 78.3579 5.782C79.5619 5.782 80.6959 6.006 81.6759 6.748C82.4319 7.322 82.9639 8.204 82.9639 9.17C82.9639 10.612 81.8579 11.83 80.6679 12.516C79.4499 13.23 77.8819 13.426 76.4959 13.426C75.8239 13.426 75.1519 13.37 74.4799 13.258C74.1019 13.202 73.7239 13.104 73.4439 12.824C72.7019 12.082 72.6879 10.836 72.6179 9.87C73.1919 10.332 73.7099 10.556 74.4379 10.71C75.0539 10.85 75.6979 10.892 76.3279 10.892C77.3499 10.892 78.4699 10.766 79.3939 10.29C79.8559 10.052 80.3319 9.632 80.3319 9.058C80.3319 8.092 79.0859 7.868 78.3579 7.868C77.5459 7.868 76.7199 8.036 75.9779 8.316C75.4459 8.526 74.9559 8.82 74.4799 9.142C74.3119 9.268 74.0879 9.408 73.8779 9.408C73.2619 9.408 72.2119 8.932 72.2119 8.204C72.2119 7.952 72.2959 7.7 72.3799 7.462C72.6459 6.678 72.7719 5.838 72.8979 5.012C72.3519 5.124 71.8199 5.25 71.2879 5.376C71.1479 5.418 70.9939 5.446 70.8539 5.446C70.3919 5.446 70.0979 5.054 70.0979 4.62C70.0979 3.822 70.6859 3.136 71.2179 2.604C71.3859 2.632 71.5679 2.688 71.7359 2.674C72.2399 2.632 72.7579 2.576 73.2619 2.562C73.3039 2.226 73.4019 1.862 73.4019 1.526C73.4019 1.218 73.2059 0.938 73.0239 0.7ZM83.9999 1.456C84.5739 0.966 85.2039 0.532 86.0019 0.532C86.6739 0.532 87.9059 0.756 87.9339 1.624C87.9479 2.282 88.0599 2.296 88.4379 2.8C89.7399 4.62 91.0699 6.398 92.4419 8.162V3.052C92.4419 2.212 92.3719 1.96 91.8259 1.302C92.3159 0.924 92.8759 0.574 93.5199 0.574C94.1779 0.574 95.4379 1.05 95.4379 1.848C95.4379 2.016 95.3679 2.17 95.2979 2.324C95.0319 2.968 95.0319 3.402 95.0319 4.088V8.918C95.0319 9.604 95.0039 10.416 95.1159 11.074C95.1859 11.438 95.3959 11.718 95.6339 11.984C95.1299 12.628 94.3879 12.922 93.5759 12.922C93.2399 12.922 92.8899 12.894 92.5679 12.782C92.3439 12.698 92.2319 12.544 92.1479 12.334C91.9379 11.746 91.6719 11.424 91.3079 10.934L89.7119 8.764C88.8439 7.574 87.9619 6.412 87.0519 5.264L87.0239 9.884C87.0239 10.528 87.0799 11.158 87.0799 11.788C87.0799 12.642 86.4219 12.922 85.6659 12.922C85.1059 12.922 84.4199 12.67 84.4199 12.012C84.4199 11.326 84.4619 10.64 84.4759 9.968L84.5039 6.72V2.744C84.5039 2.212 84.3359 1.862 83.9999 1.456ZM96.2919 1.848L96.3199 1.806C96.8099 1.274 97.5519 0.448 98.3499 0.448C98.7419 0.448 99.1339 0.644 99.4979 0.784L105.168 0.854C105.742 0.854 106.316 0.868 106.89 0.784C106.61 1.834 106.246 3.458 104.888 3.458C104.398 3.458 103.418 3.332 102.886 3.276C102.452 3.248 102.018 3.234 101.584 3.234C100.884 3.234 100.17 3.262 99.4699 3.304L99.4559 5.264C100.366 5.278 101.276 5.194 102.2 5.194C103.096 5.194 103.992 5.278 104.888 5.278C105.182 5.278 105.476 5.25 105.77 5.222C105.602 5.922 105.378 6.566 104.958 7.154C104.706 7.518 104.356 7.882 103.88 7.882C103.544 7.882 103.194 7.826 102.844 7.784C102.354 7.728 101.864 7.714 101.374 7.714C100.716 7.714 100.072 7.756 99.4139 7.798L99.4559 10.164L100.898 10.178C101.78 10.178 102.648 10.164 103.53 10.206C104.16 10.234 104.804 10.276 105.448 10.276C105.966 10.276 106.47 10.234 106.974 10.178C106.82 11.032 106.568 11.9 105.924 12.53C105.714 12.74 105.476 12.852 105.182 12.852C104.65 12.852 103.656 12.684 103.082 12.614C102.508 12.544 101.92 12.53 101.346 12.53C100.338 12.53 98.6439 12.572 97.6919 12.782C97.4679 12.838 97.2439 12.894 97.0199 12.894C96.5159 12.894 96.1519 12.418 96.1519 11.942C96.1519 11.326 96.5019 10.766 96.8379 10.276L96.8939 3.472C96.8939 2.842 96.6839 2.338 96.2919 1.848ZM113.225 -1.19209e-07C113.393 0.0980003 113.547 0.182 113.701 0.308C113.841 0.434 113.953 0.504 114.149 0.504H114.289C116.277 0.504 118.237 1.624 119.175 3.388C119.749 4.438 119.945 5.67 119.945 6.86C119.945 10.458 117.481 13.118 113.827 13.118C110.201 13.118 107.723 10.458 107.723 6.874C107.723 5.446 108.073 3.99 108.857 2.8C109.599 1.666 110.691 1.092 111.937 0.658C112.399 0.49 112.847 0.336 113.225 -1.19209e-07ZM114.219 2.646H114.079C113.561 3.108 113.337 3.15 112.679 3.248C112.259 3.318 111.867 3.43 111.573 3.738C111.237 4.06 111.013 4.48 110.859 4.928C110.663 5.516 110.621 6.146 110.621 6.762C110.621 8.82 111.531 10.598 113.827 10.598C114.737 10.598 115.661 10.262 116.249 9.548C116.865 8.778 117.047 7.756 117.047 6.79C117.047 5.796 116.893 4.718 116.319 3.892C115.773 3.108 115.157 2.786 114.219 2.646Z" fill="#333333"/>
</svg>
