<svg width="120" height="14" viewBox="0 0 120 14" fill="none" xmlns="http://www.w3.org/2000/svg">
<path d="M4.746 0.224H4.844C5.292 0.308 6.566 0.672 6.566 1.246C6.566 1.442 6.426 1.624 6.328 1.778C6.216 1.946 6.188 2.1 6.188 2.296C6.188 2.646 6.216 2.982 6.216 3.332V11.802C6.216 12.838 6.216 13.328 5.026 13.482H4.914C4.662 13.454 4.41 13.398 4.172 13.286C3.654 13.048 3.668 12.782 3.668 12.25C3.668 12.026 3.682 11.788 3.696 11.55C3.22 11.732 2.758 11.914 2.296 12.11C1.974 12.25 1.89 12.362 1.666 12.614C1.61 12.67 1.54 12.712 1.47 12.754H1.4C0.812001 12.53 0.532002 12.082 0.280002 11.55C0.140001 11.256 1.46776e-06 10.934 1.46776e-06 10.612C1.46776e-06 10.122 0.210001 9.688 0.434002 9.268H0.546001C0.686002 9.352 0.812001 9.422 0.966001 9.478H1.106L1.274 9.436C2.1 9.226 2.912 8.974 3.696 8.624V5.852L3.108 5.824H2.24L1.162 5.936H0.980002C0.798001 5.908 0.644001 5.88 0.504001 5.768C0.294001 5.614 0.210001 5.376 0.210001 5.11C0.210001 4.396 0.714002 3.416 1.078 2.814H1.176L1.204 2.828C1.344 2.954 1.526 3.024 1.708 3.066H3.71C3.724 2.604 3.71 2.128 3.654 1.666C3.626 1.428 3.514 1.274 3.332 1.106C3.696 0.658 4.158 0.294 4.746 0.224ZM8.008 0.252H8.12C8.372 0.28 8.596 0.336 8.82 0.448C9.058 0.56 9.296 0.672 9.52 0.812C9.744 0.952 10.122 1.176 10.122 1.484C10.122 1.61 10.038 1.736 9.94 1.834C9.688 2.128 9.674 2.478 9.674 2.856V3.542H9.73C10.934 3.15 10.934 3.08 11.13 2.366H11.256C12.404 2.66 12.964 2.856 12.964 4.186C12.964 4.732 12.838 5.306 12.516 5.768C12.404 5.922 12.278 6.006 12.096 6.048H11.984L11.48 5.936H11.368C10.808 6.076 10.22 6.174 9.646 6.188V9.688C9.674 10.164 9.842 10.192 10.374 10.234H11.298C11.606 10.206 11.928 10.192 12.222 10.094C12.768 9.898 12.95 9.744 13.188 9.198C13.328 9.45 13.342 9.772 13.342 10.08V10.346C13.342 11.13 13.342 11.998 12.824 12.642C12.474 13.062 11.284 13.076 10.766 13.118H9.576C8.932 13.062 8.274 13.034 7.7 12.726C7.476 12.614 7.35 12.418 7.238 12.194C7.098 11.886 7.154 11.522 7.154 11.186L7.14 2.366C7.112 1.736 7.14 1.498 6.622 1.036C7.112 0.63 7.322 0.322 8.008 0.252ZM20.188 0.266H20.3C20.678 0.392 20.944 0.56 21.238 0.84C21.336 0.924 21.434 1.022 21.518 1.12C21.644 0.952 21.742 0.784 21.84 0.588H23.996L24.738 0.504C25.004 0.406 25.256 0.336 25.536 0.266C26.04 0.392 26.39 0.714 26.74 1.106C26.894 1.288 27.174 1.652 27.174 1.904C27.174 2.1 26.992 2.24 26.852 2.352C26.656 2.548 26.516 2.758 26.39 2.996C26.068 3.598 25.508 4.27 25.116 4.844C24.976 5.026 24.78 5.18 24.626 5.334L24.654 5.376L25.004 5.432H25.088C25.452 5.376 25.788 5.25 26.124 5.124H26.208C26.53 5.208 26.81 5.32 27.062 5.544C27.216 5.67 27.468 5.88 27.468 6.09C27.468 6.23 27.412 6.356 27.356 6.482C27.23 6.804 27.132 7.126 27.062 7.462C26.908 8.162 26.698 8.932 26.264 9.52C26.166 9.646 25.97 9.702 25.83 9.744H25.732C25.396 9.66 25.088 9.394 24.864 9.128V11.998C24.864 12.152 24.584 12.698 24.136 12.95C23.73 13.174 23.254 13.216 22.82 13.272C22.106 13.426 21.392 13.468 20.664 13.524H20.552C20.328 13.482 20.104 13.426 19.908 13.286C19.614 13.076 19.334 12.586 19.138 12.278C18.83 11.83 18.312 11.312 17.822 11.088C17.766 11.06 17.654 11.018 17.654 10.948C17.654 10.92 17.696 10.906 17.71 10.892L18.06 10.976L19.74 11.088H19.824C20.44 11.06 21.742 11.046 22.288 10.948C22.624 10.892 22.708 10.724 22.708 10.402L22.694 9.226L22.68 7.476H22.47L21.56 7.574C21.476 7.616 21.42 7.644 21.406 7.728H21.35L21.308 7.658C21.056 8.106 20.72 8.4 20.216 8.484H20.02L19.866 8.442H19.32L19.124 8.484L19.11 8.876H20.188C20.608 8.834 21.056 8.834 21.448 8.666L21.518 8.638L21.546 8.652C21.462 8.834 21.392 9.016 21.336 9.198C21.238 9.492 21.042 9.744 20.86 9.996C20.706 10.22 20.524 10.388 20.342 10.584C20.23 10.682 19.88 10.738 19.726 10.738C19.18 10.78 18.648 10.794 18.102 10.808C17.542 10.822 16.716 10.934 16.128 10.976L15.932 11.004C15.624 11.018 15.33 11.158 15.036 11.256H14.868C14.532 11.13 14.252 10.976 14.252 10.57C14.252 10.024 14.784 9.408 15.106 9.016L15.148 9.072H15.414L17.29 8.946V8.526H16.52L15.12 8.694H15.036C14.714 8.61 14.476 8.498 14.476 8.134C14.476 7.616 14.896 7.14 15.288 6.874H15.4L15.666 6.958H15.974L17.248 6.888V6.286H16.954C16.478 6.314 16.324 6.328 15.918 6.608H15.778C15.288 6.482 14.658 6.258 14.658 5.656C14.658 5.348 14.742 4.844 14.784 4.508V2.366C14.77 2.072 14.588 1.694 14.322 1.526C14.294 1.512 14.252 1.484 14.252 1.442C14.252 1.344 15.036 0.42 15.638 0.308H15.82C16.128 0.406 16.422 0.504 16.744 0.588H19.054C19.446 0.518 19.824 0.42 20.188 0.266ZM21.574 2.044L21.532 1.988C21.504 2.17 21.49 2.366 21.49 2.548V3.262L21.476 3.444C21.588 3.206 21.728 2.968 21.98 2.842C22.036 2.814 22.078 2.786 22.134 2.744L22.176 2.702L22.05 2.688C21.756 2.59 21.644 2.324 21.574 2.044ZM19.096 2.072V2.702H19.88V2.072H19.096ZM17.29 2.772L17.304 2.086H17.15L16.436 2.156L16.408 2.198L16.422 2.772H17.29ZM24.71 2.618L24.724 2.576L23.926 2.492H23.254L22.848 2.548C23.086 2.674 23.086 2.758 23.156 2.996C23.226 3.262 23.492 3.486 23.674 3.654C23.744 3.57 23.842 3.514 23.94 3.458C24.22 3.276 24.542 2.912 24.71 2.618ZM19.838 4.074L19.6 4.032H19.544L19.096 4.046V4.634H19.838V4.074ZM16.408 4.732H17.29V4.102H17.038L16.408 4.158V4.732ZM21.56 4.312H21.49V5.502H22.736C22.764 5.502 22.806 5.446 22.806 5.432C22.806 5.32 22.512 5.026 22.442 4.942C22.19 4.676 21.882 4.48 21.56 4.312ZM19.348 6.314H19.124V6.874H20.636C20.636 6.748 20.65 6.636 20.664 6.524C20.09 6.412 19.936 6.384 19.348 6.314ZM24.85 8.47L24.892 8.386C24.99 8.204 25.326 7.574 25.326 7.392C25.326 7.336 25.298 7.294 25.228 7.294C25.172 7.294 25.13 7.294 25.088 7.308C25.046 7.322 25.004 7.322 24.962 7.322C24.906 7.336 24.864 7.35 24.808 7.378V7.616C24.808 7.896 24.836 8.19 24.85 8.47ZM29.792 0.868C29.946 0.952 30.1 1.022 30.268 1.078H31.066L33.208 0.966H36.624L39.284 1.106H39.704L40.544 1.022L40.796 0.896C40.67 1.4 40.53 2.184 40.348 2.66C40.25 2.926 40.11 3.164 39.9 3.36C39.634 3.598 39.284 3.668 38.934 3.738H37.856L36.414 3.654H36.036L36.022 7.126L36.008 8.876V9.744C36.596 9.786 37.884 9.898 38.388 9.898C38.724 9.898 39.886 10.066 40.334 10.108H40.754C40.936 10.066 41.09 10.01 41.258 9.926H41.328V10.01C41.328 10.71 41.16 11.354 40.866 11.984C40.712 12.306 40.46 12.698 40.124 12.866C39.97 12.95 39.788 12.978 39.62 13.02C39.34 12.978 39.06 12.936 38.794 12.866C38.514 12.81 38.234 12.782 37.954 12.726C36.848 12.474 35.924 12.39 34.804 12.334H34.72C33.852 12.362 32.984 12.376 32.116 12.474C31.234 12.572 30.058 12.88 29.19 13.118C29.022 13.16 28.868 13.174 28.7 13.188C28.322 13.034 28.084 12.698 28.084 12.278C28.084 11.536 28.7 10.514 29.106 9.912C29.246 10.024 29.386 10.038 29.54 10.024C30.072 9.954 30.59 9.87 31.122 9.842L33.306 9.688V3.57L33.138 3.598L31.122 3.724H31.094L29.75 3.934H29.484C29.232 3.892 29.134 3.836 28.98 3.626C28.868 3.486 28.812 3.318 28.812 3.122C28.812 2.296 29.302 1.498 29.792 0.868ZM44.226 0.49C44.254 0.532 44.268 0.574 44.31 0.602H45.5L47.838 0.504H49.126L53.69 0.658H54.404L55.16 0.602L55.328 0.546H55.384C55.398 0.574 55.412 0.588 55.412 0.616C55.412 0.686 55.3 0.798 55.258 0.854C55.174 0.952 55.132 1.092 55.076 1.218C54.88 1.694 54.6 2.156 54.18 2.464L54.11 2.506C54.362 2.66 54.852 2.954 54.852 3.276C54.852 3.374 54.684 3.598 54.642 3.682C54.502 3.92 54.53 4.214 54.53 4.466C54.53 4.76 54.558 5.04 54.614 5.334C54.628 5.418 54.642 5.502 54.642 5.586C54.642 6.328 53.718 6.608 53.144 6.734H53.074C52.962 6.706 52.878 6.678 52.78 6.622C52.626 6.538 52.36 6.412 52.192 6.398L51.982 6.384L51.016 6.342H50.694C50.764 6.398 50.82 6.468 50.82 6.552C50.82 6.636 50.75 6.692 50.694 6.748L50.624 6.804L52.43 6.846H55.258L55.384 6.762C55.384 7.07 55.23 7.336 55.118 7.616C54.978 7.994 54.852 8.386 54.502 8.61C54.334 8.722 54.138 8.792 53.928 8.792L53.354 8.806C53.732 8.988 54.488 9.45 54.488 9.94C54.488 10.122 54.32 10.304 54.222 10.458C54.152 10.556 54.18 10.738 54.18 10.836V11.004C54.18 11.256 54.152 11.522 54.124 11.774C54.096 11.956 54.026 12.166 53.984 12.348C53.928 12.614 53.718 12.852 53.508 13.006C53.032 13.37 51.926 13.412 51.324 13.454H51.212C50.946 13.412 50.638 13.412 50.414 13.244C50.26 13.146 50.036 12.642 49.952 12.46C49.812 12.124 49.7 11.774 49.63 11.424L50.932 11.522H51.24C51.45 11.508 51.674 11.494 51.884 11.452C52.024 11.368 51.996 11.102 51.968 10.962L51.73 10.948H49.826L49.126 11.004C48.608 12.068 47.586 13.076 46.466 13.468H46.354C45.864 13.398 45.556 13.174 45.164 12.894C44.87 12.684 44.604 12.418 44.394 12.124L44.338 12.012C44.142 12.432 43.834 12.866 43.386 13.006H43.232C42.518 12.656 42.168 10.654 42.084 9.898C42.616 9.562 42.868 9.198 43.05 8.61C43.274 7.854 43.386 7.07 43.4 6.286L43.442 4.536C43.456 4.074 43.414 3.724 43.134 3.332C43.344 3.136 43.568 2.954 43.834 2.814C43.918 2.758 43.974 2.73 43.988 2.716C44.002 2.688 43.988 2.674 43.946 2.674C43.806 2.688 43.624 2.66 43.26 2.674L43.232 2.66C43.162 2.646 43.106 2.618 43.036 2.576C42.882 2.506 42.798 2.254 42.798 2.1C42.798 1.484 43.75 0.77 44.226 0.49ZM49.658 2.422H48.678L45.458 2.576H45.43L45.276 2.604C45.444 2.688 45.612 2.772 45.794 2.842H46.662L47.628 2.786H49.714L51.576 2.856H51.66C51.954 2.8 52.178 2.73 52.444 2.576C51.674 2.506 50.484 2.464 49.658 2.422ZM47.656 4.774H48.804L51.324 4.816H51.968V4.424H51.898L47.852 4.354L45.85 4.452C45.78 4.452 45.71 4.48 45.64 4.494V4.816H46.116L47.656 4.774ZM47.908 6.272C47.138 6.3 46.354 6.314 45.584 6.412C45.556 6.678 45.542 6.944 45.528 7.224C45.682 7.098 45.836 6.986 45.948 6.832H46.046L46.074 6.874H47.306L48.09 6.818C48.076 6.65 47.95 6.538 47.824 6.454C47.88 6.398 47.95 6.356 48.006 6.314C47.978 6.286 47.95 6.286 47.908 6.272ZM52.808 8.806L52.836 8.778L51.604 8.694L50.134 8.666L50.078 9.016L50.134 9.072H50.19L52.206 9.044C52.332 9.016 52.696 8.876 52.808 8.806ZM47.684 8.806H47.138C46.536 8.862 45.934 8.904 45.318 8.904C45.206 9.744 45.066 10.584 44.73 11.368C46.172 10.92 47.138 10.262 47.684 8.806ZM60.83 0.854C61.222 0.378 61.88 0.0279995 62.51 0.0279995C62.986 0.0279995 64.316 0.49 64.316 1.092C64.316 1.316 64.134 1.554 64.036 1.736C63.966 1.89 63.896 2.03 63.896 2.198C65.016 2.226 66.136 2.268 67.256 2.268C67.62 2.268 68.138 2.31 68.488 2.156C68.362 2.884 68.222 3.654 67.69 4.214C67.424 4.48 67.074 4.55 66.71 4.55C66.066 4.55 65.422 4.424 64.778 4.424H63.84L63.826 5.152L65.996 5.222C66.472 5.236 67.018 5.306 67.466 5.306C67.9 5.306 68.334 5.264 68.754 5.222C68.614 5.992 68.376 6.678 67.774 7.224C67.508 7.462 67.186 7.56 66.822 7.56C66.304 7.56 65.086 7.434 64.498 7.392C64.26 7.378 64.036 7.392 63.812 7.392V8.652L67.914 9.954C68.222 10.052 68.53 10.108 68.852 10.164C68.628 10.948 68.32 11.69 67.76 12.306C67.55 12.53 67.256 12.796 66.92 12.796C66.612 12.796 65.786 12.25 65.506 12.068C64.96 11.718 64.358 11.424 63.77 11.13C63.7 11.676 63.56 12.222 63.182 12.628C62.538 13.3 61.432 13.398 60.55 13.398C58.968 13.398 56.742 12.74 56.742 10.808C56.742 10.15 57.064 9.576 57.554 9.142C58.366 8.428 59.542 8.246 60.592 8.246C60.914 8.246 61.25 8.274 61.572 8.302V7.364C60.746 7.392 59.92 7.462 59.094 7.532C58.45 7.588 57.82 7.728 57.176 7.728C57.036 7.728 56.882 7.742 56.784 7.63C56.602 7.42 56.49 7.168 56.49 6.888C56.49 6.314 57.022 5.67 57.372 5.236C57.554 5.32 57.736 5.362 57.932 5.362C59.136 5.362 60.34 5.264 61.53 5.194L61.544 4.48C60.802 4.508 59.542 4.522 58.856 4.662C58.576 4.704 58.282 4.76 58.002 4.76C57.624 4.76 57.232 4.522 57.232 4.102C57.232 3.556 57.96 2.73 58.31 2.324C58.478 2.38 58.66 2.422 58.842 2.422C59.43 2.422 60.802 2.282 61.46 2.226C61.432 1.638 61.292 1.232 60.83 0.854ZM61.446 10.43C61.012 10.262 60.55 10.206 60.074 10.206C59.836 10.206 58.898 10.262 58.898 10.612C58.898 10.99 59.934 11.144 60.2 11.144C60.536 11.144 60.9 11.102 61.18 10.92C61.362 10.822 61.418 10.626 61.446 10.43ZM73.024 0.7C73.472 0.364 74.018 0.0279995 74.606 0.0279995C74.956 0.0279995 75.32 0.168 75.628 0.308C75.964 0.476 76.272 0.714 76.272 1.106C76.272 1.484 76.006 1.792 75.81 2.072C75.712 2.198 75.67 2.352 75.614 2.492C77 2.492 78.4 2.52 79.786 2.422C79.982 2.408 80.178 2.394 80.374 2.394C80.15 3.57 79.912 4.97 78.414 4.97C78.232 4.97 78.036 4.942 77.84 4.928L75.964 4.816C75.698 4.816 75.446 4.844 75.18 4.858C75.068 5.432 74.97 6.02 74.914 6.594C76.118 6.048 77.014 5.782 78.358 5.782C79.562 5.782 80.696 6.006 81.676 6.748C82.432 7.322 82.964 8.204 82.964 9.17C82.964 10.612 81.858 11.83 80.668 12.516C79.45 13.23 77.882 13.426 76.496 13.426C75.824 13.426 75.152 13.37 74.48 13.258C74.102 13.202 73.724 13.104 73.444 12.824C72.702 12.082 72.688 10.836 72.618 9.87C73.192 10.332 73.71 10.556 74.438 10.71C75.054 10.85 75.698 10.892 76.328 10.892C77.35 10.892 78.47 10.766 79.394 10.29C79.856 10.052 80.332 9.632 80.332 9.058C80.332 8.092 79.086 7.868 78.358 7.868C77.546 7.868 76.72 8.036 75.978 8.316C75.446 8.526 74.956 8.82 74.48 9.142C74.312 9.268 74.088 9.408 73.878 9.408C73.262 9.408 72.212 8.932 72.212 8.204C72.212 7.952 72.296 7.7 72.38 7.462C72.646 6.678 72.772 5.838 72.898 5.012C72.352 5.124 71.82 5.25 71.288 5.376C71.148 5.418 70.994 5.446 70.854 5.446C70.392 5.446 70.098 5.054 70.098 4.62C70.098 3.822 70.686 3.136 71.218 2.604C71.386 2.632 71.568 2.688 71.736 2.674C72.24 2.632 72.758 2.576 73.262 2.562C73.304 2.226 73.402 1.862 73.402 1.526C73.402 1.218 73.206 0.938 73.024 0.7ZM84 1.456C84.574 0.966 85.204 0.532 86.002 0.532C86.674 0.532 87.906 0.756 87.934 1.624C87.948 2.282 88.06 2.296 88.438 2.8C89.74 4.62 91.07 6.398 92.442 8.162V3.052C92.442 2.212 92.372 1.96 91.826 1.302C92.316 0.924 92.876 0.574 93.52 0.574C94.178 0.574 95.438 1.05 95.438 1.848C95.438 2.016 95.368 2.17 95.298 2.324C95.032 2.968 95.032 3.402 95.032 4.088V8.918C95.032 9.604 95.004 10.416 95.116 11.074C95.186 11.438 95.396 11.718 95.634 11.984C95.13 12.628 94.388 12.922 93.576 12.922C93.24 12.922 92.89 12.894 92.568 12.782C92.344 12.698 92.232 12.544 92.148 12.334C91.938 11.746 91.672 11.424 91.308 10.934L89.712 8.764C88.844 7.574 87.962 6.412 87.052 5.264L87.024 9.884C87.024 10.528 87.08 11.158 87.08 11.788C87.08 12.642 86.422 12.922 85.666 12.922C85.106 12.922 84.42 12.67 84.42 12.012C84.42 11.326 84.462 10.64 84.476 9.968L84.504 6.72V2.744C84.504 2.212 84.336 1.862 84 1.456ZM96.292 1.848L96.32 1.806C96.81 1.274 97.552 0.448 98.35 0.448C98.742 0.448 99.134 0.644 99.498 0.784L105.168 0.854C105.742 0.854 106.316 0.868 106.89 0.784C106.61 1.834 106.246 3.458 104.888 3.458C104.398 3.458 103.418 3.332 102.886 3.276C102.452 3.248 102.018 3.234 101.584 3.234C100.884 3.234 100.17 3.262 99.47 3.304L99.456 5.264C100.366 5.278 101.276 5.194 102.2 5.194C103.096 5.194 103.992 5.278 104.888 5.278C105.182 5.278 105.476 5.25 105.77 5.222C105.602 5.922 105.378 6.566 104.958 7.154C104.706 7.518 104.356 7.882 103.88 7.882C103.544 7.882 103.194 7.826 102.844 7.784C102.354 7.728 101.864 7.714 101.374 7.714C100.716 7.714 100.072 7.756 99.414 7.798L99.456 10.164L100.898 10.178C101.78 10.178 102.648 10.164 103.53 10.206C104.16 10.234 104.804 10.276 105.448 10.276C105.966 10.276 106.47 10.234 106.974 10.178C106.82 11.032 106.568 11.9 105.924 12.53C105.714 12.74 105.476 12.852 105.182 12.852C104.65 12.852 103.656 12.684 103.082 12.614C102.508 12.544 101.92 12.53 101.346 12.53C100.338 12.53 98.644 12.572 97.692 12.782C97.468 12.838 97.244 12.894 97.02 12.894C96.516 12.894 96.152 12.418 96.152 11.942C96.152 11.326 96.502 10.766 96.838 10.276L96.894 3.472C96.894 2.842 96.684 2.338 96.292 1.848ZM113.225 -1.19209e-07C113.393 0.0980003 113.547 0.182 113.701 0.308C113.841 0.434 113.953 0.504 114.149 0.504H114.289C116.277 0.504 118.237 1.624 119.175 3.388C119.749 4.438 119.945 5.67 119.945 6.86C119.945 10.458 117.481 13.118 113.827 13.118C110.201 13.118 107.723 10.458 107.723 6.874C107.723 5.446 108.073 3.99 108.857 2.8C109.599 1.666 110.691 1.092 111.937 0.658C112.399 0.49 112.847 0.336 113.225 -1.19209e-07ZM114.219 2.646H114.079C113.561 3.108 113.337 3.15 112.679 3.248C112.259 3.318 111.867 3.43 111.573 3.738C111.237 4.06 111.013 4.48 110.859 4.928C110.663 5.516 110.621 6.146 110.621 6.762C110.621 8.82 111.531 10.598 113.827 10.598C114.737 10.598 115.661 10.262 116.249 9.548C116.865 8.778 117.047 7.756 117.047 6.79C117.047 5.796 116.893 4.718 116.319 3.892C115.773 3.108 115.157 2.786 114.219 2.646Z" fill="white"/>
</svg>
