<svg width="29" height="29" viewBox="0 0 29 29" fill="none" xmlns="http://www.w3.org/2000/svg">
<circle cx="14.5" cy="14.5" r="14" stroke="#656565"/>
<path d="M14.46 20.24C13.51 20.24 12.66 20.015 11.91 19.565C11.17 19.115 10.59 18.48 10.17 17.66C9.75 16.83 9.54 15.86 9.54 14.75C9.54 13.63 9.75 12.66 10.17 11.84C10.59 11.01 11.17 10.37 11.91 9.92C12.66 9.46 13.51 9.23 14.46 9.23C15.41 9.23 16.25 9.46 16.98 9.92C17.72 10.37 18.3 11.01 18.72 11.84C19.15 12.66 19.365 13.63 19.365 14.75C19.365 15.29 19.31 15.8 19.2 16.28C19.1 16.75 18.95 17.185 18.75 17.585L20.355 18.815L19.245 20.225L17.7 19.025C17.28 19.415 16.795 19.715 16.245 19.925C15.705 20.135 15.11 20.24 14.46 20.24ZM14.46 18.56C14.81 18.56 15.14 18.505 15.45 18.395C15.76 18.275 16.035 18.115 16.275 17.915L14.865 16.805L15.93 15.44L17.265 16.475C17.355 16.225 17.425 15.955 17.475 15.665C17.525 15.375 17.55 15.07 17.55 14.75C17.55 13.98 17.42 13.31 17.16 12.74C16.91 12.16 16.555 11.715 16.095 11.405C15.635 11.085 15.09 10.925 14.46 10.925C13.84 10.925 13.295 11.085 12.825 11.405C12.355 11.715 11.99 12.16 11.73 12.74C11.48 13.31 11.355 13.98 11.355 14.75C11.355 15.51 11.48 16.18 11.73 16.76C11.99 17.33 12.355 17.775 12.825 18.095C13.295 18.405 13.84 18.56 14.46 18.56Z" fill="#333333"/>
</svg>
