<svg width="372" height="149" viewBox="0 0 372 149" fill="none" xmlns="http://www.w3.org/2000/svg">
<path d="M77.6652 77.8025C79.2052 75.9325 81.7902 74.5575 84.2652 74.5575C86.1352 74.5575 91.3602 76.3725 91.3602 78.7375C91.3602 79.6175 90.6452 80.5525 90.2602 81.2675C89.9852 81.8725 89.7102 82.4225 89.7102 83.0825C94.1102 83.1925 98.5102 83.3575 102.91 83.3575C104.34 83.3575 106.375 83.5225 107.75 82.9175C107.255 85.7775 106.705 88.8025 104.615 91.0025C103.57 92.0475 102.195 92.3225 100.765 92.3225C98.2352 92.3225 95.7052 91.8275 93.1752 91.8275H89.4902L89.4352 94.6875L97.9602 94.9625C99.8302 95.0175 101.975 95.2925 103.735 95.2925C105.44 95.2925 107.145 95.1275 108.795 94.9625C108.245 97.9875 107.31 100.683 104.945 102.828C103.9 103.763 102.635 104.148 101.205 104.148C99.1702 104.148 94.3852 103.653 92.0752 103.488C91.1402 103.433 90.2602 103.488 89.3802 103.488V108.438L105.495 113.553C106.705 113.938 107.915 114.158 109.18 114.378C108.3 117.458 107.09 120.373 104.89 122.793C104.065 123.673 102.91 124.718 101.59 124.718C100.38 124.718 97.1352 122.573 96.0352 121.858C93.8902 120.483 91.5252 119.328 89.2152 118.173C88.9402 120.318 88.3902 122.463 86.9052 124.058C84.3752 126.698 80.0302 127.083 76.5652 127.083C70.3502 127.083 61.6052 124.498 61.6052 116.908C61.6052 114.323 62.8702 112.068 64.7952 110.363C67.9852 107.558 72.6052 106.843 76.7302 106.843C77.9952 106.843 79.3152 106.953 80.5802 107.063V103.378C77.3352 103.488 74.0902 103.763 70.8452 104.038C68.3152 104.258 65.8402 104.808 63.3102 104.808C62.7602 104.808 62.1552 104.863 61.7702 104.423C61.0552 103.598 60.6152 102.608 60.6152 101.508C60.6152 99.2525 62.7052 96.7225 64.0802 95.0175C64.7952 95.3475 65.5102 95.5125 66.2802 95.5125C71.0102 95.5125 75.7402 95.1275 80.4152 94.8525L80.4702 92.0475C77.5552 92.1575 72.6052 92.2125 69.9102 92.7625C68.8102 92.9275 67.6552 93.1475 66.5552 93.1475C65.0702 93.1475 63.5302 92.2125 63.5302 90.5625C63.5302 88.4175 66.3902 85.1725 67.7652 83.5775C68.4252 83.7975 69.1402 83.9625 69.8552 83.9625C72.1652 83.9625 77.5552 83.4125 80.1402 83.1925C80.0302 80.8825 79.4802 79.2875 77.6652 77.8025ZM80.0852 115.423C78.3802 114.763 76.5652 114.543 74.6952 114.543C73.7602 114.543 70.0752 114.763 70.0752 116.138C70.0752 117.623 74.1452 118.228 75.1902 118.228C76.5102 118.228 77.9402 118.063 79.0402 117.348C79.7552 116.963 79.9752 116.193 80.0852 115.423ZM125.57 77.1975C127.33 75.8775 129.475 74.5575 131.785 74.5575C133.16 74.5575 134.59 75.1075 135.8 75.6575C137.12 76.3175 138.33 77.2525 138.33 78.7925C138.33 80.2775 137.285 81.4875 136.515 82.5875C136.13 83.0825 135.965 83.6875 135.745 84.2375C141.19 84.2375 146.69 84.3475 152.135 83.9625C152.905 83.9075 153.675 83.8525 154.445 83.8525C153.565 88.4725 152.63 93.9725 146.745 93.9725C146.03 93.9725 145.26 93.8625 144.49 93.8075L137.12 93.3675C136.075 93.3675 135.085 93.4775 134.04 93.5325C133.6 95.7875 133.215 98.0975 132.995 100.353C137.725 98.2075 141.245 97.1625 146.525 97.1625C151.255 97.1625 155.71 98.0425 159.56 100.958C162.53 103.213 164.62 106.678 164.62 110.473C164.62 116.138 160.275 120.923 155.6 123.618C150.815 126.423 144.655 127.193 139.21 127.193C136.57 127.193 133.93 126.973 131.29 126.533C129.805 126.313 128.32 125.928 127.22 124.828C124.305 121.913 124.25 117.018 123.975 113.223C126.23 115.038 128.265 115.918 131.125 116.523C133.545 117.073 136.075 117.238 138.55 117.238C142.565 117.238 146.965 116.743 150.595 114.873C152.41 113.938 154.28 112.288 154.28 110.033C154.28 106.238 149.385 105.358 146.525 105.358C143.335 105.358 140.09 106.018 137.175 107.118C135.085 107.943 133.16 109.098 131.29 110.363C130.63 110.858 129.75 111.408 128.925 111.408C126.505 111.408 122.38 109.538 122.38 106.678C122.38 105.688 122.71 104.698 123.04 103.763C124.085 100.683 124.58 97.3825 125.075 94.1375C122.93 94.5775 120.84 95.0725 118.75 95.5675C118.2 95.7325 117.595 95.8425 117.045 95.8425C115.23 95.8425 114.075 94.3025 114.075 92.5975C114.075 89.4625 116.385 86.7675 118.475 84.6775C119.135 84.7875 119.85 85.0075 120.51 84.9525C122.49 84.7875 124.525 84.5675 126.505 84.5125C126.67 83.1925 127.055 81.7625 127.055 80.4425C127.055 79.2325 126.285 78.1325 125.57 77.1975ZM168.69 80.1675C170.945 78.2425 173.42 76.5375 176.555 76.5375C179.195 76.5375 184.035 77.4175 184.145 80.8275C184.2 83.4125 184.64 83.4675 186.125 85.4475C191.24 92.5975 196.465 99.5825 201.855 106.513V86.4375C201.855 83.1375 201.58 82.1475 199.435 79.5625C201.36 78.0775 203.56 76.7025 206.09 76.7025C208.675 76.7025 213.625 78.5725 213.625 81.7075C213.625 82.3675 213.35 82.9725 213.075 83.5775C212.03 86.1075 212.03 87.8125 212.03 90.5075V109.483C212.03 112.178 211.92 115.368 212.36 117.953C212.635 119.383 213.46 120.483 214.395 121.528C212.415 124.058 209.5 125.213 206.31 125.213C204.99 125.213 203.615 125.103 202.35 124.663C201.47 124.333 201.03 123.728 200.7 122.903C199.875 120.593 198.83 119.328 197.4 117.403L191.13 108.878C187.72 104.203 184.255 99.6375 180.68 95.1275L180.57 113.278C180.57 115.808 180.79 118.283 180.79 120.758C180.79 124.113 178.205 125.213 175.235 125.213C173.035 125.213 170.34 124.223 170.34 121.638C170.34 118.943 170.505 116.248 170.56 113.608L170.67 100.848V85.2275C170.67 83.1375 170.01 81.7625 168.69 80.1675ZM216.98 81.7075L217.09 81.5425C219.015 79.4525 221.93 76.2075 225.065 76.2075C226.605 76.2075 228.145 76.9775 229.575 77.5275L251.85 77.8025C254.105 77.8025 256.36 77.8575 258.615 77.5275C257.515 81.6525 256.085 88.0325 250.75 88.0325C248.825 88.0325 244.975 87.5375 242.885 87.3175C241.18 87.2075 239.475 87.1525 237.77 87.1525C235.02 87.1525 232.215 87.2625 229.465 87.4275L229.41 95.1275C232.985 95.1825 236.56 94.8525 240.19 94.8525C243.71 94.8525 247.23 95.1825 250.75 95.1825C251.905 95.1825 253.06 95.0725 254.215 94.9625C253.555 97.7125 252.675 100.243 251.025 102.553C250.035 103.983 248.66 105.413 246.79 105.413C245.47 105.413 244.095 105.193 242.72 105.028C240.795 104.808 238.87 104.753 236.945 104.753C234.36 104.753 231.83 104.918 229.245 105.083L229.41 114.378L235.075 114.433C238.54 114.433 241.95 114.378 245.415 114.543C247.89 114.653 250.42 114.818 252.95 114.818C254.985 114.818 256.965 114.653 258.945 114.433C258.34 117.788 257.35 121.198 254.82 123.673C253.995 124.498 253.06 124.938 251.905 124.938C249.815 124.938 245.91 124.278 243.655 124.003C241.4 123.728 239.09 123.673 236.835 123.673C232.875 123.673 226.22 123.838 222.48 124.663C221.6 124.883 220.72 125.103 219.84 125.103C217.86 125.103 216.43 123.233 216.43 121.363C216.43 118.943 217.805 116.743 219.125 114.818L219.345 88.0875C219.345 85.6125 218.52 83.6325 216.98 81.7075ZM283.504 74.4475C284.164 74.8325 284.769 75.1625 285.374 75.6575C285.924 76.1525 286.364 76.4275 287.134 76.4275H287.684C295.494 76.4275 303.194 80.8275 306.879 87.7575C309.134 91.8825 309.904 96.7225 309.904 101.398C309.904 115.533 300.224 125.983 285.869 125.983C271.624 125.983 261.889 115.533 261.889 101.453C261.889 95.8425 263.264 90.1225 266.344 85.4475C269.259 80.9925 273.549 78.7375 278.444 77.0325C280.259 76.3725 282.019 75.7675 283.504 74.4475ZM287.409 84.8425H286.859C284.824 86.6575 283.944 86.8225 281.359 87.2075C279.709 87.4825 278.169 87.9225 277.014 89.1325C275.694 90.3975 274.814 92.0475 274.209 93.8075C273.439 96.1175 273.274 98.5925 273.274 101.013C273.274 109.098 276.849 116.083 285.869 116.083C289.444 116.083 293.074 114.763 295.384 111.958C297.804 108.933 298.519 104.918 298.519 101.123C298.519 97.2175 297.914 92.9825 295.659 89.7375C293.514 86.6575 291.094 85.3925 287.409 84.8425Z" fill="white"/>
<path d="M102.204 36.7828L102.43 36.6882C103.544 36.4492 106.834 36.0583 107.388 37.3819C107.577 37.8339 107.43 38.3887 107.353 38.8385C107.257 39.3341 107.341 39.7162 107.53 40.1682C107.868 40.9753 108.257 41.723 108.595 42.5301L116.775 62.0615C117.775 64.4505 118.248 65.5804 115.653 67.0847L115.395 67.1929C114.787 67.3717 114.152 67.4859 113.495 67.4575C112.07 67.4089 111.846 66.782 111.332 65.5552C111.116 65.0387 110.918 64.4763 110.72 63.914C109.799 64.7934 108.909 65.6592 108.033 66.5573C107.426 67.1911 107.34 67.5305 107.067 68.3279C106.992 68.5111 106.871 68.6756 106.75 68.84L106.589 68.9076C105.016 68.9589 103.938 68.1963 102.843 67.2129C102.237 66.6701 101.603 66.0628 101.292 65.3203C100.819 64.1904 100.884 62.9868 100.995 61.802L101.253 61.6938C101.657 61.7523 102.015 61.792 102.424 61.7724L102.747 61.6372L103.094 61.3782C104.796 60.0962 106.425 58.731 107.895 57.1668L105.218 50.7747L103.835 51.278L101.833 52.1162L99.4557 53.4155L99.036 53.5912C98.5893 53.7024 98.2071 53.7866 97.7761 53.6635C97.1431 53.5112 96.7196 53.0435 96.4627 52.4301C95.7732 50.7837 95.989 48.0371 96.247 46.2974L96.473 46.2028L96.5511 46.208C96.9956 46.3634 97.4829 46.349 97.9431 46.2701L102.56 44.3368C102.146 43.2579 101.654 42.1738 101.079 41.1625C100.784 40.6408 100.377 40.3938 99.7952 40.1822C100.202 38.7976 100.916 37.5121 102.204 36.7828ZM109.753 33.6972L110.011 33.5891C110.62 33.4103 111.19 33.3231 111.815 33.365C112.472 33.3935 113.129 33.4219 113.781 33.5284C114.432 33.6349 115.52 33.7864 115.818 34.4967C115.939 34.7872 115.867 35.1589 115.736 35.4795C115.439 36.4008 115.745 37.2214 116.11 38.0931L116.772 39.6749L116.901 39.6209C119.299 37.5542 119.231 37.3928 118.994 35.5571L119.284 35.4354C122.216 35.0047 123.696 34.9159 124.981 37.9828C125.508 39.2418 125.772 40.6871 125.475 42.0635C125.366 42.5267 125.156 42.8421 124.777 43.1147L124.519 43.2229L123.248 43.4513L122.99 43.5595C121.834 44.4231 120.573 45.2169 119.263 45.8035L122.643 53.8744C123.167 54.945 123.581 54.8473 124.849 54.4304L126.979 53.5381C127.663 53.1761 128.392 52.8328 128.975 52.3229C130.045 51.3437 130.316 50.8128 130.337 49.3239C130.903 49.7698 131.247 50.4988 131.544 51.209L131.801 51.8224C132.558 53.6303 133.396 55.6319 132.824 57.6171C132.422 58.9236 129.692 60.1051 128.538 60.7022L125.794 61.8514C124.255 62.3442 122.71 62.915 121.089 62.7591C120.464 62.7172 119.985 62.3869 119.51 61.9785C118.89 61.4035 118.667 60.51 118.343 59.7352L109.793 39.4102C109.12 37.9845 108.955 37.4087 107.314 36.8436C108.052 35.4342 108.239 34.5211 109.753 33.6972ZM144.676 23.4672L144.951 23.4149C145.938 23.5476 146.67 23.8359 147.523 24.3861C147.803 24.5466 148.089 24.7414 148.342 24.9429C148.573 24.4714 148.735 24.013 148.884 23.4858L154.179 22.478L155.962 21.9248C156.569 21.5598 157.155 21.2701 157.81 20.9673C159.107 21.0412 160.117 21.6684 161.16 22.4675C161.623 22.8425 162.481 23.6055 162.599 24.2244C162.69 24.7058 162.309 25.1347 162.017 25.4752C161.628 26.0482 161.382 26.6294 161.184 27.2728C160.674 28.9017 159.613 30.8139 158.919 32.4068C158.66 32.9192 158.251 33.3891 157.944 33.8392L158.033 33.9293L158.919 33.9032L159.125 33.864C159.993 33.5563 160.759 33.0898 161.525 32.6233L161.731 32.584C162.562 32.6398 163.302 32.784 164.025 33.2163C164.462 33.4538 165.179 33.8517 165.277 34.3674C165.343 34.7113 165.264 35.0469 165.186 35.3825C165.027 36.2322 164.937 37.0688 164.922 37.9267C164.871 39.7179 164.715 41.7071 163.924 43.354C163.742 43.7093 163.287 43.9384 162.963 44.107L162.722 44.1528C161.858 44.1036 160.977 43.5943 160.302 43.0457L161.644 50.0942C161.716 50.4724 161.283 51.9442 160.301 52.7725C159.409 53.5124 158.259 53.8381 157.22 54.1785C155.538 54.8904 153.804 55.3273 152.042 55.8052L151.767 55.8575C151.198 55.8591 150.621 55.8263 150.075 55.574C149.254 55.1957 148.338 54.1232 147.712 53.4584C146.746 52.5021 145.232 51.4721 143.924 51.151C143.773 51.1085 143.479 51.0577 143.446 50.8857C143.433 50.817 143.53 50.763 143.557 50.722L144.456 50.7647L148.634 50.2545L148.841 50.2152C150.341 49.8585 153.532 49.2155 154.827 48.7196C155.626 48.425 155.753 47.9732 155.603 47.1824L155.019 44.3008L154.166 40.0095L153.651 40.1076L151.462 40.7737C151.275 40.9161 151.151 41.011 151.155 41.2239L151.018 41.25L150.882 41.0978C150.473 42.3158 149.785 43.1949 148.586 43.6368L148.105 43.7284L147.707 43.6973L146.366 43.9525L145.904 44.1472L146.053 45.1165L148.701 44.6126C149.713 44.3131 150.813 44.1037 151.697 43.5079L151.856 43.4064L151.931 43.4277C151.81 43.9139 151.723 44.3936 151.671 44.8668C151.567 45.6346 151.204 46.3451 150.875 47.0491C150.601 47.6712 150.233 48.1689 149.877 48.7353C149.648 49.0283 148.815 49.3295 148.436 49.4015C147.115 49.7598 145.815 50.0429 144.481 50.3325C143.112 50.6287 141.136 51.2898 139.711 51.6678L139.243 51.8282C138.493 52.0066 137.837 52.4878 137.16 52.8659L136.748 52.9445C135.864 52.7921 135.104 52.5448 134.914 51.5477C134.659 50.2067 135.678 48.4452 136.285 47.332L136.415 47.4499L137.068 47.3255L141.616 46.1392L141.42 45.1077L139.529 45.4676L136.169 46.5346L135.963 46.5739C135.133 46.5181 134.496 46.3543 134.326 45.4604C134.084 44.1882 134.893 42.8228 135.731 41.9863L136.006 41.934L136.699 42.0159L137.455 41.872L140.551 41.1045L140.27 39.6261L139.548 39.7635C138.392 40.0548 138.02 40.1611 137.154 41.0386L136.81 41.104C135.548 41.0236 133.896 40.768 133.614 39.2895C133.47 38.5331 133.441 37.2561 133.387 36.4112L132.386 31.1507C132.214 30.4352 131.59 29.5919 130.859 29.3037C130.783 29.2824 130.667 29.2333 130.647 29.1301C130.602 28.8894 132.095 26.2537 133.521 25.6972L133.968 25.6122C134.77 25.7089 135.538 25.8121 136.368 25.8679L142.042 24.7881C142.972 24.4329 143.854 24.0156 144.676 23.4672ZM148.911 27.1859L148.782 27.068C148.798 27.5281 148.855 28.016 148.94 28.463L149.274 30.2165L149.325 30.67C149.489 30.0332 149.721 29.3832 150.281 28.956C150.406 28.861 150.496 28.7726 150.614 28.6433L150.697 28.5205L150.381 28.545C149.613 28.4418 149.214 27.8409 148.911 27.1859ZM142.838 28.413L143.133 29.9603L145.058 29.5938L144.764 28.0466L142.838 28.413ZM138.73 30.9764L138.444 29.2851L138.066 29.3571L136.345 29.8627L136.296 29.979L136.598 31.3821L138.73 30.9764ZM156.881 27.1297L156.896 27.02L154.897 27.1868L153.246 27.5009L152.275 27.8282C152.919 28.0264 152.958 28.2327 153.241 28.7845C153.538 29.405 154.296 29.8308 154.821 30.1583C154.954 29.9193 155.168 29.736 155.383 29.5526C155.985 28.9748 156.606 27.9303 156.881 27.1297ZM145.596 32.9829L144.992 32.991L144.855 33.0172L143.761 33.261L144.036 34.7051L145.858 34.3582L145.596 32.9829ZM137.48 36.2022L139.646 35.79L139.352 34.2427L138.733 34.3605L137.212 34.7925L137.48 36.2022ZM149.937 32.7625L149.765 32.7952L150.321 35.7177L153.381 35.1353C153.45 35.1222 153.527 34.9651 153.52 34.9307C153.468 34.6556 152.609 34.071 152.397 33.8974C151.654 33.362 150.806 33.0246 149.937 32.7625ZM145.44 38.7132L144.89 38.8179L145.152 40.1932L148.865 39.4865C148.806 39.177 148.788 38.8954 148.77 38.6138C147.308 38.607 146.917 38.6103 145.44 38.7132ZM159.96 41.4363L160.024 41.2103C160.18 40.7176 160.711 39.0133 160.626 38.5663C160.599 38.4288 160.511 38.3387 160.339 38.3714C160.201 38.3976 160.098 38.4172 160.002 38.4713C159.905 38.5253 159.802 38.5449 159.699 38.5645C159.568 38.6251 159.471 38.6791 159.347 38.7741L159.458 39.3586C159.589 40.0462 159.795 40.7552 159.96 41.4363ZM173.848 20.9652C174.233 21.1752 174.618 21.3502 175.038 21.4902L177.033 21.4902L182.388 21.2102L190.928 21.2102L197.578 21.5602L198.628 21.5602L200.728 21.3502L201.358 21.0352C201.043 22.2952 200.693 24.2552 200.238 25.4452C199.993 26.1102 199.643 26.7052 199.118 27.1952C198.453 27.7902 197.578 27.9652 196.703 28.1402L194.008 28.1402L190.403 27.9302L189.458 27.9302L189.423 36.6102L189.388 40.9852L189.388 43.1552C190.858 43.2602 194.078 43.5402 195.338 43.5402C196.178 43.5402 199.083 43.9602 200.203 44.0652L201.253 44.0652C201.708 43.9602 202.093 43.8202 202.513 43.6102L202.688 43.6102L202.688 43.8202C202.688 45.5702 202.268 47.1802 201.533 48.7552C201.148 49.5602 200.518 50.5402 199.678 50.9602C199.293 51.1702 198.838 51.2402 198.418 51.3452C197.718 51.2402 197.018 51.1352 196.353 50.9602C195.653 50.8202 194.953 50.7502 194.253 50.6102C191.488 49.9802 189.178 49.7702 186.378 49.6302L186.168 49.6302C183.998 49.7002 181.828 49.7352 179.658 49.9802C177.453 50.2252 174.513 50.9952 172.343 51.5902C171.923 51.6952 171.538 51.7302 171.118 51.7652C170.173 51.3802 169.578 50.5402 169.578 49.4902C169.578 47.6352 171.118 45.0802 172.133 43.5752C172.483 43.8552 172.833 43.8902 173.218 43.8552C174.548 43.6802 175.843 43.4702 177.173 43.4002L182.633 43.0152L182.633 27.7202L182.213 27.7902L177.173 28.1052L177.103 28.1052L173.743 28.6302L173.078 28.6302C172.448 28.5252 172.203 28.3852 171.818 27.8602C171.538 27.5102 171.398 27.0902 171.398 26.6002C171.398 24.5352 172.623 22.5402 173.848 20.9652ZM215.212 21.7314C215.261 21.8476 215.276 21.9573 215.366 22.0457L218.288 22.602L224.076 23.4542L227.239 24.0562L238.376 26.5679L240.129 26.9016L242.012 27.1175L242.451 27.0585L242.589 27.0846C242.61 27.16 242.638 27.2009 242.625 27.2696C242.592 27.4416 242.264 27.6643 242.135 27.7822C241.883 27.9836 241.714 28.3078 241.518 28.591C240.814 29.6684 239.911 30.6722 238.735 31.2323L238.544 31.3027C239.09 31.7987 240.156 32.7498 240.006 33.5406C239.96 33.7813 239.443 34.2529 239.3 34.4395C238.845 34.9586 238.777 35.6937 238.659 36.3126C238.521 37.0347 238.459 37.7354 238.459 38.4836C238.455 38.6965 238.45 38.9093 238.41 39.1156C238.064 40.9379 235.663 41.1936 234.195 41.2347L234.023 41.202C233.761 41.0809 233.568 40.9729 233.353 40.7895C233.014 40.5113 232.42 40.0775 232.014 39.9646L231.505 39.832L229.152 39.2773L228.361 39.1268C228.507 39.297 228.612 39.4951 228.572 39.7014C228.533 39.9077 228.335 40.0125 228.171 40.1239L227.973 40.2287L232.389 41.1761L239.334 42.498L239.683 42.3506C239.539 43.107 239.036 43.6883 238.63 44.3236C238.11 45.1865 237.617 46.0903 236.653 46.4768C236.188 46.6734 235.674 46.7537 235.158 46.6555L233.742 46.4216C234.585 47.0452 236.226 48.5332 235.997 49.7366C235.912 50.1836 235.414 50.5521 235.101 50.8845C234.884 51.0924 234.867 51.5525 234.822 51.7932L234.743 52.2058C234.625 52.8246 234.432 53.4648 234.246 54.0706C234.092 54.5045 233.822 54.9875 233.634 55.4149C233.372 56.042 232.745 56.5283 232.157 56.8084C230.818 57.4798 228.082 57.066 226.584 56.8877L226.309 56.8354C225.675 56.6079 224.919 56.4639 224.447 55.9466C224.115 55.6339 223.8 54.2915 223.679 53.8052C223.492 52.9146 223.381 52.0027 223.372 51.1104L226.524 51.9597L227.281 52.1036C227.803 52.1674 228.36 52.2377 228.895 52.2328C229.278 52.0919 229.334 51.4255 229.33 51.0686L228.752 50.923L224.076 50.033L222.331 49.8433C220.561 52.2143 217.58 54.2121 214.646 54.6513L214.371 54.5989C213.201 54.1979 212.549 53.5038 211.717 52.633C211.093 51.9798 210.564 51.2022 210.186 50.382L210.101 50.0807C209.423 51.0206 208.464 51.9425 207.298 52.0769L206.92 52.0049C205.33 50.8116 205.406 45.7313 205.553 43.8353C207.017 43.2588 207.806 42.4827 208.528 41.1237C209.431 39.3717 210.073 37.4986 210.474 35.5797L211.395 31.3015C211.645 30.1734 211.706 29.2942 211.201 28.2006C211.809 27.8174 212.444 27.4752 213.163 27.2557C213.395 27.1574 213.546 27.1148 213.587 27.087C213.634 27.0248 213.606 26.9838 213.503 26.9642C213.153 26.9331 212.719 26.7793 211.818 26.6435L211.756 26.5961C211.591 26.529 211.466 26.434 211.314 26.2982C210.969 26.0543 210.88 25.3961 210.952 25.0179C211.24 23.505 213.912 22.1965 215.212 21.7314ZM227.649 29.0154L225.242 28.5573L217.262 27.4303L217.194 27.4172L216.802 27.414C217.176 27.6988 217.549 27.9836 217.963 28.2406L220.095 28.6464L222.493 28.9604L227.616 29.9355L232.157 30.9778L232.363 31.017C233.111 31.0169 233.694 30.9497 234.419 30.6959C232.561 30.164 229.658 29.5046 227.649 29.0154ZM221.633 33.8558L224.452 34.3925L230.622 35.6736L232.203 35.9746L232.386 35.0119L232.215 34.9792L222.311 32.916L217.348 32.2208C217.176 32.1881 216.991 32.2241 216.813 32.2258L216.662 33.0166L217.831 33.2391L221.633 33.8558ZM221.552 37.6526C219.647 37.3614 217.715 37.0293 215.779 36.9101C215.586 37.5503 215.427 38.197 215.262 38.8781C215.699 38.6406 216.129 38.4376 216.476 38.1117L216.717 38.1575L216.766 38.2737L219.792 38.8496L221.743 39.0786C221.787 38.6594 221.53 38.3255 221.26 38.0603C221.424 37.9489 221.615 37.8785 221.773 37.8015C221.717 37.7197 221.648 37.7066 221.552 37.6526ZM232.401 46.1663L232.483 46.1107L229.496 45.3285L225.899 44.5726L225.598 45.406L225.71 45.5697L225.847 45.5958L230.811 46.4694C231.134 46.4596 232.093 46.2859 232.401 46.1663ZM219.817 43.7712L218.476 43.5159C216.971 43.3721 215.473 43.1938 213.96 42.9059C213.293 44.9165 212.556 46.914 211.365 48.6824C215.115 48.2562 217.795 47.0917 219.817 43.7712ZM265.99 42.8147C262.944 47.4588 259.557 51.9219 255.165 55.4328C252.663 57.4206 248.029 60.6026 244.704 59.2101C242.154 58.142 241.437 54.2369 241.522 51.7682C241.595 50.0533 242.077 48.358 242.74 46.7761C246.836 36.9943 256.453 32.7874 266.299 36.911C274.628 40.3991 277.684 48.0535 274.209 56.3503C272.479 60.4826 269.338 64.1762 265.138 65.8701C262.697 66.8968 258.501 67.4923 256.015 66.4513C254.691 65.897 254.11 64.4771 253.786 63.1654C253.386 61.4039 253.505 59.6702 253.747 57.9126C254.196 58.2903 254.672 58.6035 255.253 58.8468C257.578 59.8203 260.841 59.8208 263.223 58.8451C265.664 57.8183 267.603 55.633 268.617 53.2118C269.496 51.1133 269.789 48.6935 268.985 46.5355C268.387 44.8813 267.391 43.8188 265.99 42.8147ZM260.208 40.5831C257.413 40.5511 255.426 40.8571 253.003 42.3847C250.922 43.6382 249.058 45.5518 248.112 47.8116C247.76 48.651 247.074 51.2855 248.204 51.7587C249.56 52.3265 253.575 48.8096 254.611 47.8772C256.919 45.8083 258.631 43.2618 260.208 40.5831Z" fill="white"/>
</svg>
